<mxfile host="app.diagrams.net" modified="2021-08-18T13:37:27.906Z" agent="5.0 (Windows NT 10.0; Win64; x64) AppleWebKit/537.36 (KHTML, like Gecko) Chrome/92.0.4515.131 Safari/537.36" etag="r_AEfBZ658puOpz-VgPc" version="14.9.7" type="github">
  <diagram id="R2lEEEUBdFMjLlhIrx00" name="Page-1">
    <mxGraphModel dx="2557" dy="912" grid="1" gridSize="10" guides="1" tooltips="1" connect="1" arrows="1" fold="1" page="1" pageScale="1" pageWidth="827" pageHeight="3000" math="0" shadow="0" extFonts="Permanent Marker^https://fonts.googleapis.com/css?family=Permanent+Marker">
      <root>
        <mxCell id="0" />
        <mxCell id="1" parent="0" />
        <mxCell id="C-vyLk0tnHw3VtMMgP7b-1" value="" style="edgeStyle=entityRelationEdgeStyle;endArrow=ERzeroToMany;startArrow=ERone;endFill=1;startFill=0;" parent="1" source="C-vyLk0tnHw3VtMMgP7b-24" target="C-vyLk0tnHw3VtMMgP7b-6" edge="1">
          <mxGeometry width="100" height="100" relative="1" as="geometry">
            <mxPoint x="-30" y="770" as="sourcePoint" />
            <mxPoint x="70" y="670" as="targetPoint" />
          </mxGeometry>
        </mxCell>
        <mxCell id="C-vyLk0tnHw3VtMMgP7b-12" value="" style="edgeStyle=entityRelationEdgeStyle;endArrow=ERzeroToMany;startArrow=ERone;endFill=1;startFill=0;exitX=0;exitY=0.5;exitDx=0;exitDy=0;" parent="1" source="C-vyLk0tnHw3VtMMgP7b-24" target="C-vyLk0tnHw3VtMMgP7b-17" edge="1">
          <mxGeometry width="100" height="100" relative="1" as="geometry">
            <mxPoint x="30" y="230" as="sourcePoint" />
            <mxPoint x="90" y="255" as="targetPoint" />
          </mxGeometry>
        </mxCell>
        <mxCell id="C-vyLk0tnHw3VtMMgP7b-2" value="Adlimn_details [level==2]" style="shape=table;startSize=30;container=1;collapsible=1;childLayout=tableLayout;fixedRows=1;rowLines=0;fontStyle=1;align=center;resizeLast=1;" parent="1" vertex="1">
          <mxGeometry x="200" y="135" width="260" height="310" as="geometry" />
        </mxCell>
        <mxCell id="C-vyLk0tnHw3VtMMgP7b-3" value="" style="shape=partialRectangle;collapsible=0;dropTarget=0;pointerEvents=0;fillColor=none;points=[[0,0.5],[1,0.5]];portConstraint=eastwest;top=0;left=0;right=0;bottom=1;" parent="C-vyLk0tnHw3VtMMgP7b-2" vertex="1">
          <mxGeometry y="30" width="260" height="30" as="geometry" />
        </mxCell>
        <mxCell id="C-vyLk0tnHw3VtMMgP7b-4" value="PK" style="shape=partialRectangle;overflow=hidden;connectable=0;fillColor=none;top=0;left=0;bottom=0;right=0;fontStyle=1;" parent="C-vyLk0tnHw3VtMMgP7b-3" vertex="1">
          <mxGeometry width="30" height="30" as="geometry" />
        </mxCell>
        <mxCell id="C-vyLk0tnHw3VtMMgP7b-5" value="admin_id int NOT NULL " style="shape=partialRectangle;overflow=hidden;connectable=0;fillColor=none;top=0;left=0;bottom=0;right=0;align=left;spacingLeft=6;fontStyle=5;" parent="C-vyLk0tnHw3VtMMgP7b-3" vertex="1">
          <mxGeometry x="30" width="230" height="30" as="geometry" />
        </mxCell>
        <mxCell id="C-vyLk0tnHw3VtMMgP7b-6" value="" style="shape=partialRectangle;collapsible=0;dropTarget=0;pointerEvents=0;fillColor=none;points=[[0,0.5],[1,0.5]];portConstraint=eastwest;top=0;left=0;right=0;bottom=0;" parent="C-vyLk0tnHw3VtMMgP7b-2" vertex="1">
          <mxGeometry y="60" width="260" height="30" as="geometry" />
        </mxCell>
        <mxCell id="C-vyLk0tnHw3VtMMgP7b-7" value="FK1" style="shape=partialRectangle;overflow=hidden;connectable=0;fillColor=none;top=0;left=0;bottom=0;right=0;" parent="C-vyLk0tnHw3VtMMgP7b-6" vertex="1">
          <mxGeometry width="30" height="30" as="geometry" />
        </mxCell>
        <mxCell id="C-vyLk0tnHw3VtMMgP7b-8" value="login_id int NOT NULL" style="shape=partialRectangle;overflow=hidden;connectable=0;fillColor=none;top=0;left=0;bottom=0;right=0;align=left;spacingLeft=6;" parent="C-vyLk0tnHw3VtMMgP7b-6" vertex="1">
          <mxGeometry x="30" width="230" height="30" as="geometry" />
        </mxCell>
        <mxCell id="KfJyjTm68fT7vTi74J8v-63" value="" style="shape=partialRectangle;collapsible=0;dropTarget=0;pointerEvents=0;fillColor=none;points=[[0,0.5],[1,0.5]];portConstraint=eastwest;top=0;left=0;right=0;bottom=0;" vertex="1" parent="C-vyLk0tnHw3VtMMgP7b-2">
          <mxGeometry y="90" width="260" height="30" as="geometry" />
        </mxCell>
        <mxCell id="KfJyjTm68fT7vTi74J8v-64" value="" style="shape=partialRectangle;overflow=hidden;connectable=0;fillColor=none;top=0;left=0;bottom=0;right=0;" vertex="1" parent="KfJyjTm68fT7vTi74J8v-63">
          <mxGeometry width="30" height="30" as="geometry" />
        </mxCell>
        <mxCell id="KfJyjTm68fT7vTi74J8v-65" value="added_on [date]" style="shape=partialRectangle;overflow=hidden;connectable=0;fillColor=none;top=0;left=0;bottom=0;right=0;align=left;spacingLeft=6;" vertex="1" parent="KfJyjTm68fT7vTi74J8v-63">
          <mxGeometry x="30" width="230" height="30" as="geometry" />
        </mxCell>
        <mxCell id="C-vyLk0tnHw3VtMMgP7b-9" value="" style="shape=partialRectangle;collapsible=0;dropTarget=0;pointerEvents=0;fillColor=none;points=[[0,0.5],[1,0.5]];portConstraint=eastwest;top=0;left=0;right=0;bottom=0;" parent="C-vyLk0tnHw3VtMMgP7b-2" vertex="1">
          <mxGeometry y="120" width="260" height="30" as="geometry" />
        </mxCell>
        <mxCell id="C-vyLk0tnHw3VtMMgP7b-10" value="" style="shape=partialRectangle;overflow=hidden;connectable=0;fillColor=none;top=0;left=0;bottom=0;right=0;" parent="C-vyLk0tnHw3VtMMgP7b-9" vertex="1">
          <mxGeometry width="30" height="30" as="geometry" />
        </mxCell>
        <mxCell id="C-vyLk0tnHw3VtMMgP7b-11" value="package_type [int] [1== inviduval pakage&#xa;,2==take away]" style="shape=partialRectangle;overflow=hidden;connectable=0;fillColor=none;top=0;left=0;bottom=0;right=0;align=left;spacingLeft=6;" parent="C-vyLk0tnHw3VtMMgP7b-9" vertex="1">
          <mxGeometry x="30" width="230" height="30" as="geometry" />
        </mxCell>
        <mxCell id="KfJyjTm68fT7vTi74J8v-78" value="" style="shape=partialRectangle;collapsible=0;dropTarget=0;pointerEvents=0;fillColor=none;points=[[0,0.5],[1,0.5]];portConstraint=eastwest;top=0;left=0;right=0;bottom=0;" vertex="1" parent="C-vyLk0tnHw3VtMMgP7b-2">
          <mxGeometry y="150" width="260" height="30" as="geometry" />
        </mxCell>
        <mxCell id="KfJyjTm68fT7vTi74J8v-79" value="" style="shape=partialRectangle;overflow=hidden;connectable=0;fillColor=none;top=0;left=0;bottom=0;right=0;" vertex="1" parent="KfJyjTm68fT7vTi74J8v-78">
          <mxGeometry width="30" height="30" as="geometry" />
        </mxCell>
        <mxCell id="KfJyjTm68fT7vTi74J8v-80" value="period [int] [ex 1,2,3...]" style="shape=partialRectangle;overflow=hidden;connectable=0;fillColor=none;top=0;left=0;bottom=0;right=0;align=left;spacingLeft=6;" vertex="1" parent="KfJyjTm68fT7vTi74J8v-78">
          <mxGeometry x="30" width="230" height="30" as="geometry" />
        </mxCell>
        <mxCell id="KfJyjTm68fT7vTi74J8v-81" value="" style="shape=partialRectangle;collapsible=0;dropTarget=0;pointerEvents=0;fillColor=none;points=[[0,0.5],[1,0.5]];portConstraint=eastwest;top=0;left=0;right=0;bottom=0;" vertex="1" parent="C-vyLk0tnHw3VtMMgP7b-2">
          <mxGeometry y="180" width="260" height="30" as="geometry" />
        </mxCell>
        <mxCell id="KfJyjTm68fT7vTi74J8v-82" value="" style="shape=partialRectangle;overflow=hidden;connectable=0;fillColor=none;top=0;left=0;bottom=0;right=0;" vertex="1" parent="KfJyjTm68fT7vTi74J8v-81">
          <mxGeometry width="30" height="30" as="geometry" />
        </mxCell>
        <mxCell id="KfJyjTm68fT7vTi74J8v-83" value="period_type [text] [ex day,month,year]" style="shape=partialRectangle;overflow=hidden;connectable=0;fillColor=none;top=0;left=0;bottom=0;right=0;align=left;spacingLeft=6;" vertex="1" parent="KfJyjTm68fT7vTi74J8v-81">
          <mxGeometry x="30" width="230" height="30" as="geometry" />
        </mxCell>
        <mxCell id="KfJyjTm68fT7vTi74J8v-57" value="" style="shape=partialRectangle;collapsible=0;dropTarget=0;pointerEvents=0;fillColor=none;points=[[0,0.5],[1,0.5]];portConstraint=eastwest;top=0;left=0;right=0;bottom=0;" vertex="1" parent="C-vyLk0tnHw3VtMMgP7b-2">
          <mxGeometry y="210" width="260" height="30" as="geometry" />
        </mxCell>
        <mxCell id="KfJyjTm68fT7vTi74J8v-58" value="" style="shape=partialRectangle;overflow=hidden;connectable=0;fillColor=none;top=0;left=0;bottom=0;right=0;" vertex="1" parent="KfJyjTm68fT7vTi74J8v-57">
          <mxGeometry width="30" height="30" as="geometry" />
        </mxCell>
        <mxCell id="KfJyjTm68fT7vTi74J8v-59" value="start_date [date] " style="shape=partialRectangle;overflow=hidden;connectable=0;fillColor=none;top=0;left=0;bottom=0;right=0;align=left;spacingLeft=6;" vertex="1" parent="KfJyjTm68fT7vTi74J8v-57">
          <mxGeometry x="30" width="230" height="30" as="geometry" />
        </mxCell>
        <mxCell id="KfJyjTm68fT7vTi74J8v-85" value="" style="shape=partialRectangle;collapsible=0;dropTarget=0;pointerEvents=0;fillColor=none;points=[[0,0.5],[1,0.5]];portConstraint=eastwest;top=0;left=0;right=0;bottom=0;" vertex="1" parent="C-vyLk0tnHw3VtMMgP7b-2">
          <mxGeometry y="240" width="260" height="30" as="geometry" />
        </mxCell>
        <mxCell id="KfJyjTm68fT7vTi74J8v-86" value="" style="shape=partialRectangle;overflow=hidden;connectable=0;fillColor=none;top=0;left=0;bottom=0;right=0;" vertex="1" parent="KfJyjTm68fT7vTi74J8v-85">
          <mxGeometry width="30" height="30" as="geometry" />
        </mxCell>
        <mxCell id="KfJyjTm68fT7vTi74J8v-87" value="Amount [bigint" style="shape=partialRectangle;overflow=hidden;connectable=0;fillColor=none;top=0;left=0;bottom=0;right=0;align=left;spacingLeft=6;" vertex="1" parent="KfJyjTm68fT7vTi74J8v-85">
          <mxGeometry x="30" width="230" height="30" as="geometry" />
        </mxCell>
        <mxCell id="KfJyjTm68fT7vTi74J8v-88" value="" style="shape=partialRectangle;collapsible=0;dropTarget=0;pointerEvents=0;fillColor=none;points=[[0,0.5],[1,0.5]];portConstraint=eastwest;top=0;left=0;right=0;bottom=0;" vertex="1" parent="C-vyLk0tnHw3VtMMgP7b-2">
          <mxGeometry y="270" width="260" height="30" as="geometry" />
        </mxCell>
        <mxCell id="KfJyjTm68fT7vTi74J8v-89" value="" style="shape=partialRectangle;overflow=hidden;connectable=0;fillColor=none;top=0;left=0;bottom=0;right=0;" vertex="1" parent="KfJyjTm68fT7vTi74J8v-88">
          <mxGeometry width="30" height="30" as="geometry" />
        </mxCell>
        <mxCell id="KfJyjTm68fT7vTi74J8v-90" value="last_change [datetime]" style="shape=partialRectangle;overflow=hidden;connectable=0;fillColor=none;top=0;left=0;bottom=0;right=0;align=left;spacingLeft=6;" vertex="1" parent="KfJyjTm68fT7vTi74J8v-88">
          <mxGeometry x="30" width="230" height="30" as="geometry" />
        </mxCell>
        <mxCell id="C-vyLk0tnHw3VtMMgP7b-13" value="Take Away Payment [level==1]" style="shape=table;startSize=30;container=1;collapsible=1;childLayout=tableLayout;fixedRows=1;rowLines=0;fontStyle=1;align=center;resizeLast=1;" parent="1" vertex="1">
          <mxGeometry x="-450" y="210" width="250" height="190" as="geometry" />
        </mxCell>
        <mxCell id="C-vyLk0tnHw3VtMMgP7b-14" value="" style="shape=partialRectangle;collapsible=0;dropTarget=0;pointerEvents=0;fillColor=none;points=[[0,0.5],[1,0.5]];portConstraint=eastwest;top=0;left=0;right=0;bottom=1;" parent="C-vyLk0tnHw3VtMMgP7b-13" vertex="1">
          <mxGeometry y="30" width="250" height="30" as="geometry" />
        </mxCell>
        <mxCell id="C-vyLk0tnHw3VtMMgP7b-15" value="PK" style="shape=partialRectangle;overflow=hidden;connectable=0;fillColor=none;top=0;left=0;bottom=0;right=0;fontStyle=1;" parent="C-vyLk0tnHw3VtMMgP7b-14" vertex="1">
          <mxGeometry width="30" height="30" as="geometry" />
        </mxCell>
        <mxCell id="C-vyLk0tnHw3VtMMgP7b-16" value="TA_id int NOT NULL " style="shape=partialRectangle;overflow=hidden;connectable=0;fillColor=none;top=0;left=0;bottom=0;right=0;align=left;spacingLeft=6;fontStyle=5;" parent="C-vyLk0tnHw3VtMMgP7b-14" vertex="1">
          <mxGeometry x="30" width="220" height="30" as="geometry" />
        </mxCell>
        <mxCell id="C-vyLk0tnHw3VtMMgP7b-17" value="" style="shape=partialRectangle;collapsible=0;dropTarget=0;pointerEvents=0;fillColor=none;points=[[0,0.5],[1,0.5]];portConstraint=eastwest;top=0;left=0;right=0;bottom=0;" parent="C-vyLk0tnHw3VtMMgP7b-13" vertex="1">
          <mxGeometry y="60" width="250" height="30" as="geometry" />
        </mxCell>
        <mxCell id="C-vyLk0tnHw3VtMMgP7b-18" value="FK1" style="shape=partialRectangle;overflow=hidden;connectable=0;fillColor=none;top=0;left=0;bottom=0;right=0;" parent="C-vyLk0tnHw3VtMMgP7b-17" vertex="1">
          <mxGeometry width="30" height="30" as="geometry" />
        </mxCell>
        <mxCell id="C-vyLk0tnHw3VtMMgP7b-19" value="login_id bigint NOT NULL" style="shape=partialRectangle;overflow=hidden;connectable=0;fillColor=none;top=0;left=0;bottom=0;right=0;align=left;spacingLeft=6;" parent="C-vyLk0tnHw3VtMMgP7b-17" vertex="1">
          <mxGeometry x="30" width="220" height="30" as="geometry" />
        </mxCell>
        <mxCell id="C-vyLk0tnHw3VtMMgP7b-20" value="" style="shape=partialRectangle;collapsible=0;dropTarget=0;pointerEvents=0;fillColor=none;points=[[0,0.5],[1,0.5]];portConstraint=eastwest;top=0;left=0;right=0;bottom=0;" parent="C-vyLk0tnHw3VtMMgP7b-13" vertex="1">
          <mxGeometry y="90" width="250" height="30" as="geometry" />
        </mxCell>
        <mxCell id="C-vyLk0tnHw3VtMMgP7b-21" value="" style="shape=partialRectangle;overflow=hidden;connectable=0;fillColor=none;top=0;left=0;bottom=0;right=0;" parent="C-vyLk0tnHw3VtMMgP7b-20" vertex="1">
          <mxGeometry width="30" height="30" as="geometry" />
        </mxCell>
        <mxCell id="C-vyLk0tnHw3VtMMgP7b-22" value="added_on [date]" style="shape=partialRectangle;overflow=hidden;connectable=0;fillColor=none;top=0;left=0;bottom=0;right=0;align=left;spacingLeft=6;" parent="C-vyLk0tnHw3VtMMgP7b-20" vertex="1">
          <mxGeometry x="30" width="220" height="30" as="geometry" />
        </mxCell>
        <mxCell id="KfJyjTm68fT7vTi74J8v-91" value="" style="shape=partialRectangle;collapsible=0;dropTarget=0;pointerEvents=0;fillColor=none;points=[[0,0.5],[1,0.5]];portConstraint=eastwest;top=0;left=0;right=0;bottom=0;" vertex="1" parent="C-vyLk0tnHw3VtMMgP7b-13">
          <mxGeometry y="120" width="250" height="30" as="geometry" />
        </mxCell>
        <mxCell id="KfJyjTm68fT7vTi74J8v-92" value="" style="shape=partialRectangle;overflow=hidden;connectable=0;fillColor=none;top=0;left=0;bottom=0;right=0;" vertex="1" parent="KfJyjTm68fT7vTi74J8v-91">
          <mxGeometry width="30" height="30" as="geometry" />
        </mxCell>
        <mxCell id="KfJyjTm68fT7vTi74J8v-93" value="amount double" style="shape=partialRectangle;overflow=hidden;connectable=0;fillColor=none;top=0;left=0;bottom=0;right=0;align=left;spacingLeft=6;" vertex="1" parent="KfJyjTm68fT7vTi74J8v-91">
          <mxGeometry x="30" width="220" height="30" as="geometry" />
        </mxCell>
        <mxCell id="KfJyjTm68fT7vTi74J8v-94" value="" style="shape=partialRectangle;collapsible=0;dropTarget=0;pointerEvents=0;fillColor=none;points=[[0,0.5],[1,0.5]];portConstraint=eastwest;top=0;left=0;right=0;bottom=0;" vertex="1" parent="C-vyLk0tnHw3VtMMgP7b-13">
          <mxGeometry y="150" width="250" height="30" as="geometry" />
        </mxCell>
        <mxCell id="KfJyjTm68fT7vTi74J8v-95" value="" style="shape=partialRectangle;overflow=hidden;connectable=0;fillColor=none;top=0;left=0;bottom=0;right=0;" vertex="1" parent="KfJyjTm68fT7vTi74J8v-94">
          <mxGeometry width="30" height="30" as="geometry" />
        </mxCell>
        <mxCell id="KfJyjTm68fT7vTi74J8v-96" value="last_change datetime" style="shape=partialRectangle;overflow=hidden;connectable=0;fillColor=none;top=0;left=0;bottom=0;right=0;align=left;spacingLeft=6;" vertex="1" parent="KfJyjTm68fT7vTi74J8v-94">
          <mxGeometry x="30" width="220" height="30" as="geometry" />
        </mxCell>
        <mxCell id="C-vyLk0tnHw3VtMMgP7b-23" value="Login" style="shape=table;startSize=30;container=1;collapsible=1;childLayout=tableLayout;fixedRows=1;rowLines=0;fontStyle=1;align=center;resizeLast=1;" parent="1" vertex="1">
          <mxGeometry x="-130" y="90" width="250" height="400" as="geometry">
            <mxRectangle x="120" y="120" width="110" height="30" as="alternateBounds" />
          </mxGeometry>
        </mxCell>
        <mxCell id="C-vyLk0tnHw3VtMMgP7b-24" value="" style="shape=partialRectangle;collapsible=0;dropTarget=0;pointerEvents=0;fillColor=none;points=[[0,0.5],[1,0.5]];portConstraint=eastwest;top=0;left=0;right=0;bottom=1;" parent="C-vyLk0tnHw3VtMMgP7b-23" vertex="1">
          <mxGeometry y="30" width="250" height="30" as="geometry" />
        </mxCell>
        <mxCell id="C-vyLk0tnHw3VtMMgP7b-25" value="PK" style="shape=partialRectangle;overflow=hidden;connectable=0;fillColor=none;top=0;left=0;bottom=0;right=0;fontStyle=1;" parent="C-vyLk0tnHw3VtMMgP7b-24" vertex="1">
          <mxGeometry width="30" height="30" as="geometry" />
        </mxCell>
        <mxCell id="C-vyLk0tnHw3VtMMgP7b-26" value="id int NOT NULL " style="shape=partialRectangle;overflow=hidden;connectable=0;fillColor=none;top=0;left=0;bottom=0;right=0;align=left;spacingLeft=6;fontStyle=5;" parent="C-vyLk0tnHw3VtMMgP7b-24" vertex="1">
          <mxGeometry x="30" width="220" height="30" as="geometry" />
        </mxCell>
        <mxCell id="C-vyLk0tnHw3VtMMgP7b-27" value="" style="shape=partialRectangle;collapsible=0;dropTarget=0;pointerEvents=0;fillColor=none;points=[[0,0.5],[1,0.5]];portConstraint=eastwest;top=0;left=0;right=0;bottom=0;" parent="C-vyLk0tnHw3VtMMgP7b-23" vertex="1">
          <mxGeometry y="60" width="250" height="30" as="geometry" />
        </mxCell>
        <mxCell id="C-vyLk0tnHw3VtMMgP7b-28" value="" style="shape=partialRectangle;overflow=hidden;connectable=0;fillColor=none;top=0;left=0;bottom=0;right=0;" parent="C-vyLk0tnHw3VtMMgP7b-27" vertex="1">
          <mxGeometry width="30" height="30" as="geometry" />
        </mxCell>
        <mxCell id="C-vyLk0tnHw3VtMMgP7b-29" value="added_on [date]" style="shape=partialRectangle;overflow=hidden;connectable=0;fillColor=none;top=0;left=0;bottom=0;right=0;align=left;spacingLeft=6;" parent="C-vyLk0tnHw3VtMMgP7b-27" vertex="1">
          <mxGeometry x="30" width="220" height="30" as="geometry" />
        </mxCell>
        <mxCell id="KfJyjTm68fT7vTi74J8v-16" value="" style="shape=partialRectangle;collapsible=0;dropTarget=0;pointerEvents=0;fillColor=none;points=[[0,0.5],[1,0.5]];portConstraint=eastwest;top=0;left=0;right=0;bottom=0;" vertex="1" parent="C-vyLk0tnHw3VtMMgP7b-23">
          <mxGeometry y="90" width="250" height="20" as="geometry" />
        </mxCell>
        <mxCell id="KfJyjTm68fT7vTi74J8v-17" value="" style="shape=partialRectangle;overflow=hidden;connectable=0;fillColor=none;top=0;left=0;bottom=0;right=0;" vertex="1" parent="KfJyjTm68fT7vTi74J8v-16">
          <mxGeometry width="30" height="20" as="geometry" />
        </mxCell>
        <mxCell id="KfJyjTm68fT7vTi74J8v-18" value="name [text]" style="shape=partialRectangle;overflow=hidden;connectable=0;fillColor=none;top=0;left=0;bottom=0;right=0;align=left;spacingLeft=6;" vertex="1" parent="KfJyjTm68fT7vTi74J8v-16">
          <mxGeometry x="30" width="220" height="20" as="geometry" />
        </mxCell>
        <mxCell id="KfJyjTm68fT7vTi74J8v-19" value="" style="shape=partialRectangle;collapsible=0;dropTarget=0;pointerEvents=0;fillColor=none;points=[[0,0.5],[1,0.5]];portConstraint=eastwest;top=0;left=0;right=0;bottom=0;" vertex="1" parent="C-vyLk0tnHw3VtMMgP7b-23">
          <mxGeometry y="110" width="250" height="30" as="geometry" />
        </mxCell>
        <mxCell id="KfJyjTm68fT7vTi74J8v-20" value="" style="shape=partialRectangle;overflow=hidden;connectable=0;fillColor=none;top=0;left=0;bottom=0;right=0;" vertex="1" parent="KfJyjTm68fT7vTi74J8v-19">
          <mxGeometry width="30" height="30" as="geometry" />
        </mxCell>
        <mxCell id="KfJyjTm68fT7vTi74J8v-21" value="username [text] [mobile number]" style="shape=partialRectangle;overflow=hidden;connectable=0;fillColor=none;top=0;left=0;bottom=0;right=0;align=left;spacingLeft=6;" vertex="1" parent="KfJyjTm68fT7vTi74J8v-19">
          <mxGeometry x="30" width="220" height="30" as="geometry" />
        </mxCell>
        <mxCell id="KfJyjTm68fT7vTi74J8v-22" value="" style="shape=partialRectangle;collapsible=0;dropTarget=0;pointerEvents=0;fillColor=none;points=[[0,0.5],[1,0.5]];portConstraint=eastwest;top=0;left=0;right=0;bottom=0;" vertex="1" parent="C-vyLk0tnHw3VtMMgP7b-23">
          <mxGeometry y="140" width="250" height="30" as="geometry" />
        </mxCell>
        <mxCell id="KfJyjTm68fT7vTi74J8v-23" value="" style="shape=partialRectangle;overflow=hidden;connectable=0;fillColor=none;top=0;left=0;bottom=0;right=0;" vertex="1" parent="KfJyjTm68fT7vTi74J8v-22">
          <mxGeometry width="30" height="30" as="geometry" />
        </mxCell>
        <mxCell id="KfJyjTm68fT7vTi74J8v-24" value="password[text]" style="shape=partialRectangle;overflow=hidden;connectable=0;fillColor=none;top=0;left=0;bottom=0;right=0;align=left;spacingLeft=6;" vertex="1" parent="KfJyjTm68fT7vTi74J8v-22">
          <mxGeometry x="30" width="220" height="30" as="geometry" />
        </mxCell>
        <mxCell id="KfJyjTm68fT7vTi74J8v-25" value="" style="shape=partialRectangle;collapsible=0;dropTarget=0;pointerEvents=0;fillColor=none;points=[[0,0.5],[1,0.5]];portConstraint=eastwest;top=0;left=0;right=0;bottom=0;" vertex="1" parent="C-vyLk0tnHw3VtMMgP7b-23">
          <mxGeometry y="170" width="250" height="60" as="geometry" />
        </mxCell>
        <mxCell id="KfJyjTm68fT7vTi74J8v-26" value="" style="shape=partialRectangle;overflow=hidden;connectable=0;fillColor=none;top=0;left=0;bottom=0;right=0;" vertex="1" parent="KfJyjTm68fT7vTi74J8v-25">
          <mxGeometry width="30" height="60" as="geometry" />
        </mxCell>
        <mxCell id="KfJyjTm68fT7vTi74J8v-27" value="levels [int] [ 1==super admin;2==admin&#xa;3==labour,4==customer] " style="shape=partialRectangle;overflow=hidden;connectable=0;fillColor=none;top=0;left=0;bottom=0;right=0;align=left;spacingLeft=6;" vertex="1" parent="KfJyjTm68fT7vTi74J8v-25">
          <mxGeometry x="30" width="220" height="60" as="geometry" />
        </mxCell>
        <mxCell id="KfJyjTm68fT7vTi74J8v-34" value="" style="shape=partialRectangle;collapsible=0;dropTarget=0;pointerEvents=0;fillColor=none;points=[[0,0.5],[1,0.5]];portConstraint=eastwest;top=0;left=0;right=0;bottom=0;" vertex="1" parent="C-vyLk0tnHw3VtMMgP7b-23">
          <mxGeometry y="230" width="250" height="50" as="geometry" />
        </mxCell>
        <mxCell id="KfJyjTm68fT7vTi74J8v-35" value="" style="shape=partialRectangle;overflow=hidden;connectable=0;fillColor=none;top=0;left=0;bottom=0;right=0;" vertex="1" parent="KfJyjTm68fT7vTi74J8v-34">
          <mxGeometry width="30" height="50" as="geometry" />
        </mxCell>
        <mxCell id="KfJyjTm68fT7vTi74J8v-36" value="&#xa;&#xa;otp_verified [int] [0 or 1]&#xa;" style="shape=partialRectangle;overflow=hidden;connectable=0;fillColor=none;top=0;left=0;bottom=0;right=0;align=left;spacingLeft=6;" vertex="1" parent="KfJyjTm68fT7vTi74J8v-34">
          <mxGeometry x="30" width="220" height="50" as="geometry" />
        </mxCell>
        <mxCell id="KfJyjTm68fT7vTi74J8v-46" value="" style="shape=partialRectangle;collapsible=0;dropTarget=0;pointerEvents=0;fillColor=none;points=[[0,0.5],[1,0.5]];portConstraint=eastwest;top=0;left=0;right=0;bottom=0;" vertex="1" parent="C-vyLk0tnHw3VtMMgP7b-23">
          <mxGeometry y="280" width="250" height="50" as="geometry" />
        </mxCell>
        <mxCell id="KfJyjTm68fT7vTi74J8v-47" value="" style="shape=partialRectangle;overflow=hidden;connectable=0;fillColor=none;top=0;left=0;bottom=0;right=0;" vertex="1" parent="KfJyjTm68fT7vTi74J8v-46">
          <mxGeometry width="30" height="50" as="geometry" />
        </mxCell>
        <mxCell id="KfJyjTm68fT7vTi74J8v-48" value="Status [int] [1==active,0==de-active]" style="shape=partialRectangle;overflow=hidden;connectable=0;fillColor=none;top=0;left=0;bottom=0;right=0;align=left;spacingLeft=6;" vertex="1" parent="KfJyjTm68fT7vTi74J8v-46">
          <mxGeometry x="30" width="220" height="50" as="geometry" />
        </mxCell>
        <mxCell id="KfJyjTm68fT7vTi74J8v-53" value="" style="shape=partialRectangle;collapsible=0;dropTarget=0;pointerEvents=0;fillColor=none;points=[[0,0.5],[1,0.5]];portConstraint=eastwest;top=0;left=0;right=0;bottom=0;" vertex="1" parent="C-vyLk0tnHw3VtMMgP7b-23">
          <mxGeometry y="330" width="250" height="50" as="geometry" />
        </mxCell>
        <mxCell id="KfJyjTm68fT7vTi74J8v-54" value="" style="shape=partialRectangle;overflow=hidden;connectable=0;fillColor=none;top=0;left=0;bottom=0;right=0;" vertex="1" parent="KfJyjTm68fT7vTi74J8v-53">
          <mxGeometry width="30" height="50" as="geometry" />
        </mxCell>
        <mxCell id="KfJyjTm68fT7vTi74J8v-55" value="&#xa;last_change [datetime]" style="shape=partialRectangle;overflow=hidden;connectable=0;fillColor=none;top=0;left=0;bottom=0;right=0;align=left;spacingLeft=6;" vertex="1" parent="KfJyjTm68fT7vTi74J8v-53">
          <mxGeometry x="30" width="220" height="50" as="geometry" />
        </mxCell>
        <mxCell id="KfJyjTm68fT7vTi74J8v-113" value="Company [level=2]" style="shape=table;startSize=30;container=1;collapsible=1;childLayout=tableLayout;fixedRows=1;rowLines=0;fontStyle=1;align=center;resizeLast=1;" vertex="1" parent="1">
          <mxGeometry x="-80" y="590" width="250" height="460" as="geometry" />
        </mxCell>
        <mxCell id="KfJyjTm68fT7vTi74J8v-114" value="" style="shape=partialRectangle;collapsible=0;dropTarget=0;pointerEvents=0;fillColor=none;points=[[0,0.5],[1,0.5]];portConstraint=eastwest;top=0;left=0;right=0;bottom=1;" vertex="1" parent="KfJyjTm68fT7vTi74J8v-113">
          <mxGeometry y="30" width="250" height="30" as="geometry" />
        </mxCell>
        <mxCell id="KfJyjTm68fT7vTi74J8v-115" value="PK" style="shape=partialRectangle;overflow=hidden;connectable=0;fillColor=none;top=0;left=0;bottom=0;right=0;fontStyle=1;" vertex="1" parent="KfJyjTm68fT7vTi74J8v-114">
          <mxGeometry width="30" height="30" as="geometry" />
        </mxCell>
        <mxCell id="KfJyjTm68fT7vTi74J8v-116" value="CMP_id int NOT NULL " style="shape=partialRectangle;overflow=hidden;connectable=0;fillColor=none;top=0;left=0;bottom=0;right=0;align=left;spacingLeft=6;fontStyle=5;" vertex="1" parent="KfJyjTm68fT7vTi74J8v-114">
          <mxGeometry x="30" width="220" height="30" as="geometry" />
        </mxCell>
        <mxCell id="KfJyjTm68fT7vTi74J8v-117" value="" style="shape=partialRectangle;collapsible=0;dropTarget=0;pointerEvents=0;fillColor=none;points=[[0,0.5],[1,0.5]];portConstraint=eastwest;top=0;left=0;right=0;bottom=0;" vertex="1" parent="KfJyjTm68fT7vTi74J8v-113">
          <mxGeometry y="60" width="250" height="30" as="geometry" />
        </mxCell>
        <mxCell id="KfJyjTm68fT7vTi74J8v-118" value="FK1" style="shape=partialRectangle;overflow=hidden;connectable=0;fillColor=none;top=0;left=0;bottom=0;right=0;" vertex="1" parent="KfJyjTm68fT7vTi74J8v-117">
          <mxGeometry width="30" height="30" as="geometry" />
        </mxCell>
        <mxCell id="KfJyjTm68fT7vTi74J8v-119" value="admin_id bigint NOT NULL" style="shape=partialRectangle;overflow=hidden;connectable=0;fillColor=none;top=0;left=0;bottom=0;right=0;align=left;spacingLeft=6;" vertex="1" parent="KfJyjTm68fT7vTi74J8v-117">
          <mxGeometry x="30" width="220" height="30" as="geometry" />
        </mxCell>
        <mxCell id="KfJyjTm68fT7vTi74J8v-120" value="" style="shape=partialRectangle;collapsible=0;dropTarget=0;pointerEvents=0;fillColor=none;points=[[0,0.5],[1,0.5]];portConstraint=eastwest;top=0;left=0;right=0;bottom=0;" vertex="1" parent="KfJyjTm68fT7vTi74J8v-113">
          <mxGeometry y="90" width="250" height="30" as="geometry" />
        </mxCell>
        <mxCell id="KfJyjTm68fT7vTi74J8v-121" value="" style="shape=partialRectangle;overflow=hidden;connectable=0;fillColor=none;top=0;left=0;bottom=0;right=0;" vertex="1" parent="KfJyjTm68fT7vTi74J8v-120">
          <mxGeometry width="30" height="30" as="geometry" />
        </mxCell>
        <mxCell id="KfJyjTm68fT7vTi74J8v-122" value="added_on [date]" style="shape=partialRectangle;overflow=hidden;connectable=0;fillColor=none;top=0;left=0;bottom=0;right=0;align=left;spacingLeft=6;" vertex="1" parent="KfJyjTm68fT7vTi74J8v-120">
          <mxGeometry x="30" width="220" height="30" as="geometry" />
        </mxCell>
        <mxCell id="KfJyjTm68fT7vTi74J8v-123" value="" style="shape=partialRectangle;collapsible=0;dropTarget=0;pointerEvents=0;fillColor=none;points=[[0,0.5],[1,0.5]];portConstraint=eastwest;top=0;left=0;right=0;bottom=0;" vertex="1" parent="KfJyjTm68fT7vTi74J8v-113">
          <mxGeometry y="120" width="250" height="30" as="geometry" />
        </mxCell>
        <mxCell id="KfJyjTm68fT7vTi74J8v-124" value="" style="shape=partialRectangle;overflow=hidden;connectable=0;fillColor=none;top=0;left=0;bottom=0;right=0;" vertex="1" parent="KfJyjTm68fT7vTi74J8v-123">
          <mxGeometry width="30" height="30" as="geometry" />
        </mxCell>
        <mxCell id="KfJyjTm68fT7vTi74J8v-125" value="company_name [text]" style="shape=partialRectangle;overflow=hidden;connectable=0;fillColor=none;top=0;left=0;bottom=0;right=0;align=left;spacingLeft=6;" vertex="1" parent="KfJyjTm68fT7vTi74J8v-123">
          <mxGeometry x="30" width="220" height="30" as="geometry" />
        </mxCell>
        <mxCell id="KfJyjTm68fT7vTi74J8v-126" value="" style="shape=partialRectangle;collapsible=0;dropTarget=0;pointerEvents=0;fillColor=none;points=[[0,0.5],[1,0.5]];portConstraint=eastwest;top=0;left=0;right=0;bottom=0;" vertex="1" parent="KfJyjTm68fT7vTi74J8v-113">
          <mxGeometry y="150" width="250" height="30" as="geometry" />
        </mxCell>
        <mxCell id="KfJyjTm68fT7vTi74J8v-127" value="" style="shape=partialRectangle;overflow=hidden;connectable=0;fillColor=none;top=0;left=0;bottom=0;right=0;" vertex="1" parent="KfJyjTm68fT7vTi74J8v-126">
          <mxGeometry width="30" height="30" as="geometry" />
        </mxCell>
        <mxCell id="KfJyjTm68fT7vTi74J8v-128" value="Address text" style="shape=partialRectangle;overflow=hidden;connectable=0;fillColor=none;top=0;left=0;bottom=0;right=0;align=left;spacingLeft=6;" vertex="1" parent="KfJyjTm68fT7vTi74J8v-126">
          <mxGeometry x="30" width="220" height="30" as="geometry" />
        </mxCell>
        <mxCell id="KfJyjTm68fT7vTi74J8v-130" value="" style="shape=partialRectangle;collapsible=0;dropTarget=0;pointerEvents=0;fillColor=none;points=[[0,0.5],[1,0.5]];portConstraint=eastwest;top=0;left=0;right=0;bottom=0;" vertex="1" parent="KfJyjTm68fT7vTi74J8v-113">
          <mxGeometry y="180" width="250" height="30" as="geometry" />
        </mxCell>
        <mxCell id="KfJyjTm68fT7vTi74J8v-131" value="" style="shape=partialRectangle;overflow=hidden;connectable=0;fillColor=none;top=0;left=0;bottom=0;right=0;" vertex="1" parent="KfJyjTm68fT7vTi74J8v-130">
          <mxGeometry width="30" height="30" as="geometry" />
        </mxCell>
        <mxCell id="KfJyjTm68fT7vTi74J8v-132" value="GST text" style="shape=partialRectangle;overflow=hidden;connectable=0;fillColor=none;top=0;left=0;bottom=0;right=0;align=left;spacingLeft=6;" vertex="1" parent="KfJyjTm68fT7vTi74J8v-130">
          <mxGeometry x="30" width="220" height="30" as="geometry" />
        </mxCell>
        <mxCell id="KfJyjTm68fT7vTi74J8v-141" value="" style="shape=partialRectangle;collapsible=0;dropTarget=0;pointerEvents=0;fillColor=none;points=[[0,0.5],[1,0.5]];portConstraint=eastwest;top=0;left=0;right=0;bottom=0;" vertex="1" parent="KfJyjTm68fT7vTi74J8v-113">
          <mxGeometry y="210" width="250" height="30" as="geometry" />
        </mxCell>
        <mxCell id="KfJyjTm68fT7vTi74J8v-142" value="" style="shape=partialRectangle;overflow=hidden;connectable=0;fillColor=none;top=0;left=0;bottom=0;right=0;" vertex="1" parent="KfJyjTm68fT7vTi74J8v-141">
          <mxGeometry width="30" height="30" as="geometry" />
        </mxCell>
        <mxCell id="KfJyjTm68fT7vTi74J8v-143" value="fassi text" style="shape=partialRectangle;overflow=hidden;connectable=0;fillColor=none;top=0;left=0;bottom=0;right=0;align=left;spacingLeft=6;" vertex="1" parent="KfJyjTm68fT7vTi74J8v-141">
          <mxGeometry x="30" width="220" height="30" as="geometry" />
        </mxCell>
        <mxCell id="KfJyjTm68fT7vTi74J8v-144" value="" style="shape=partialRectangle;collapsible=0;dropTarget=0;pointerEvents=0;fillColor=none;points=[[0,0.5],[1,0.5]];portConstraint=eastwest;top=0;left=0;right=0;bottom=0;" vertex="1" parent="KfJyjTm68fT7vTi74J8v-113">
          <mxGeometry y="240" width="250" height="30" as="geometry" />
        </mxCell>
        <mxCell id="KfJyjTm68fT7vTi74J8v-145" value="" style="shape=partialRectangle;overflow=hidden;connectable=0;fillColor=none;top=0;left=0;bottom=0;right=0;" vertex="1" parent="KfJyjTm68fT7vTi74J8v-144">
          <mxGeometry width="30" height="30" as="geometry" />
        </mxCell>
        <mxCell id="KfJyjTm68fT7vTi74J8v-146" value="phone varcar(10)" style="shape=partialRectangle;overflow=hidden;connectable=0;fillColor=none;top=0;left=0;bottom=0;right=0;align=left;spacingLeft=6;" vertex="1" parent="KfJyjTm68fT7vTi74J8v-144">
          <mxGeometry x="30" width="220" height="30" as="geometry" />
        </mxCell>
        <mxCell id="KfJyjTm68fT7vTi74J8v-147" value="" style="shape=partialRectangle;collapsible=0;dropTarget=0;pointerEvents=0;fillColor=none;points=[[0,0.5],[1,0.5]];portConstraint=eastwest;top=0;left=0;right=0;bottom=0;" vertex="1" parent="KfJyjTm68fT7vTi74J8v-113">
          <mxGeometry y="270" width="250" height="30" as="geometry" />
        </mxCell>
        <mxCell id="KfJyjTm68fT7vTi74J8v-148" value="" style="shape=partialRectangle;overflow=hidden;connectable=0;fillColor=none;top=0;left=0;bottom=0;right=0;" vertex="1" parent="KfJyjTm68fT7vTi74J8v-147">
          <mxGeometry width="30" height="30" as="geometry" />
        </mxCell>
        <mxCell id="KfJyjTm68fT7vTi74J8v-149" value="email text" style="shape=partialRectangle;overflow=hidden;connectable=0;fillColor=none;top=0;left=0;bottom=0;right=0;align=left;spacingLeft=6;" vertex="1" parent="KfJyjTm68fT7vTi74J8v-147">
          <mxGeometry x="30" width="220" height="30" as="geometry" />
        </mxCell>
        <mxCell id="KfJyjTm68fT7vTi74J8v-150" value="" style="shape=partialRectangle;collapsible=0;dropTarget=0;pointerEvents=0;fillColor=none;points=[[0,0.5],[1,0.5]];portConstraint=eastwest;top=0;left=0;right=0;bottom=0;" vertex="1" parent="KfJyjTm68fT7vTi74J8v-113">
          <mxGeometry y="300" width="250" height="30" as="geometry" />
        </mxCell>
        <mxCell id="KfJyjTm68fT7vTi74J8v-151" value="" style="shape=partialRectangle;overflow=hidden;connectable=0;fillColor=none;top=0;left=0;bottom=0;right=0;" vertex="1" parent="KfJyjTm68fT7vTi74J8v-150">
          <mxGeometry width="30" height="30" as="geometry" />
        </mxCell>
        <mxCell id="KfJyjTm68fT7vTi74J8v-152" value="cancellation_policy int [0==cancell,1==&#xa;No cancellation ,3 == fine amount]" style="shape=partialRectangle;overflow=hidden;connectable=0;fillColor=none;top=0;left=0;bottom=0;right=0;align=left;spacingLeft=6;" vertex="1" parent="KfJyjTm68fT7vTi74J8v-150">
          <mxGeometry x="30" width="220" height="30" as="geometry" />
        </mxCell>
        <mxCell id="KfJyjTm68fT7vTi74J8v-157" value="" style="shape=partialRectangle;collapsible=0;dropTarget=0;pointerEvents=0;fillColor=none;points=[[0,0.5],[1,0.5]];portConstraint=eastwest;top=0;left=0;right=0;bottom=0;" vertex="1" parent="KfJyjTm68fT7vTi74J8v-113">
          <mxGeometry y="330" width="250" height="30" as="geometry" />
        </mxCell>
        <mxCell id="KfJyjTm68fT7vTi74J8v-158" value="" style="shape=partialRectangle;overflow=hidden;connectable=0;fillColor=none;top=0;left=0;bottom=0;right=0;" vertex="1" parent="KfJyjTm68fT7vTi74J8v-157">
          <mxGeometry width="30" height="30" as="geometry" />
        </mxCell>
        <mxCell id="KfJyjTm68fT7vTi74J8v-159" value="Shop_open Y/N" style="shape=partialRectangle;overflow=hidden;connectable=0;fillColor=none;top=0;left=0;bottom=0;right=0;align=left;spacingLeft=6;" vertex="1" parent="KfJyjTm68fT7vTi74J8v-157">
          <mxGeometry x="30" width="220" height="30" as="geometry" />
        </mxCell>
        <mxCell id="KfJyjTm68fT7vTi74J8v-195" value="" style="shape=partialRectangle;collapsible=0;dropTarget=0;pointerEvents=0;fillColor=none;points=[[0,0.5],[1,0.5]];portConstraint=eastwest;top=0;left=0;right=0;bottom=0;" vertex="1" parent="KfJyjTm68fT7vTi74J8v-113">
          <mxGeometry y="360" width="250" height="30" as="geometry" />
        </mxCell>
        <mxCell id="KfJyjTm68fT7vTi74J8v-196" value="" style="shape=partialRectangle;overflow=hidden;connectable=0;fillColor=none;top=0;left=0;bottom=0;right=0;" vertex="1" parent="KfJyjTm68fT7vTi74J8v-195">
          <mxGeometry width="30" height="30" as="geometry" />
        </mxCell>
        <mxCell id="KfJyjTm68fT7vTi74J8v-197" value="fine_amount  [double]" style="shape=partialRectangle;overflow=hidden;connectable=0;fillColor=none;top=0;left=0;bottom=0;right=0;align=left;spacingLeft=6;" vertex="1" parent="KfJyjTm68fT7vTi74J8v-195">
          <mxGeometry x="30" width="220" height="30" as="geometry" />
        </mxCell>
        <mxCell id="KfJyjTm68fT7vTi74J8v-201" value="" style="shape=partialRectangle;collapsible=0;dropTarget=0;pointerEvents=0;fillColor=none;points=[[0,0.5],[1,0.5]];portConstraint=eastwest;top=0;left=0;right=0;bottom=0;" vertex="1" parent="KfJyjTm68fT7vTi74J8v-113">
          <mxGeometry y="390" width="250" height="30" as="geometry" />
        </mxCell>
        <mxCell id="KfJyjTm68fT7vTi74J8v-202" value="" style="shape=partialRectangle;overflow=hidden;connectable=0;fillColor=none;top=0;left=0;bottom=0;right=0;" vertex="1" parent="KfJyjTm68fT7vTi74J8v-201">
          <mxGeometry width="30" height="30" as="geometry" />
        </mxCell>
        <mxCell id="KfJyjTm68fT7vTi74J8v-203" value="fine_type  [text] [&#39;rupees,percentage]" style="shape=partialRectangle;overflow=hidden;connectable=0;fillColor=none;top=0;left=0;bottom=0;right=0;align=left;spacingLeft=6;" vertex="1" parent="KfJyjTm68fT7vTi74J8v-201">
          <mxGeometry x="30" width="220" height="30" as="geometry" />
        </mxCell>
        <mxCell id="KfJyjTm68fT7vTi74J8v-198" value="" style="shape=partialRectangle;collapsible=0;dropTarget=0;pointerEvents=0;fillColor=none;points=[[0,0.5],[1,0.5]];portConstraint=eastwest;top=0;left=0;right=0;bottom=0;" vertex="1" parent="KfJyjTm68fT7vTi74J8v-113">
          <mxGeometry y="420" width="250" height="30" as="geometry" />
        </mxCell>
        <mxCell id="KfJyjTm68fT7vTi74J8v-199" value="" style="shape=partialRectangle;overflow=hidden;connectable=0;fillColor=none;top=0;left=0;bottom=0;right=0;" vertex="1" parent="KfJyjTm68fT7vTi74J8v-198">
          <mxGeometry width="30" height="30" as="geometry" />
        </mxCell>
        <mxCell id="KfJyjTm68fT7vTi74J8v-200" value="last_change datetime" style="shape=partialRectangle;overflow=hidden;connectable=0;fillColor=none;top=0;left=0;bottom=0;right=0;align=left;spacingLeft=6;" vertex="1" parent="KfJyjTm68fT7vTi74J8v-198">
          <mxGeometry x="30" width="220" height="30" as="geometry" />
        </mxCell>
        <mxCell id="KfJyjTm68fT7vTi74J8v-129" value="" style="edgeStyle=entityRelationEdgeStyle;endArrow=ERzeroToMany;startArrow=ERone;endFill=1;startFill=0;entryX=1;entryY=0.5;entryDx=0;entryDy=0;" edge="1" parent="1" target="KfJyjTm68fT7vTi74J8v-114">
          <mxGeometry width="100" height="100" relative="1" as="geometry">
            <mxPoint x="470" y="180" as="sourcePoint" />
            <mxPoint x="-190" y="125" as="targetPoint" />
          </mxGeometry>
        </mxCell>
        <mxCell id="KfJyjTm68fT7vTi74J8v-175" value="Shop_timing [level=2]" style="shape=table;startSize=30;container=1;collapsible=1;childLayout=tableLayout;fixedRows=1;rowLines=0;fontStyle=1;align=center;resizeLast=1;" vertex="1" parent="1">
          <mxGeometry x="-420" y="630" width="250" height="250" as="geometry" />
        </mxCell>
        <mxCell id="KfJyjTm68fT7vTi74J8v-176" value="" style="shape=partialRectangle;collapsible=0;dropTarget=0;pointerEvents=0;fillColor=none;points=[[0,0.5],[1,0.5]];portConstraint=eastwest;top=0;left=0;right=0;bottom=1;" vertex="1" parent="KfJyjTm68fT7vTi74J8v-175">
          <mxGeometry y="30" width="250" height="30" as="geometry" />
        </mxCell>
        <mxCell id="KfJyjTm68fT7vTi74J8v-177" value="PK" style="shape=partialRectangle;overflow=hidden;connectable=0;fillColor=none;top=0;left=0;bottom=0;right=0;fontStyle=1;" vertex="1" parent="KfJyjTm68fT7vTi74J8v-176">
          <mxGeometry width="30" height="30" as="geometry" />
        </mxCell>
        <mxCell id="KfJyjTm68fT7vTi74J8v-178" value="shoptime_id int NOT NULL " style="shape=partialRectangle;overflow=hidden;connectable=0;fillColor=none;top=0;left=0;bottom=0;right=0;align=left;spacingLeft=6;fontStyle=5;" vertex="1" parent="KfJyjTm68fT7vTi74J8v-176">
          <mxGeometry x="30" width="220" height="30" as="geometry" />
        </mxCell>
        <mxCell id="KfJyjTm68fT7vTi74J8v-179" value="" style="shape=partialRectangle;collapsible=0;dropTarget=0;pointerEvents=0;fillColor=none;points=[[0,0.5],[1,0.5]];portConstraint=eastwest;top=0;left=0;right=0;bottom=0;" vertex="1" parent="KfJyjTm68fT7vTi74J8v-175">
          <mxGeometry y="60" width="250" height="30" as="geometry" />
        </mxCell>
        <mxCell id="KfJyjTm68fT7vTi74J8v-180" value="FK1" style="shape=partialRectangle;overflow=hidden;connectable=0;fillColor=none;top=0;left=0;bottom=0;right=0;" vertex="1" parent="KfJyjTm68fT7vTi74J8v-179">
          <mxGeometry width="30" height="30" as="geometry" />
        </mxCell>
        <mxCell id="KfJyjTm68fT7vTi74J8v-181" value="company_id bigint NOT NULL" style="shape=partialRectangle;overflow=hidden;connectable=0;fillColor=none;top=0;left=0;bottom=0;right=0;align=left;spacingLeft=6;" vertex="1" parent="KfJyjTm68fT7vTi74J8v-179">
          <mxGeometry x="30" width="220" height="30" as="geometry" />
        </mxCell>
        <mxCell id="KfJyjTm68fT7vTi74J8v-182" value="" style="shape=partialRectangle;collapsible=0;dropTarget=0;pointerEvents=0;fillColor=none;points=[[0,0.5],[1,0.5]];portConstraint=eastwest;top=0;left=0;right=0;bottom=0;" vertex="1" parent="KfJyjTm68fT7vTi74J8v-175">
          <mxGeometry y="90" width="250" height="30" as="geometry" />
        </mxCell>
        <mxCell id="KfJyjTm68fT7vTi74J8v-183" value="" style="shape=partialRectangle;overflow=hidden;connectable=0;fillColor=none;top=0;left=0;bottom=0;right=0;" vertex="1" parent="KfJyjTm68fT7vTi74J8v-182">
          <mxGeometry width="30" height="30" as="geometry" />
        </mxCell>
        <mxCell id="KfJyjTm68fT7vTi74J8v-184" value="added_on [date]" style="shape=partialRectangle;overflow=hidden;connectable=0;fillColor=none;top=0;left=0;bottom=0;right=0;align=left;spacingLeft=6;" vertex="1" parent="KfJyjTm68fT7vTi74J8v-182">
          <mxGeometry x="30" width="220" height="30" as="geometry" />
        </mxCell>
        <mxCell id="KfJyjTm68fT7vTi74J8v-185" value="" style="shape=partialRectangle;collapsible=0;dropTarget=0;pointerEvents=0;fillColor=none;points=[[0,0.5],[1,0.5]];portConstraint=eastwest;top=0;left=0;right=0;bottom=0;" vertex="1" parent="KfJyjTm68fT7vTi74J8v-175">
          <mxGeometry y="120" width="250" height="30" as="geometry" />
        </mxCell>
        <mxCell id="KfJyjTm68fT7vTi74J8v-186" value="" style="shape=partialRectangle;overflow=hidden;connectable=0;fillColor=none;top=0;left=0;bottom=0;right=0;" vertex="1" parent="KfJyjTm68fT7vTi74J8v-185">
          <mxGeometry width="30" height="30" as="geometry" />
        </mxCell>
        <mxCell id="KfJyjTm68fT7vTi74J8v-187" value="date date" style="shape=partialRectangle;overflow=hidden;connectable=0;fillColor=none;top=0;left=0;bottom=0;right=0;align=left;spacingLeft=6;" vertex="1" parent="KfJyjTm68fT7vTi74J8v-185">
          <mxGeometry x="30" width="220" height="30" as="geometry" />
        </mxCell>
        <mxCell id="KfJyjTm68fT7vTi74J8v-188" value="" style="shape=partialRectangle;collapsible=0;dropTarget=0;pointerEvents=0;fillColor=none;points=[[0,0.5],[1,0.5]];portConstraint=eastwest;top=0;left=0;right=0;bottom=0;" vertex="1" parent="KfJyjTm68fT7vTi74J8v-175">
          <mxGeometry y="150" width="250" height="30" as="geometry" />
        </mxCell>
        <mxCell id="KfJyjTm68fT7vTi74J8v-189" value="" style="shape=partialRectangle;overflow=hidden;connectable=0;fillColor=none;top=0;left=0;bottom=0;right=0;" vertex="1" parent="KfJyjTm68fT7vTi74J8v-188">
          <mxGeometry width="30" height="30" as="geometry" />
        </mxCell>
        <mxCell id="KfJyjTm68fT7vTi74J8v-190" value="from_timing  int [ex:9am]" style="shape=partialRectangle;overflow=hidden;connectable=0;fillColor=none;top=0;left=0;bottom=0;right=0;align=left;spacingLeft=6;" vertex="1" parent="KfJyjTm68fT7vTi74J8v-188">
          <mxGeometry x="30" width="220" height="30" as="geometry" />
        </mxCell>
        <mxCell id="KfJyjTm68fT7vTi74J8v-192" value="" style="shape=partialRectangle;collapsible=0;dropTarget=0;pointerEvents=0;fillColor=none;points=[[0,0.5],[1,0.5]];portConstraint=eastwest;top=0;left=0;right=0;bottom=0;" vertex="1" parent="KfJyjTm68fT7vTi74J8v-175">
          <mxGeometry y="180" width="250" height="30" as="geometry" />
        </mxCell>
        <mxCell id="KfJyjTm68fT7vTi74J8v-193" value="" style="shape=partialRectangle;overflow=hidden;connectable=0;fillColor=none;top=0;left=0;bottom=0;right=0;" vertex="1" parent="KfJyjTm68fT7vTi74J8v-192">
          <mxGeometry width="30" height="30" as="geometry" />
        </mxCell>
        <mxCell id="KfJyjTm68fT7vTi74J8v-194" value="to_timing  int [ex:9pm]" style="shape=partialRectangle;overflow=hidden;connectable=0;fillColor=none;top=0;left=0;bottom=0;right=0;align=left;spacingLeft=6;" vertex="1" parent="KfJyjTm68fT7vTi74J8v-192">
          <mxGeometry x="30" width="220" height="30" as="geometry" />
        </mxCell>
        <mxCell id="KfJyjTm68fT7vTi74J8v-256" value="" style="shape=partialRectangle;collapsible=0;dropTarget=0;pointerEvents=0;fillColor=none;points=[[0,0.5],[1,0.5]];portConstraint=eastwest;top=0;left=0;right=0;bottom=0;" vertex="1" parent="KfJyjTm68fT7vTi74J8v-175">
          <mxGeometry y="210" width="250" height="30" as="geometry" />
        </mxCell>
        <mxCell id="KfJyjTm68fT7vTi74J8v-257" value="" style="shape=partialRectangle;overflow=hidden;connectable=0;fillColor=none;top=0;left=0;bottom=0;right=0;" vertex="1" parent="KfJyjTm68fT7vTi74J8v-256">
          <mxGeometry width="30" height="30" as="geometry" />
        </mxCell>
        <mxCell id="KfJyjTm68fT7vTi74J8v-258" value="last_change datetime" style="shape=partialRectangle;overflow=hidden;connectable=0;fillColor=none;top=0;left=0;bottom=0;right=0;align=left;spacingLeft=6;" vertex="1" parent="KfJyjTm68fT7vTi74J8v-256">
          <mxGeometry x="30" width="220" height="30" as="geometry" />
        </mxCell>
        <mxCell id="KfJyjTm68fT7vTi74J8v-191" value="" style="edgeStyle=entityRelationEdgeStyle;endArrow=ERzeroToMany;startArrow=ERone;endFill=1;startFill=0;entryX=1;entryY=0.5;entryDx=0;entryDy=0;exitX=0;exitY=0.5;exitDx=0;exitDy=0;" edge="1" parent="1" source="KfJyjTm68fT7vTi74J8v-114" target="KfJyjTm68fT7vTi74J8v-179">
          <mxGeometry width="100" height="100" relative="1" as="geometry">
            <mxPoint x="180" y="115" as="sourcePoint" />
            <mxPoint x="180" y="455" as="targetPoint" />
          </mxGeometry>
        </mxCell>
        <mxCell id="KfJyjTm68fT7vTi74J8v-210" value="" style="line;strokeWidth=1;rotatable=0;dashed=0;labelPosition=right;align=left;verticalAlign=middle;spacingTop=0;spacingLeft=6;points=[];portConstraint=eastwest;fillColor=none;" vertex="1" parent="1">
          <mxGeometry x="-530" y="525" width="460" height="10" as="geometry" />
        </mxCell>
        <mxCell id="KfJyjTm68fT7vTi74J8v-214" style="edgeStyle=orthogonalEdgeStyle;rounded=0;orthogonalLoop=1;jettySize=auto;html=1;exitX=1;exitY=0.5;exitDx=0;exitDy=0;" edge="1" parent="1" source="KfJyjTm68fT7vTi74J8v-213">
          <mxGeometry relative="1" as="geometry">
            <mxPoint x="560" y="530" as="targetPoint" />
          </mxGeometry>
        </mxCell>
        <mxCell id="KfJyjTm68fT7vTi74J8v-215" style="edgeStyle=orthogonalEdgeStyle;rounded=0;orthogonalLoop=1;jettySize=auto;html=1;exitX=0;exitY=0.5;exitDx=0;exitDy=0;entryX=0.995;entryY=0.9;entryDx=0;entryDy=0;entryPerimeter=0;" edge="1" parent="1" source="KfJyjTm68fT7vTi74J8v-213" target="KfJyjTm68fT7vTi74J8v-210">
          <mxGeometry relative="1" as="geometry" />
        </mxCell>
        <mxCell id="KfJyjTm68fT7vTi74J8v-213" value="&lt;span style=&quot;border-bottom: 1px dotted&quot;&gt;Admin&lt;/span&gt;" style="ellipse;whiteSpace=wrap;html=1;align=center;fillColor=none;" vertex="1" parent="1">
          <mxGeometry x="-60" y="510" width="100" height="40" as="geometry" />
        </mxCell>
        <mxCell id="KfJyjTm68fT7vTi74J8v-216" value="" style="line;strokeWidth=1;rotatable=0;dashed=0;labelPosition=right;align=left;verticalAlign=middle;spacingTop=0;spacingLeft=6;points=[];portConstraint=eastwest;fillColor=none;" vertex="1" parent="1">
          <mxGeometry x="-525" y="35" width="460" height="10" as="geometry" />
        </mxCell>
        <mxCell id="KfJyjTm68fT7vTi74J8v-217" style="edgeStyle=orthogonalEdgeStyle;rounded=0;orthogonalLoop=1;jettySize=auto;html=1;exitX=1;exitY=0.5;exitDx=0;exitDy=0;" edge="1" parent="1" source="KfJyjTm68fT7vTi74J8v-219">
          <mxGeometry relative="1" as="geometry">
            <mxPoint x="560" y="40" as="targetPoint" />
          </mxGeometry>
        </mxCell>
        <mxCell id="KfJyjTm68fT7vTi74J8v-218" style="edgeStyle=orthogonalEdgeStyle;rounded=0;orthogonalLoop=1;jettySize=auto;html=1;exitX=0;exitY=0.5;exitDx=0;exitDy=0;entryX=0.995;entryY=0.9;entryDx=0;entryDy=0;entryPerimeter=0;" edge="1" parent="1" source="KfJyjTm68fT7vTi74J8v-219" target="KfJyjTm68fT7vTi74J8v-216">
          <mxGeometry relative="1" as="geometry" />
        </mxCell>
        <mxCell id="KfJyjTm68fT7vTi74J8v-219" value="&lt;span style=&quot;border-bottom: 1px dotted&quot;&gt;super_admin&lt;/span&gt;" style="ellipse;whiteSpace=wrap;html=1;align=center;fillColor=none;" vertex="1" parent="1">
          <mxGeometry x="-55" y="20" width="100" height="40" as="geometry" />
        </mxCell>
        <mxCell id="KfJyjTm68fT7vTi74J8v-220" value="Labour [level=2]" style="shape=table;startSize=30;container=1;collapsible=1;childLayout=tableLayout;fixedRows=1;rowLines=0;fontStyle=1;align=center;resizeLast=1;" vertex="1" parent="1">
          <mxGeometry x="260" y="670" width="250" height="330" as="geometry" />
        </mxCell>
        <mxCell id="KfJyjTm68fT7vTi74J8v-221" value="" style="shape=partialRectangle;collapsible=0;dropTarget=0;pointerEvents=0;fillColor=none;points=[[0,0.5],[1,0.5]];portConstraint=eastwest;top=0;left=0;right=0;bottom=1;" vertex="1" parent="KfJyjTm68fT7vTi74J8v-220">
          <mxGeometry y="30" width="250" height="30" as="geometry" />
        </mxCell>
        <mxCell id="KfJyjTm68fT7vTi74J8v-222" value="PK" style="shape=partialRectangle;overflow=hidden;connectable=0;fillColor=none;top=0;left=0;bottom=0;right=0;fontStyle=1;" vertex="1" parent="KfJyjTm68fT7vTi74J8v-221">
          <mxGeometry width="30" height="30" as="geometry" />
        </mxCell>
        <mxCell id="KfJyjTm68fT7vTi74J8v-223" value="labour_id int NOT NULL " style="shape=partialRectangle;overflow=hidden;connectable=0;fillColor=none;top=0;left=0;bottom=0;right=0;align=left;spacingLeft=6;fontStyle=5;" vertex="1" parent="KfJyjTm68fT7vTi74J8v-221">
          <mxGeometry x="30" width="220" height="30" as="geometry" />
        </mxCell>
        <mxCell id="KfJyjTm68fT7vTi74J8v-224" value="" style="shape=partialRectangle;collapsible=0;dropTarget=0;pointerEvents=0;fillColor=none;points=[[0,0.5],[1,0.5]];portConstraint=eastwest;top=0;left=0;right=0;bottom=0;" vertex="1" parent="KfJyjTm68fT7vTi74J8v-220">
          <mxGeometry y="60" width="250" height="30" as="geometry" />
        </mxCell>
        <mxCell id="KfJyjTm68fT7vTi74J8v-225" value="FK1" style="shape=partialRectangle;overflow=hidden;connectable=0;fillColor=none;top=0;left=0;bottom=0;right=0;" vertex="1" parent="KfJyjTm68fT7vTi74J8v-224">
          <mxGeometry width="30" height="30" as="geometry" />
        </mxCell>
        <mxCell id="KfJyjTm68fT7vTi74J8v-226" value="company_id bigint NOT NULL" style="shape=partialRectangle;overflow=hidden;connectable=0;fillColor=none;top=0;left=0;bottom=0;right=0;align=left;spacingLeft=6;" vertex="1" parent="KfJyjTm68fT7vTi74J8v-224">
          <mxGeometry x="30" width="220" height="30" as="geometry" />
        </mxCell>
        <mxCell id="KfJyjTm68fT7vTi74J8v-227" value="" style="shape=partialRectangle;collapsible=0;dropTarget=0;pointerEvents=0;fillColor=none;points=[[0,0.5],[1,0.5]];portConstraint=eastwest;top=0;left=0;right=0;bottom=0;" vertex="1" parent="KfJyjTm68fT7vTi74J8v-220">
          <mxGeometry y="90" width="250" height="30" as="geometry" />
        </mxCell>
        <mxCell id="KfJyjTm68fT7vTi74J8v-228" value="" style="shape=partialRectangle;overflow=hidden;connectable=0;fillColor=none;top=0;left=0;bottom=0;right=0;" vertex="1" parent="KfJyjTm68fT7vTi74J8v-227">
          <mxGeometry width="30" height="30" as="geometry" />
        </mxCell>
        <mxCell id="KfJyjTm68fT7vTi74J8v-229" value="added_on [date]" style="shape=partialRectangle;overflow=hidden;connectable=0;fillColor=none;top=0;left=0;bottom=0;right=0;align=left;spacingLeft=6;" vertex="1" parent="KfJyjTm68fT7vTi74J8v-227">
          <mxGeometry x="30" width="220" height="30" as="geometry" />
        </mxCell>
        <mxCell id="KfJyjTm68fT7vTi74J8v-230" value="" style="shape=partialRectangle;collapsible=0;dropTarget=0;pointerEvents=0;fillColor=none;points=[[0,0.5],[1,0.5]];portConstraint=eastwest;top=0;left=0;right=0;bottom=0;" vertex="1" parent="KfJyjTm68fT7vTi74J8v-220">
          <mxGeometry y="120" width="250" height="30" as="geometry" />
        </mxCell>
        <mxCell id="KfJyjTm68fT7vTi74J8v-231" value="" style="shape=partialRectangle;overflow=hidden;connectable=0;fillColor=none;top=0;left=0;bottom=0;right=0;" vertex="1" parent="KfJyjTm68fT7vTi74J8v-230">
          <mxGeometry width="30" height="30" as="geometry" />
        </mxCell>
        <mxCell id="KfJyjTm68fT7vTi74J8v-232" value="name   [text]" style="shape=partialRectangle;overflow=hidden;connectable=0;fillColor=none;top=0;left=0;bottom=0;right=0;align=left;spacingLeft=6;" vertex="1" parent="KfJyjTm68fT7vTi74J8v-230">
          <mxGeometry x="30" width="220" height="30" as="geometry" />
        </mxCell>
        <mxCell id="KfJyjTm68fT7vTi74J8v-233" value="" style="shape=partialRectangle;collapsible=0;dropTarget=0;pointerEvents=0;fillColor=none;points=[[0,0.5],[1,0.5]];portConstraint=eastwest;top=0;left=0;right=0;bottom=0;" vertex="1" parent="KfJyjTm68fT7vTi74J8v-220">
          <mxGeometry y="150" width="250" height="30" as="geometry" />
        </mxCell>
        <mxCell id="KfJyjTm68fT7vTi74J8v-234" value="" style="shape=partialRectangle;overflow=hidden;connectable=0;fillColor=none;top=0;left=0;bottom=0;right=0;" vertex="1" parent="KfJyjTm68fT7vTi74J8v-233">
          <mxGeometry width="30" height="30" as="geometry" />
        </mxCell>
        <mxCell id="KfJyjTm68fT7vTi74J8v-235" value="username [text]  [&#39;mobile number]" style="shape=partialRectangle;overflow=hidden;connectable=0;fillColor=none;top=0;left=0;bottom=0;right=0;align=left;spacingLeft=6;" vertex="1" parent="KfJyjTm68fT7vTi74J8v-233">
          <mxGeometry x="30" width="220" height="30" as="geometry" />
        </mxCell>
        <mxCell id="KfJyjTm68fT7vTi74J8v-240" value="" style="shape=partialRectangle;collapsible=0;dropTarget=0;pointerEvents=0;fillColor=none;points=[[0,0.5],[1,0.5]];portConstraint=eastwest;top=0;left=0;right=0;bottom=0;" vertex="1" parent="KfJyjTm68fT7vTi74J8v-220">
          <mxGeometry y="180" width="250" height="30" as="geometry" />
        </mxCell>
        <mxCell id="KfJyjTm68fT7vTi74J8v-241" value="" style="shape=partialRectangle;overflow=hidden;connectable=0;fillColor=none;top=0;left=0;bottom=0;right=0;" vertex="1" parent="KfJyjTm68fT7vTi74J8v-240">
          <mxGeometry width="30" height="30" as="geometry" />
        </mxCell>
        <mxCell id="KfJyjTm68fT7vTi74J8v-242" value="password [text]" style="shape=partialRectangle;overflow=hidden;connectable=0;fillColor=none;top=0;left=0;bottom=0;right=0;align=left;spacingLeft=6;" vertex="1" parent="KfJyjTm68fT7vTi74J8v-240">
          <mxGeometry x="30" width="220" height="30" as="geometry" />
        </mxCell>
        <mxCell id="KfJyjTm68fT7vTi74J8v-249" value="" style="shape=partialRectangle;collapsible=0;dropTarget=0;pointerEvents=0;fillColor=none;points=[[0,0.5],[1,0.5]];portConstraint=eastwest;top=0;left=0;right=0;bottom=0;" vertex="1" parent="KfJyjTm68fT7vTi74J8v-220">
          <mxGeometry y="210" width="250" height="30" as="geometry" />
        </mxCell>
        <mxCell id="KfJyjTm68fT7vTi74J8v-250" value="" style="shape=partialRectangle;overflow=hidden;connectable=0;fillColor=none;top=0;left=0;bottom=0;right=0;" vertex="1" parent="KfJyjTm68fT7vTi74J8v-249">
          <mxGeometry width="30" height="30" as="geometry" />
        </mxCell>
        <mxCell id="KfJyjTm68fT7vTi74J8v-251" value="Status [int] [1==active,0==de-active]" style="shape=partialRectangle;overflow=hidden;connectable=0;fillColor=none;top=0;left=0;bottom=0;right=0;align=left;spacingLeft=6;" vertex="1" parent="KfJyjTm68fT7vTi74J8v-249">
          <mxGeometry x="30" width="220" height="30" as="geometry" />
        </mxCell>
        <mxCell id="KfJyjTm68fT7vTi74J8v-236" value="" style="shape=partialRectangle;collapsible=0;dropTarget=0;pointerEvents=0;fillColor=none;points=[[0,0.5],[1,0.5]];portConstraint=eastwest;top=0;left=0;right=0;bottom=0;" vertex="1" parent="KfJyjTm68fT7vTi74J8v-220">
          <mxGeometry y="240" width="250" height="30" as="geometry" />
        </mxCell>
        <mxCell id="KfJyjTm68fT7vTi74J8v-237" value="" style="shape=partialRectangle;overflow=hidden;connectable=0;fillColor=none;top=0;left=0;bottom=0;right=0;" vertex="1" parent="KfJyjTm68fT7vTi74J8v-236">
          <mxGeometry width="30" height="30" as="geometry" />
        </mxCell>
        <mxCell id="KfJyjTm68fT7vTi74J8v-238" value="" style="shape=partialRectangle;overflow=hidden;connectable=0;fillColor=none;top=0;left=0;bottom=0;right=0;align=left;spacingLeft=6;" vertex="1" parent="KfJyjTm68fT7vTi74J8v-236">
          <mxGeometry x="30" width="220" height="30" as="geometry" />
        </mxCell>
        <mxCell id="KfJyjTm68fT7vTi74J8v-243" value="" style="shape=partialRectangle;collapsible=0;dropTarget=0;pointerEvents=0;fillColor=none;points=[[0,0.5],[1,0.5]];portConstraint=eastwest;top=0;left=0;right=0;bottom=0;" vertex="1" parent="KfJyjTm68fT7vTi74J8v-220">
          <mxGeometry y="270" width="250" height="20" as="geometry" />
        </mxCell>
        <mxCell id="KfJyjTm68fT7vTi74J8v-244" value="" style="shape=partialRectangle;overflow=hidden;connectable=0;fillColor=none;top=0;left=0;bottom=0;right=0;" vertex="1" parent="KfJyjTm68fT7vTi74J8v-243">
          <mxGeometry width="30" height="20" as="geometry" />
        </mxCell>
        <mxCell id="KfJyjTm68fT7vTi74J8v-245" value="last_change datetime" style="shape=partialRectangle;overflow=hidden;connectable=0;fillColor=none;top=0;left=0;bottom=0;right=0;align=left;spacingLeft=6;" vertex="1" parent="KfJyjTm68fT7vTi74J8v-243">
          <mxGeometry x="30" width="220" height="20" as="geometry" />
        </mxCell>
        <mxCell id="KfJyjTm68fT7vTi74J8v-246" value="" style="shape=partialRectangle;collapsible=0;dropTarget=0;pointerEvents=0;fillColor=none;points=[[0,0.5],[1,0.5]];portConstraint=eastwest;top=0;left=0;right=0;bottom=0;" vertex="1" parent="KfJyjTm68fT7vTi74J8v-220">
          <mxGeometry y="290" width="250" height="30" as="geometry" />
        </mxCell>
        <mxCell id="KfJyjTm68fT7vTi74J8v-247" value="" style="shape=partialRectangle;overflow=hidden;connectable=0;fillColor=none;top=0;left=0;bottom=0;right=0;" vertex="1" parent="KfJyjTm68fT7vTi74J8v-246">
          <mxGeometry width="30" height="30" as="geometry" />
        </mxCell>
        <mxCell id="KfJyjTm68fT7vTi74J8v-248" value="" style="shape=partialRectangle;overflow=hidden;connectable=0;fillColor=none;top=0;left=0;bottom=0;right=0;align=left;spacingLeft=6;" vertex="1" parent="KfJyjTm68fT7vTi74J8v-246">
          <mxGeometry x="30" width="220" height="30" as="geometry" />
        </mxCell>
        <mxCell id="KfJyjTm68fT7vTi74J8v-239" value="" style="edgeStyle=entityRelationEdgeStyle;endArrow=ERzeroToMany;startArrow=ERone;endFill=1;startFill=0;entryX=0;entryY=0.5;entryDx=0;entryDy=0;exitX=1;exitY=0.5;exitDx=0;exitDy=0;" edge="1" parent="1" source="KfJyjTm68fT7vTi74J8v-114" target="KfJyjTm68fT7vTi74J8v-224">
          <mxGeometry width="100" height="100" relative="1" as="geometry">
            <mxPoint x="210" y="190" as="sourcePoint" />
            <mxPoint x="150" y="644.9999999999998" as="targetPoint" />
          </mxGeometry>
        </mxCell>
        <mxCell id="KfJyjTm68fT7vTi74J8v-252" style="edgeStyle=orthogonalEdgeStyle;rounded=0;orthogonalLoop=1;jettySize=auto;html=1;exitX=1;exitY=0.5;exitDx=0;exitDy=0;" edge="1" parent="1" source="C-vyLk0tnHw3VtMMgP7b-3">
          <mxGeometry relative="1" as="geometry">
            <mxPoint x="460.2352941176473" y="179.52941176470586" as="targetPoint" />
          </mxGeometry>
        </mxCell>
        <mxCell id="KfJyjTm68fT7vTi74J8v-259" value="Food catagory[level=2]" style="shape=table;startSize=30;container=1;collapsible=1;childLayout=tableLayout;fixedRows=1;rowLines=0;fontStyle=1;align=center;resizeLast=1;" vertex="1" parent="1">
          <mxGeometry x="-450" y="1310" width="250" height="250" as="geometry" />
        </mxCell>
        <mxCell id="KfJyjTm68fT7vTi74J8v-394" style="edgeStyle=orthogonalEdgeStyle;rounded=0;orthogonalLoop=1;jettySize=auto;html=1;entryX=1;entryY=0.5;entryDx=0;entryDy=0;" edge="1" parent="KfJyjTm68fT7vTi74J8v-259" target="KfJyjTm68fT7vTi74J8v-263">
          <mxGeometry relative="1" as="geometry">
            <mxPoint x="250" y="60" as="sourcePoint" />
          </mxGeometry>
        </mxCell>
        <mxCell id="KfJyjTm68fT7vTi74J8v-260" value="" style="shape=partialRectangle;collapsible=0;dropTarget=0;pointerEvents=0;fillColor=none;points=[[0,0.5],[1,0.5]];portConstraint=eastwest;top=0;left=0;right=0;bottom=1;" vertex="1" parent="KfJyjTm68fT7vTi74J8v-259">
          <mxGeometry y="30" width="250" height="30" as="geometry" />
        </mxCell>
        <mxCell id="KfJyjTm68fT7vTi74J8v-261" value="PK" style="shape=partialRectangle;overflow=hidden;connectable=0;fillColor=none;top=0;left=0;bottom=0;right=0;fontStyle=1;" vertex="1" parent="KfJyjTm68fT7vTi74J8v-260">
          <mxGeometry width="30" height="30" as="geometry" />
        </mxCell>
        <mxCell id="KfJyjTm68fT7vTi74J8v-262" value="foodcat_id int NOT NULL " style="shape=partialRectangle;overflow=hidden;connectable=0;fillColor=none;top=0;left=0;bottom=0;right=0;align=left;spacingLeft=6;fontStyle=5;" vertex="1" parent="KfJyjTm68fT7vTi74J8v-260">
          <mxGeometry x="30" width="220" height="30" as="geometry" />
        </mxCell>
        <mxCell id="KfJyjTm68fT7vTi74J8v-263" value="" style="shape=partialRectangle;collapsible=0;dropTarget=0;pointerEvents=0;fillColor=none;points=[[0,0.5],[1,0.5]];portConstraint=eastwest;top=0;left=0;right=0;bottom=0;" vertex="1" parent="KfJyjTm68fT7vTi74J8v-259">
          <mxGeometry y="60" width="250" height="30" as="geometry" />
        </mxCell>
        <mxCell id="KfJyjTm68fT7vTi74J8v-264" value="FK1" style="shape=partialRectangle;overflow=hidden;connectable=0;fillColor=none;top=0;left=0;bottom=0;right=0;" vertex="1" parent="KfJyjTm68fT7vTi74J8v-263">
          <mxGeometry width="30" height="30" as="geometry" />
        </mxCell>
        <mxCell id="KfJyjTm68fT7vTi74J8v-265" value="company_id bigint NOT NULL" style="shape=partialRectangle;overflow=hidden;connectable=0;fillColor=none;top=0;left=0;bottom=0;right=0;align=left;spacingLeft=6;" vertex="1" parent="KfJyjTm68fT7vTi74J8v-263">
          <mxGeometry x="30" width="220" height="30" as="geometry" />
        </mxCell>
        <mxCell id="KfJyjTm68fT7vTi74J8v-266" value="" style="shape=partialRectangle;collapsible=0;dropTarget=0;pointerEvents=0;fillColor=none;points=[[0,0.5],[1,0.5]];portConstraint=eastwest;top=0;left=0;right=0;bottom=0;" vertex="1" parent="KfJyjTm68fT7vTi74J8v-259">
          <mxGeometry y="90" width="250" height="40" as="geometry" />
        </mxCell>
        <mxCell id="KfJyjTm68fT7vTi74J8v-267" value="" style="shape=partialRectangle;overflow=hidden;connectable=0;fillColor=none;top=0;left=0;bottom=0;right=0;" vertex="1" parent="KfJyjTm68fT7vTi74J8v-266">
          <mxGeometry width="30" height="40" as="geometry" />
        </mxCell>
        <mxCell id="KfJyjTm68fT7vTi74J8v-268" value="added_on [date]" style="shape=partialRectangle;overflow=hidden;connectable=0;fillColor=none;top=0;left=0;bottom=0;right=0;align=left;spacingLeft=6;" vertex="1" parent="KfJyjTm68fT7vTi74J8v-266">
          <mxGeometry x="30" width="220" height="40" as="geometry" />
        </mxCell>
        <mxCell id="KfJyjTm68fT7vTi74J8v-269" value="" style="shape=partialRectangle;collapsible=0;dropTarget=0;pointerEvents=0;fillColor=none;points=[[0,0.5],[1,0.5]];portConstraint=eastwest;top=0;left=0;right=0;bottom=0;" vertex="1" parent="KfJyjTm68fT7vTi74J8v-259">
          <mxGeometry y="130" width="250" height="30" as="geometry" />
        </mxCell>
        <mxCell id="KfJyjTm68fT7vTi74J8v-270" value="" style="shape=partialRectangle;overflow=hidden;connectable=0;fillColor=none;top=0;left=0;bottom=0;right=0;" vertex="1" parent="KfJyjTm68fT7vTi74J8v-269">
          <mxGeometry width="30" height="30" as="geometry" />
        </mxCell>
        <mxCell id="KfJyjTm68fT7vTi74J8v-271" value="name    text [&#39;ALL,VEG,Non-veg]" style="shape=partialRectangle;overflow=hidden;connectable=0;fillColor=none;top=0;left=0;bottom=0;right=0;align=left;spacingLeft=6;" vertex="1" parent="KfJyjTm68fT7vTi74J8v-269">
          <mxGeometry x="30" width="220" height="30" as="geometry" />
        </mxCell>
        <mxCell id="KfJyjTm68fT7vTi74J8v-278" value="" style="shape=partialRectangle;collapsible=0;dropTarget=0;pointerEvents=0;fillColor=none;points=[[0,0.5],[1,0.5]];portConstraint=eastwest;top=0;left=0;right=0;bottom=0;" vertex="1" parent="KfJyjTm68fT7vTi74J8v-259">
          <mxGeometry y="160" width="250" height="30" as="geometry" />
        </mxCell>
        <mxCell id="KfJyjTm68fT7vTi74J8v-279" value="" style="shape=partialRectangle;overflow=hidden;connectable=0;fillColor=none;top=0;left=0;bottom=0;right=0;" vertex="1" parent="KfJyjTm68fT7vTi74J8v-278">
          <mxGeometry width="30" height="30" as="geometry" />
        </mxCell>
        <mxCell id="KfJyjTm68fT7vTi74J8v-280" value="last_change datetime" style="shape=partialRectangle;overflow=hidden;connectable=0;fillColor=none;top=0;left=0;bottom=0;right=0;align=left;spacingLeft=6;" vertex="1" parent="KfJyjTm68fT7vTi74J8v-278">
          <mxGeometry x="30" width="220" height="30" as="geometry" />
        </mxCell>
        <mxCell id="KfJyjTm68fT7vTi74J8v-272" value="" style="shape=partialRectangle;collapsible=0;dropTarget=0;pointerEvents=0;fillColor=none;points=[[0,0.5],[1,0.5]];portConstraint=eastwest;top=0;left=0;right=0;bottom=0;" vertex="1" parent="KfJyjTm68fT7vTi74J8v-259">
          <mxGeometry y="190" width="250" height="30" as="geometry" />
        </mxCell>
        <mxCell id="KfJyjTm68fT7vTi74J8v-273" value="" style="shape=partialRectangle;overflow=hidden;connectable=0;fillColor=none;top=0;left=0;bottom=0;right=0;" vertex="1" parent="KfJyjTm68fT7vTi74J8v-272">
          <mxGeometry width="30" height="30" as="geometry" />
        </mxCell>
        <mxCell id="KfJyjTm68fT7vTi74J8v-274" value="" style="shape=partialRectangle;overflow=hidden;connectable=0;fillColor=none;top=0;left=0;bottom=0;right=0;align=left;spacingLeft=6;" vertex="1" parent="KfJyjTm68fT7vTi74J8v-272">
          <mxGeometry x="30" width="220" height="30" as="geometry" />
        </mxCell>
        <mxCell id="KfJyjTm68fT7vTi74J8v-275" value="" style="shape=partialRectangle;collapsible=0;dropTarget=0;pointerEvents=0;fillColor=none;points=[[0,0.5],[1,0.5]];portConstraint=eastwest;top=0;left=0;right=0;bottom=0;" vertex="1" parent="KfJyjTm68fT7vTi74J8v-259">
          <mxGeometry y="220" width="250" height="30" as="geometry" />
        </mxCell>
        <mxCell id="KfJyjTm68fT7vTi74J8v-276" value="" style="shape=partialRectangle;overflow=hidden;connectable=0;fillColor=none;top=0;left=0;bottom=0;right=0;" vertex="1" parent="KfJyjTm68fT7vTi74J8v-275">
          <mxGeometry width="30" height="30" as="geometry" />
        </mxCell>
        <mxCell id="KfJyjTm68fT7vTi74J8v-277" value="" style="shape=partialRectangle;overflow=hidden;connectable=0;fillColor=none;top=0;left=0;bottom=0;right=0;align=left;spacingLeft=6;" vertex="1" parent="KfJyjTm68fT7vTi74J8v-275">
          <mxGeometry x="30" width="220" height="30" as="geometry" />
        </mxCell>
        <mxCell id="KfJyjTm68fT7vTi74J8v-281" value="" style="edgeStyle=entityRelationEdgeStyle;endArrow=ERzeroToMany;startArrow=ERone;endFill=1;startFill=0;exitX=0;exitY=0.5;exitDx=0;exitDy=0;" edge="1" parent="1" source="KfJyjTm68fT7vTi74J8v-114" target="KfJyjTm68fT7vTi74J8v-263">
          <mxGeometry width="100" height="100" relative="1" as="geometry">
            <mxPoint x="-100" y="644.9999999999998" as="sourcePoint" />
            <mxPoint x="-190" y="1390" as="targetPoint" />
          </mxGeometry>
        </mxCell>
        <mxCell id="KfJyjTm68fT7vTi74J8v-282" value="catagory [level=2]" style="shape=table;startSize=30;container=1;collapsible=1;childLayout=tableLayout;fixedRows=1;rowLines=0;fontStyle=1;align=center;resizeLast=1;" vertex="1" parent="1">
          <mxGeometry x="280" y="1210" width="250" height="290" as="geometry" />
        </mxCell>
        <mxCell id="KfJyjTm68fT7vTi74J8v-283" value="" style="shape=partialRectangle;collapsible=0;dropTarget=0;pointerEvents=0;fillColor=none;points=[[0,0.5],[1,0.5]];portConstraint=eastwest;top=0;left=0;right=0;bottom=1;" vertex="1" parent="KfJyjTm68fT7vTi74J8v-282">
          <mxGeometry y="30" width="250" height="30" as="geometry" />
        </mxCell>
        <mxCell id="KfJyjTm68fT7vTi74J8v-284" value="PK" style="shape=partialRectangle;overflow=hidden;connectable=0;fillColor=none;top=0;left=0;bottom=0;right=0;fontStyle=1;" vertex="1" parent="KfJyjTm68fT7vTi74J8v-283">
          <mxGeometry width="30" height="30" as="geometry" />
        </mxCell>
        <mxCell id="KfJyjTm68fT7vTi74J8v-285" value="cat_id int NOT NULL " style="shape=partialRectangle;overflow=hidden;connectable=0;fillColor=none;top=0;left=0;bottom=0;right=0;align=left;spacingLeft=6;fontStyle=5;" vertex="1" parent="KfJyjTm68fT7vTi74J8v-283">
          <mxGeometry x="30" width="220" height="30" as="geometry" />
        </mxCell>
        <mxCell id="KfJyjTm68fT7vTi74J8v-286" value="" style="shape=partialRectangle;collapsible=0;dropTarget=0;pointerEvents=0;fillColor=none;points=[[0,0.5],[1,0.5]];portConstraint=eastwest;top=0;left=0;right=0;bottom=0;" vertex="1" parent="KfJyjTm68fT7vTi74J8v-282">
          <mxGeometry y="60" width="250" height="30" as="geometry" />
        </mxCell>
        <mxCell id="KfJyjTm68fT7vTi74J8v-287" value="FK1" style="shape=partialRectangle;overflow=hidden;connectable=0;fillColor=none;top=0;left=0;bottom=0;right=0;" vertex="1" parent="KfJyjTm68fT7vTi74J8v-286">
          <mxGeometry width="30" height="30" as="geometry" />
        </mxCell>
        <mxCell id="KfJyjTm68fT7vTi74J8v-288" value="company_id bigint NOT NULL" style="shape=partialRectangle;overflow=hidden;connectable=0;fillColor=none;top=0;left=0;bottom=0;right=0;align=left;spacingLeft=6;" vertex="1" parent="KfJyjTm68fT7vTi74J8v-286">
          <mxGeometry x="30" width="220" height="30" as="geometry" />
        </mxCell>
        <mxCell id="KfJyjTm68fT7vTi74J8v-289" value="" style="shape=partialRectangle;collapsible=0;dropTarget=0;pointerEvents=0;fillColor=none;points=[[0,0.5],[1,0.5]];portConstraint=eastwest;top=0;left=0;right=0;bottom=0;" vertex="1" parent="KfJyjTm68fT7vTi74J8v-282">
          <mxGeometry y="90" width="250" height="40" as="geometry" />
        </mxCell>
        <mxCell id="KfJyjTm68fT7vTi74J8v-290" value="" style="shape=partialRectangle;overflow=hidden;connectable=0;fillColor=none;top=0;left=0;bottom=0;right=0;" vertex="1" parent="KfJyjTm68fT7vTi74J8v-289">
          <mxGeometry width="30" height="40" as="geometry" />
        </mxCell>
        <mxCell id="KfJyjTm68fT7vTi74J8v-291" value="added_on [date]" style="shape=partialRectangle;overflow=hidden;connectable=0;fillColor=none;top=0;left=0;bottom=0;right=0;align=left;spacingLeft=6;" vertex="1" parent="KfJyjTm68fT7vTi74J8v-289">
          <mxGeometry x="30" width="220" height="40" as="geometry" />
        </mxCell>
        <mxCell id="KfJyjTm68fT7vTi74J8v-292" value="" style="shape=partialRectangle;collapsible=0;dropTarget=0;pointerEvents=0;fillColor=none;points=[[0,0.5],[1,0.5]];portConstraint=eastwest;top=0;left=0;right=0;bottom=0;" vertex="1" parent="KfJyjTm68fT7vTi74J8v-282">
          <mxGeometry y="130" width="250" height="30" as="geometry" />
        </mxCell>
        <mxCell id="KfJyjTm68fT7vTi74J8v-293" value="" style="shape=partialRectangle;overflow=hidden;connectable=0;fillColor=none;top=0;left=0;bottom=0;right=0;" vertex="1" parent="KfJyjTm68fT7vTi74J8v-292">
          <mxGeometry width="30" height="30" as="geometry" />
        </mxCell>
        <mxCell id="KfJyjTm68fT7vTi74J8v-294" value="name    text [&#39;parotta,fry,drinks..]" style="shape=partialRectangle;overflow=hidden;connectable=0;fillColor=none;top=0;left=0;bottom=0;right=0;align=left;spacingLeft=6;" vertex="1" parent="KfJyjTm68fT7vTi74J8v-292">
          <mxGeometry x="30" width="220" height="30" as="geometry" />
        </mxCell>
        <mxCell id="KfJyjTm68fT7vTi74J8v-310" value="" style="shape=partialRectangle;collapsible=0;dropTarget=0;pointerEvents=0;fillColor=none;points=[[0,0.5],[1,0.5]];portConstraint=eastwest;top=0;left=0;right=0;bottom=0;" vertex="1" parent="KfJyjTm68fT7vTi74J8v-282">
          <mxGeometry y="160" width="250" height="30" as="geometry" />
        </mxCell>
        <mxCell id="KfJyjTm68fT7vTi74J8v-311" value="" style="shape=partialRectangle;overflow=hidden;connectable=0;fillColor=none;top=0;left=0;bottom=0;right=0;" vertex="1" parent="KfJyjTm68fT7vTi74J8v-310">
          <mxGeometry width="30" height="30" as="geometry" />
        </mxCell>
        <mxCell id="KfJyjTm68fT7vTi74J8v-312" value="last_change datetime" style="shape=partialRectangle;overflow=hidden;connectable=0;fillColor=none;top=0;left=0;bottom=0;right=0;align=left;spacingLeft=6;" vertex="1" parent="KfJyjTm68fT7vTi74J8v-310">
          <mxGeometry x="30" width="220" height="30" as="geometry" />
        </mxCell>
        <mxCell id="KfJyjTm68fT7vTi74J8v-295" value="" style="shape=partialRectangle;collapsible=0;dropTarget=0;pointerEvents=0;fillColor=none;points=[[0,0.5],[1,0.5]];portConstraint=eastwest;top=0;left=0;right=0;bottom=0;" vertex="1" parent="KfJyjTm68fT7vTi74J8v-282">
          <mxGeometry y="190" width="250" height="30" as="geometry" />
        </mxCell>
        <mxCell id="KfJyjTm68fT7vTi74J8v-296" value="" style="shape=partialRectangle;overflow=hidden;connectable=0;fillColor=none;top=0;left=0;bottom=0;right=0;" vertex="1" parent="KfJyjTm68fT7vTi74J8v-295">
          <mxGeometry width="30" height="30" as="geometry" />
        </mxCell>
        <mxCell id="KfJyjTm68fT7vTi74J8v-297" value="" style="shape=partialRectangle;overflow=hidden;connectable=0;fillColor=none;top=0;left=0;bottom=0;right=0;align=left;spacingLeft=6;" vertex="1" parent="KfJyjTm68fT7vTi74J8v-295">
          <mxGeometry x="30" width="220" height="30" as="geometry" />
        </mxCell>
        <mxCell id="KfJyjTm68fT7vTi74J8v-313" value="" style="shape=partialRectangle;collapsible=0;dropTarget=0;pointerEvents=0;fillColor=none;points=[[0,0.5],[1,0.5]];portConstraint=eastwest;top=0;left=0;right=0;bottom=0;" vertex="1" parent="KfJyjTm68fT7vTi74J8v-282">
          <mxGeometry y="220" width="250" height="20" as="geometry" />
        </mxCell>
        <mxCell id="KfJyjTm68fT7vTi74J8v-314" value="" style="shape=partialRectangle;overflow=hidden;connectable=0;fillColor=none;top=0;left=0;bottom=0;right=0;" vertex="1" parent="KfJyjTm68fT7vTi74J8v-313">
          <mxGeometry width="30" height="20" as="geometry" />
        </mxCell>
        <mxCell id="KfJyjTm68fT7vTi74J8v-315" value="" style="shape=partialRectangle;overflow=hidden;connectable=0;fillColor=none;top=0;left=0;bottom=0;right=0;align=left;spacingLeft=6;" vertex="1" parent="KfJyjTm68fT7vTi74J8v-313">
          <mxGeometry x="30" width="220" height="20" as="geometry" />
        </mxCell>
        <mxCell id="KfJyjTm68fT7vTi74J8v-301" value="" style="shape=partialRectangle;collapsible=0;dropTarget=0;pointerEvents=0;fillColor=none;points=[[0,0.5],[1,0.5]];portConstraint=eastwest;top=0;left=0;right=0;bottom=0;" vertex="1" parent="KfJyjTm68fT7vTi74J8v-282">
          <mxGeometry y="240" width="250" height="20" as="geometry" />
        </mxCell>
        <mxCell id="KfJyjTm68fT7vTi74J8v-302" value="" style="shape=partialRectangle;overflow=hidden;connectable=0;fillColor=none;top=0;left=0;bottom=0;right=0;" vertex="1" parent="KfJyjTm68fT7vTi74J8v-301">
          <mxGeometry width="30" height="20" as="geometry" />
        </mxCell>
        <mxCell id="KfJyjTm68fT7vTi74J8v-303" value="" style="shape=partialRectangle;overflow=hidden;connectable=0;fillColor=none;top=0;left=0;bottom=0;right=0;align=left;spacingLeft=6;" vertex="1" parent="KfJyjTm68fT7vTi74J8v-301">
          <mxGeometry x="30" width="220" height="20" as="geometry" />
        </mxCell>
        <mxCell id="KfJyjTm68fT7vTi74J8v-298" value="" style="shape=partialRectangle;collapsible=0;dropTarget=0;pointerEvents=0;fillColor=none;points=[[0,0.5],[1,0.5]];portConstraint=eastwest;top=0;left=0;right=0;bottom=0;" vertex="1" parent="KfJyjTm68fT7vTi74J8v-282">
          <mxGeometry y="260" width="250" height="30" as="geometry" />
        </mxCell>
        <mxCell id="KfJyjTm68fT7vTi74J8v-299" value="" style="shape=partialRectangle;overflow=hidden;connectable=0;fillColor=none;top=0;left=0;bottom=0;right=0;" vertex="1" parent="KfJyjTm68fT7vTi74J8v-298">
          <mxGeometry width="30" height="30" as="geometry" />
        </mxCell>
        <mxCell id="KfJyjTm68fT7vTi74J8v-300" value="" style="shape=partialRectangle;overflow=hidden;connectable=0;fillColor=none;top=0;left=0;bottom=0;right=0;align=left;spacingLeft=6;" vertex="1" parent="KfJyjTm68fT7vTi74J8v-298">
          <mxGeometry x="30" width="220" height="30" as="geometry" />
        </mxCell>
        <mxCell id="KfJyjTm68fT7vTi74J8v-304" value="" style="edgeStyle=entityRelationEdgeStyle;endArrow=ERzeroToMany;startArrow=ERone;endFill=1;startFill=0;exitX=1;exitY=0.5;exitDx=0;exitDy=0;entryX=0;entryY=0.5;entryDx=0;entryDy=0;" edge="1" parent="1" source="KfJyjTm68fT7vTi74J8v-114" target="KfJyjTm68fT7vTi74J8v-286">
          <mxGeometry width="100" height="100" relative="1" as="geometry">
            <mxPoint x="-130" y="1120" as="sourcePoint" />
            <mxPoint x="230" y="1160" as="targetPoint" />
          </mxGeometry>
        </mxCell>
        <mxCell id="KfJyjTm68fT7vTi74J8v-316" value="item [level=2]" style="shape=table;startSize=30;container=1;collapsible=1;childLayout=tableLayout;fixedRows=1;rowLines=0;fontStyle=1;align=center;resizeLast=1;" vertex="1" parent="1">
          <mxGeometry x="-100" y="1100" width="270" height="460" as="geometry" />
        </mxCell>
        <mxCell id="KfJyjTm68fT7vTi74J8v-317" value="" style="shape=partialRectangle;collapsible=0;dropTarget=0;pointerEvents=0;fillColor=none;points=[[0,0.5],[1,0.5]];portConstraint=eastwest;top=0;left=0;right=0;bottom=1;" vertex="1" parent="KfJyjTm68fT7vTi74J8v-316">
          <mxGeometry y="30" width="270" height="30" as="geometry" />
        </mxCell>
        <mxCell id="KfJyjTm68fT7vTi74J8v-318" value="PK" style="shape=partialRectangle;overflow=hidden;connectable=0;fillColor=none;top=0;left=0;bottom=0;right=0;fontStyle=1;" vertex="1" parent="KfJyjTm68fT7vTi74J8v-317">
          <mxGeometry width="30" height="30" as="geometry" />
        </mxCell>
        <mxCell id="KfJyjTm68fT7vTi74J8v-319" value="item_id int NOT NULL " style="shape=partialRectangle;overflow=hidden;connectable=0;fillColor=none;top=0;left=0;bottom=0;right=0;align=left;spacingLeft=6;fontStyle=5;" vertex="1" parent="KfJyjTm68fT7vTi74J8v-317">
          <mxGeometry x="30" width="240" height="30" as="geometry" />
        </mxCell>
        <mxCell id="KfJyjTm68fT7vTi74J8v-320" value="" style="shape=partialRectangle;collapsible=0;dropTarget=0;pointerEvents=0;fillColor=none;points=[[0,0.5],[1,0.5]];portConstraint=eastwest;top=0;left=0;right=0;bottom=0;" vertex="1" parent="KfJyjTm68fT7vTi74J8v-316">
          <mxGeometry y="60" width="270" height="30" as="geometry" />
        </mxCell>
        <mxCell id="KfJyjTm68fT7vTi74J8v-321" value="FK1" style="shape=partialRectangle;overflow=hidden;connectable=0;fillColor=none;top=0;left=0;bottom=0;right=0;" vertex="1" parent="KfJyjTm68fT7vTi74J8v-320">
          <mxGeometry width="30" height="30" as="geometry" />
        </mxCell>
        <mxCell id="KfJyjTm68fT7vTi74J8v-322" value="company_id bigint NOT NULL" style="shape=partialRectangle;overflow=hidden;connectable=0;fillColor=none;top=0;left=0;bottom=0;right=0;align=left;spacingLeft=6;" vertex="1" parent="KfJyjTm68fT7vTi74J8v-320">
          <mxGeometry x="30" width="240" height="30" as="geometry" />
        </mxCell>
        <mxCell id="KfJyjTm68fT7vTi74J8v-323" value="" style="shape=partialRectangle;collapsible=0;dropTarget=0;pointerEvents=0;fillColor=none;points=[[0,0.5],[1,0.5]];portConstraint=eastwest;top=0;left=0;right=0;bottom=0;" vertex="1" parent="KfJyjTm68fT7vTi74J8v-316">
          <mxGeometry y="90" width="270" height="40" as="geometry" />
        </mxCell>
        <mxCell id="KfJyjTm68fT7vTi74J8v-324" value="" style="shape=partialRectangle;overflow=hidden;connectable=0;fillColor=none;top=0;left=0;bottom=0;right=0;" vertex="1" parent="KfJyjTm68fT7vTi74J8v-323">
          <mxGeometry width="30" height="40" as="geometry" />
        </mxCell>
        <mxCell id="KfJyjTm68fT7vTi74J8v-325" value="added_on [date]" style="shape=partialRectangle;overflow=hidden;connectable=0;fillColor=none;top=0;left=0;bottom=0;right=0;align=left;spacingLeft=6;" vertex="1" parent="KfJyjTm68fT7vTi74J8v-323">
          <mxGeometry x="30" width="240" height="40" as="geometry" />
        </mxCell>
        <mxCell id="KfJyjTm68fT7vTi74J8v-326" value="" style="shape=partialRectangle;collapsible=0;dropTarget=0;pointerEvents=0;fillColor=none;points=[[0,0.5],[1,0.5]];portConstraint=eastwest;top=0;left=0;right=0;bottom=0;" vertex="1" parent="KfJyjTm68fT7vTi74J8v-316">
          <mxGeometry y="130" width="270" height="30" as="geometry" />
        </mxCell>
        <mxCell id="KfJyjTm68fT7vTi74J8v-327" value="" style="shape=partialRectangle;overflow=hidden;connectable=0;fillColor=none;top=0;left=0;bottom=0;right=0;" vertex="1" parent="KfJyjTm68fT7vTi74J8v-326">
          <mxGeometry width="30" height="30" as="geometry" />
        </mxCell>
        <mxCell id="KfJyjTm68fT7vTi74J8v-328" value="item name name   text " style="shape=partialRectangle;overflow=hidden;connectable=0;fillColor=none;top=0;left=0;bottom=0;right=0;align=left;spacingLeft=6;" vertex="1" parent="KfJyjTm68fT7vTi74J8v-326">
          <mxGeometry x="30" width="240" height="30" as="geometry" />
        </mxCell>
        <mxCell id="KfJyjTm68fT7vTi74J8v-329" value="" style="shape=partialRectangle;collapsible=0;dropTarget=0;pointerEvents=0;fillColor=none;points=[[0,0.5],[1,0.5]];portConstraint=eastwest;top=0;left=0;right=0;bottom=0;" vertex="1" parent="KfJyjTm68fT7vTi74J8v-316">
          <mxGeometry y="160" width="270" height="30" as="geometry" />
        </mxCell>
        <mxCell id="KfJyjTm68fT7vTi74J8v-330" value="" style="shape=partialRectangle;overflow=hidden;connectable=0;fillColor=none;top=0;left=0;bottom=0;right=0;" vertex="1" parent="KfJyjTm68fT7vTi74J8v-329">
          <mxGeometry width="30" height="30" as="geometry" />
        </mxCell>
        <mxCell id="KfJyjTm68fT7vTi74J8v-331" value="foodcat_id       bigint" style="shape=partialRectangle;overflow=hidden;connectable=0;fillColor=none;top=0;left=0;bottom=0;right=0;align=left;spacingLeft=6;" vertex="1" parent="KfJyjTm68fT7vTi74J8v-329">
          <mxGeometry x="30" width="240" height="30" as="geometry" />
        </mxCell>
        <mxCell id="KfJyjTm68fT7vTi74J8v-342" value="" style="shape=partialRectangle;collapsible=0;dropTarget=0;pointerEvents=0;fillColor=none;points=[[0,0.5],[1,0.5]];portConstraint=eastwest;top=0;left=0;right=0;bottom=0;" vertex="1" parent="KfJyjTm68fT7vTi74J8v-316">
          <mxGeometry y="190" width="270" height="30" as="geometry" />
        </mxCell>
        <mxCell id="KfJyjTm68fT7vTi74J8v-343" value="" style="shape=partialRectangle;overflow=hidden;connectable=0;fillColor=none;top=0;left=0;bottom=0;right=0;" vertex="1" parent="KfJyjTm68fT7vTi74J8v-342">
          <mxGeometry width="30" height="30" as="geometry" />
        </mxCell>
        <mxCell id="KfJyjTm68fT7vTi74J8v-344" value="cat_id   bigint" style="shape=partialRectangle;overflow=hidden;connectable=0;fillColor=none;top=0;left=0;bottom=0;right=0;align=left;spacingLeft=6;" vertex="1" parent="KfJyjTm68fT7vTi74J8v-342">
          <mxGeometry x="30" width="240" height="30" as="geometry" />
        </mxCell>
        <mxCell id="KfJyjTm68fT7vTi74J8v-332" value="" style="shape=partialRectangle;collapsible=0;dropTarget=0;pointerEvents=0;fillColor=none;points=[[0,0.5],[1,0.5]];portConstraint=eastwest;top=0;left=0;right=0;bottom=0;" vertex="1" parent="KfJyjTm68fT7vTi74J8v-316">
          <mxGeometry y="220" width="270" height="30" as="geometry" />
        </mxCell>
        <mxCell id="KfJyjTm68fT7vTi74J8v-333" value="" style="shape=partialRectangle;overflow=hidden;connectable=0;fillColor=none;top=0;left=0;bottom=0;right=0;" vertex="1" parent="KfJyjTm68fT7vTi74J8v-332">
          <mxGeometry width="30" height="30" as="geometry" />
        </mxCell>
        <mxCell id="KfJyjTm68fT7vTi74J8v-334" value="" style="shape=partialRectangle;overflow=hidden;connectable=0;fillColor=none;top=0;left=0;bottom=0;right=0;align=left;spacingLeft=6;" vertex="1" parent="KfJyjTm68fT7vTi74J8v-332">
          <mxGeometry x="30" width="240" height="30" as="geometry" />
        </mxCell>
        <mxCell id="KfJyjTm68fT7vTi74J8v-365" value="" style="shape=partialRectangle;collapsible=0;dropTarget=0;pointerEvents=0;fillColor=none;points=[[0,0.5],[1,0.5]];portConstraint=eastwest;top=0;left=0;right=0;bottom=0;" vertex="1" parent="KfJyjTm68fT7vTi74J8v-316">
          <mxGeometry y="250" width="270" height="30" as="geometry" />
        </mxCell>
        <mxCell id="KfJyjTm68fT7vTi74J8v-366" value="" style="shape=partialRectangle;overflow=hidden;connectable=0;fillColor=none;top=0;left=0;bottom=0;right=0;" vertex="1" parent="KfJyjTm68fT7vTi74J8v-365">
          <mxGeometry width="30" height="30" as="geometry" />
        </mxCell>
        <mxCell id="KfJyjTm68fT7vTi74J8v-367" value="qty double" style="shape=partialRectangle;overflow=hidden;connectable=0;fillColor=none;top=0;left=0;bottom=0;right=0;align=left;spacingLeft=6;" vertex="1" parent="KfJyjTm68fT7vTi74J8v-365">
          <mxGeometry x="30" width="240" height="30" as="geometry" />
        </mxCell>
        <mxCell id="KfJyjTm68fT7vTi74J8v-345" value="" style="shape=partialRectangle;collapsible=0;dropTarget=0;pointerEvents=0;fillColor=none;points=[[0,0.5],[1,0.5]];portConstraint=eastwest;top=0;left=0;right=0;bottom=0;" vertex="1" parent="KfJyjTm68fT7vTi74J8v-316">
          <mxGeometry y="280" width="270" height="30" as="geometry" />
        </mxCell>
        <mxCell id="KfJyjTm68fT7vTi74J8v-346" value="" style="shape=partialRectangle;overflow=hidden;connectable=0;fillColor=none;top=0;left=0;bottom=0;right=0;" vertex="1" parent="KfJyjTm68fT7vTi74J8v-345">
          <mxGeometry width="30" height="30" as="geometry" />
        </mxCell>
        <mxCell id="KfJyjTm68fT7vTi74J8v-347" value="RATE double" style="shape=partialRectangle;overflow=hidden;connectable=0;fillColor=none;top=0;left=0;bottom=0;right=0;align=left;spacingLeft=6;" vertex="1" parent="KfJyjTm68fT7vTi74J8v-345">
          <mxGeometry x="30" width="240" height="30" as="geometry" />
        </mxCell>
        <mxCell id="KfJyjTm68fT7vTi74J8v-335" value="" style="shape=partialRectangle;collapsible=0;dropTarget=0;pointerEvents=0;fillColor=none;points=[[0,0.5],[1,0.5]];portConstraint=eastwest;top=0;left=0;right=0;bottom=0;" vertex="1" parent="KfJyjTm68fT7vTi74J8v-316">
          <mxGeometry y="310" width="270" height="30" as="geometry" />
        </mxCell>
        <mxCell id="KfJyjTm68fT7vTi74J8v-336" value="" style="shape=partialRectangle;overflow=hidden;connectable=0;fillColor=none;top=0;left=0;bottom=0;right=0;" vertex="1" parent="KfJyjTm68fT7vTi74J8v-335">
          <mxGeometry width="30" height="30" as="geometry" />
        </mxCell>
        <mxCell id="KfJyjTm68fT7vTi74J8v-337" value="" style="shape=partialRectangle;overflow=hidden;connectable=0;fillColor=none;top=0;left=0;bottom=0;right=0;align=left;spacingLeft=6;" vertex="1" parent="KfJyjTm68fT7vTi74J8v-335">
          <mxGeometry x="30" width="240" height="30" as="geometry" />
        </mxCell>
        <mxCell id="KfJyjTm68fT7vTi74J8v-348" value="" style="shape=partialRectangle;collapsible=0;dropTarget=0;pointerEvents=0;fillColor=none;points=[[0,0.5],[1,0.5]];portConstraint=eastwest;top=0;left=0;right=0;bottom=0;" vertex="1" parent="KfJyjTm68fT7vTi74J8v-316">
          <mxGeometry y="340" width="270" height="30" as="geometry" />
        </mxCell>
        <mxCell id="KfJyjTm68fT7vTi74J8v-349" value="" style="shape=partialRectangle;overflow=hidden;connectable=0;fillColor=none;top=0;left=0;bottom=0;right=0;" vertex="1" parent="KfJyjTm68fT7vTi74J8v-348">
          <mxGeometry width="30" height="30" as="geometry" />
        </mxCell>
        <mxCell id="KfJyjTm68fT7vTi74J8v-350" value="Discount_type     int [0==rupees,1==per]" style="shape=partialRectangle;overflow=hidden;connectable=0;fillColor=none;top=0;left=0;bottom=0;right=0;align=left;spacingLeft=6;" vertex="1" parent="KfJyjTm68fT7vTi74J8v-348">
          <mxGeometry x="30" width="240" height="30" as="geometry" />
        </mxCell>
        <mxCell id="KfJyjTm68fT7vTi74J8v-356" value="" style="shape=partialRectangle;collapsible=0;dropTarget=0;pointerEvents=0;fillColor=none;points=[[0,0.5],[1,0.5]];portConstraint=eastwest;top=0;left=0;right=0;bottom=0;" vertex="1" parent="KfJyjTm68fT7vTi74J8v-316">
          <mxGeometry y="370" width="270" height="30" as="geometry" />
        </mxCell>
        <mxCell id="KfJyjTm68fT7vTi74J8v-357" value="" style="shape=partialRectangle;overflow=hidden;connectable=0;fillColor=none;top=0;left=0;bottom=0;right=0;" vertex="1" parent="KfJyjTm68fT7vTi74J8v-356">
          <mxGeometry width="30" height="30" as="geometry" />
        </mxCell>
        <mxCell id="KfJyjTm68fT7vTi74J8v-358" value="dicount    double " style="shape=partialRectangle;overflow=hidden;connectable=0;fillColor=none;top=0;left=0;bottom=0;right=0;align=left;spacingLeft=6;" vertex="1" parent="KfJyjTm68fT7vTi74J8v-356">
          <mxGeometry x="30" width="240" height="30" as="geometry" />
        </mxCell>
        <mxCell id="KfJyjTm68fT7vTi74J8v-359" value="" style="shape=partialRectangle;collapsible=0;dropTarget=0;pointerEvents=0;fillColor=none;points=[[0,0.5],[1,0.5]];portConstraint=eastwest;top=0;left=0;right=0;bottom=0;" vertex="1" parent="KfJyjTm68fT7vTi74J8v-316">
          <mxGeometry y="400" width="270" height="30" as="geometry" />
        </mxCell>
        <mxCell id="KfJyjTm68fT7vTi74J8v-360" value="" style="shape=partialRectangle;overflow=hidden;connectable=0;fillColor=none;top=0;left=0;bottom=0;right=0;" vertex="1" parent="KfJyjTm68fT7vTi74J8v-359">
          <mxGeometry width="30" height="30" as="geometry" />
        </mxCell>
        <mxCell id="KfJyjTm68fT7vTi74J8v-361" value="finial_price double" style="shape=partialRectangle;overflow=hidden;connectable=0;fillColor=none;top=0;left=0;bottom=0;right=0;align=left;spacingLeft=6;" vertex="1" parent="KfJyjTm68fT7vTi74J8v-359">
          <mxGeometry x="30" width="240" height="30" as="geometry" />
        </mxCell>
        <mxCell id="KfJyjTm68fT7vTi74J8v-362" value="" style="shape=partialRectangle;collapsible=0;dropTarget=0;pointerEvents=0;fillColor=none;points=[[0,0.5],[1,0.5]];portConstraint=eastwest;top=0;left=0;right=0;bottom=0;" vertex="1" parent="KfJyjTm68fT7vTi74J8v-316">
          <mxGeometry y="430" width="270" height="30" as="geometry" />
        </mxCell>
        <mxCell id="KfJyjTm68fT7vTi74J8v-363" value="" style="shape=partialRectangle;overflow=hidden;connectable=0;fillColor=none;top=0;left=0;bottom=0;right=0;" vertex="1" parent="KfJyjTm68fT7vTi74J8v-362">
          <mxGeometry width="30" height="30" as="geometry" />
        </mxCell>
        <mxCell id="KfJyjTm68fT7vTi74J8v-364" value="last_change datetime" style="shape=partialRectangle;overflow=hidden;connectable=0;fillColor=none;top=0;left=0;bottom=0;right=0;align=left;spacingLeft=6;" vertex="1" parent="KfJyjTm68fT7vTi74J8v-362">
          <mxGeometry x="30" width="240" height="30" as="geometry" />
        </mxCell>
        <mxCell id="KfJyjTm68fT7vTi74J8v-340" style="edgeStyle=orthogonalEdgeStyle;rounded=0;orthogonalLoop=1;jettySize=auto;html=1;exitX=1;exitY=0.5;exitDx=0;exitDy=0;entryX=1;entryY=0.5;entryDx=0;entryDy=0;" edge="1" parent="1" source="KfJyjTm68fT7vTi74J8v-317" target="KfJyjTm68fT7vTi74J8v-114">
          <mxGeometry relative="1" as="geometry" />
        </mxCell>
        <mxCell id="KfJyjTm68fT7vTi74J8v-351" style="edgeStyle=orthogonalEdgeStyle;rounded=0;orthogonalLoop=1;jettySize=auto;html=1;exitX=1;exitY=0.5;exitDx=0;exitDy=0;" edge="1" parent="1" source="KfJyjTm68fT7vTi74J8v-260" target="KfJyjTm68fT7vTi74J8v-329">
          <mxGeometry relative="1" as="geometry" />
        </mxCell>
        <mxCell id="KfJyjTm68fT7vTi74J8v-352" style="edgeStyle=orthogonalEdgeStyle;rounded=0;orthogonalLoop=1;jettySize=auto;html=1;exitX=0;exitY=0.5;exitDx=0;exitDy=0;" edge="1" parent="1" source="KfJyjTm68fT7vTi74J8v-283" target="KfJyjTm68fT7vTi74J8v-342">
          <mxGeometry relative="1" as="geometry" />
        </mxCell>
        <mxCell id="KfJyjTm68fT7vTi74J8v-368" value="cupon code  [level=2]" style="shape=table;startSize=30;container=1;collapsible=1;childLayout=tableLayout;fixedRows=1;rowLines=0;fontStyle=1;align=center;resizeLast=1;" vertex="1" parent="1">
          <mxGeometry x="-450" y="950" width="250" height="280" as="geometry" />
        </mxCell>
        <mxCell id="KfJyjTm68fT7vTi74J8v-369" value="" style="shape=partialRectangle;collapsible=0;dropTarget=0;pointerEvents=0;fillColor=none;points=[[0,0.5],[1,0.5]];portConstraint=eastwest;top=0;left=0;right=0;bottom=1;" vertex="1" parent="KfJyjTm68fT7vTi74J8v-368">
          <mxGeometry y="30" width="250" height="30" as="geometry" />
        </mxCell>
        <mxCell id="KfJyjTm68fT7vTi74J8v-370" value="PK" style="shape=partialRectangle;overflow=hidden;connectable=0;fillColor=none;top=0;left=0;bottom=0;right=0;fontStyle=1;" vertex="1" parent="KfJyjTm68fT7vTi74J8v-369">
          <mxGeometry width="30" height="30" as="geometry" />
        </mxCell>
        <mxCell id="KfJyjTm68fT7vTi74J8v-371" value="cupon_id int NOT NULL " style="shape=partialRectangle;overflow=hidden;connectable=0;fillColor=none;top=0;left=0;bottom=0;right=0;align=left;spacingLeft=6;fontStyle=5;" vertex="1" parent="KfJyjTm68fT7vTi74J8v-369">
          <mxGeometry x="30" width="220" height="30" as="geometry" />
        </mxCell>
        <mxCell id="KfJyjTm68fT7vTi74J8v-372" value="" style="shape=partialRectangle;collapsible=0;dropTarget=0;pointerEvents=0;fillColor=none;points=[[0,0.5],[1,0.5]];portConstraint=eastwest;top=0;left=0;right=0;bottom=0;" vertex="1" parent="KfJyjTm68fT7vTi74J8v-368">
          <mxGeometry y="60" width="250" height="30" as="geometry" />
        </mxCell>
        <mxCell id="KfJyjTm68fT7vTi74J8v-373" value="FK1" style="shape=partialRectangle;overflow=hidden;connectable=0;fillColor=none;top=0;left=0;bottom=0;right=0;" vertex="1" parent="KfJyjTm68fT7vTi74J8v-372">
          <mxGeometry width="30" height="30" as="geometry" />
        </mxCell>
        <mxCell id="KfJyjTm68fT7vTi74J8v-374" value="company_id bigint NOT NULL" style="shape=partialRectangle;overflow=hidden;connectable=0;fillColor=none;top=0;left=0;bottom=0;right=0;align=left;spacingLeft=6;" vertex="1" parent="KfJyjTm68fT7vTi74J8v-372">
          <mxGeometry x="30" width="220" height="30" as="geometry" />
        </mxCell>
        <mxCell id="KfJyjTm68fT7vTi74J8v-375" value="" style="shape=partialRectangle;collapsible=0;dropTarget=0;pointerEvents=0;fillColor=none;points=[[0,0.5],[1,0.5]];portConstraint=eastwest;top=0;left=0;right=0;bottom=0;" vertex="1" parent="KfJyjTm68fT7vTi74J8v-368">
          <mxGeometry y="90" width="250" height="30" as="geometry" />
        </mxCell>
        <mxCell id="KfJyjTm68fT7vTi74J8v-376" value="" style="shape=partialRectangle;overflow=hidden;connectable=0;fillColor=none;top=0;left=0;bottom=0;right=0;" vertex="1" parent="KfJyjTm68fT7vTi74J8v-375">
          <mxGeometry width="30" height="30" as="geometry" />
        </mxCell>
        <mxCell id="KfJyjTm68fT7vTi74J8v-377" value="added_on [date]" style="shape=partialRectangle;overflow=hidden;connectable=0;fillColor=none;top=0;left=0;bottom=0;right=0;align=left;spacingLeft=6;" vertex="1" parent="KfJyjTm68fT7vTi74J8v-375">
          <mxGeometry x="30" width="220" height="30" as="geometry" />
        </mxCell>
        <mxCell id="KfJyjTm68fT7vTi74J8v-378" value="" style="shape=partialRectangle;collapsible=0;dropTarget=0;pointerEvents=0;fillColor=none;points=[[0,0.5],[1,0.5]];portConstraint=eastwest;top=0;left=0;right=0;bottom=0;" vertex="1" parent="KfJyjTm68fT7vTi74J8v-368">
          <mxGeometry y="120" width="250" height="30" as="geometry" />
        </mxCell>
        <mxCell id="KfJyjTm68fT7vTi74J8v-379" value="" style="shape=partialRectangle;overflow=hidden;connectable=0;fillColor=none;top=0;left=0;bottom=0;right=0;" vertex="1" parent="KfJyjTm68fT7vTi74J8v-378">
          <mxGeometry width="30" height="30" as="geometry" />
        </mxCell>
        <mxCell id="KfJyjTm68fT7vTi74J8v-380" value="code text" style="shape=partialRectangle;overflow=hidden;connectable=0;fillColor=none;top=0;left=0;bottom=0;right=0;align=left;spacingLeft=6;" vertex="1" parent="KfJyjTm68fT7vTi74J8v-378">
          <mxGeometry x="30" width="220" height="30" as="geometry" />
        </mxCell>
        <mxCell id="KfJyjTm68fT7vTi74J8v-381" value="" style="shape=partialRectangle;collapsible=0;dropTarget=0;pointerEvents=0;fillColor=none;points=[[0,0.5],[1,0.5]];portConstraint=eastwest;top=0;left=0;right=0;bottom=0;" vertex="1" parent="KfJyjTm68fT7vTi74J8v-368">
          <mxGeometry y="150" width="250" height="30" as="geometry" />
        </mxCell>
        <mxCell id="KfJyjTm68fT7vTi74J8v-382" value="" style="shape=partialRectangle;overflow=hidden;connectable=0;fillColor=none;top=0;left=0;bottom=0;right=0;" vertex="1" parent="KfJyjTm68fT7vTi74J8v-381">
          <mxGeometry width="30" height="30" as="geometry" />
        </mxCell>
        <mxCell id="KfJyjTm68fT7vTi74J8v-383" value="from_timing  datetime" style="shape=partialRectangle;overflow=hidden;connectable=0;fillColor=none;top=0;left=0;bottom=0;right=0;align=left;spacingLeft=6;" vertex="1" parent="KfJyjTm68fT7vTi74J8v-381">
          <mxGeometry x="30" width="220" height="30" as="geometry" />
        </mxCell>
        <mxCell id="KfJyjTm68fT7vTi74J8v-391" value="" style="shape=partialRectangle;collapsible=0;dropTarget=0;pointerEvents=0;fillColor=none;points=[[0,0.5],[1,0.5]];portConstraint=eastwest;top=0;left=0;right=0;bottom=0;" vertex="1" parent="KfJyjTm68fT7vTi74J8v-368">
          <mxGeometry y="180" width="250" height="30" as="geometry" />
        </mxCell>
        <mxCell id="KfJyjTm68fT7vTi74J8v-392" value="" style="shape=partialRectangle;overflow=hidden;connectable=0;fillColor=none;top=0;left=0;bottom=0;right=0;" vertex="1" parent="KfJyjTm68fT7vTi74J8v-391">
          <mxGeometry width="30" height="30" as="geometry" />
        </mxCell>
        <mxCell id="KfJyjTm68fT7vTi74J8v-393" value="to_timing  datetime" style="shape=partialRectangle;overflow=hidden;connectable=0;fillColor=none;top=0;left=0;bottom=0;right=0;align=left;spacingLeft=6;" vertex="1" parent="KfJyjTm68fT7vTi74J8v-391">
          <mxGeometry x="30" width="220" height="30" as="geometry" />
        </mxCell>
        <mxCell id="KfJyjTm68fT7vTi74J8v-384" value="" style="shape=partialRectangle;collapsible=0;dropTarget=0;pointerEvents=0;fillColor=none;points=[[0,0.5],[1,0.5]];portConstraint=eastwest;top=0;left=0;right=0;bottom=0;" vertex="1" parent="KfJyjTm68fT7vTi74J8v-368">
          <mxGeometry y="210" width="250" height="30" as="geometry" />
        </mxCell>
        <mxCell id="KfJyjTm68fT7vTi74J8v-385" value="" style="shape=partialRectangle;overflow=hidden;connectable=0;fillColor=none;top=0;left=0;bottom=0;right=0;" vertex="1" parent="KfJyjTm68fT7vTi74J8v-384">
          <mxGeometry width="30" height="30" as="geometry" />
        </mxCell>
        <mxCell id="KfJyjTm68fT7vTi74J8v-386" value="Status [int] [1==active,0==de-active]" style="shape=partialRectangle;overflow=hidden;connectable=0;fillColor=none;top=0;left=0;bottom=0;right=0;align=left;spacingLeft=6;" vertex="1" parent="KfJyjTm68fT7vTi74J8v-384">
          <mxGeometry x="30" width="220" height="30" as="geometry" />
        </mxCell>
        <mxCell id="KfJyjTm68fT7vTi74J8v-387" value="" style="shape=partialRectangle;collapsible=0;dropTarget=0;pointerEvents=0;fillColor=none;points=[[0,0.5],[1,0.5]];portConstraint=eastwest;top=0;left=0;right=0;bottom=0;" vertex="1" parent="KfJyjTm68fT7vTi74J8v-368">
          <mxGeometry y="240" width="250" height="30" as="geometry" />
        </mxCell>
        <mxCell id="KfJyjTm68fT7vTi74J8v-388" value="" style="shape=partialRectangle;overflow=hidden;connectable=0;fillColor=none;top=0;left=0;bottom=0;right=0;" vertex="1" parent="KfJyjTm68fT7vTi74J8v-387">
          <mxGeometry width="30" height="30" as="geometry" />
        </mxCell>
        <mxCell id="KfJyjTm68fT7vTi74J8v-389" value="last_change datetime" style="shape=partialRectangle;overflow=hidden;connectable=0;fillColor=none;top=0;left=0;bottom=0;right=0;align=left;spacingLeft=6;" vertex="1" parent="KfJyjTm68fT7vTi74J8v-387">
          <mxGeometry x="30" width="220" height="30" as="geometry" />
        </mxCell>
        <mxCell id="KfJyjTm68fT7vTi74J8v-396" value="" style="edgeStyle=entityRelationEdgeStyle;endArrow=ERzeroToMany;startArrow=ERone;endFill=1;startFill=0;entryX=1;entryY=0.5;entryDx=0;entryDy=0;" edge="1" parent="1" source="KfJyjTm68fT7vTi74J8v-114" target="KfJyjTm68fT7vTi74J8v-372">
          <mxGeometry width="100" height="100" relative="1" as="geometry">
            <mxPoint x="-70" y="644.9999999999998" as="sourcePoint" />
            <mxPoint x="-160" y="714.9999999999998" as="targetPoint" />
          </mxGeometry>
        </mxCell>
        <mxCell id="KfJyjTm68fT7vTi74J8v-397" value="special [level=2]" style="shape=table;startSize=30;container=1;collapsible=1;childLayout=tableLayout;fixedRows=1;rowLines=0;fontStyle=1;align=center;resizeLast=1;" vertex="1" parent="1">
          <mxGeometry x="220" y="1540" width="250" height="270" as="geometry" />
        </mxCell>
        <mxCell id="KfJyjTm68fT7vTi74J8v-398" style="edgeStyle=orthogonalEdgeStyle;rounded=0;orthogonalLoop=1;jettySize=auto;html=1;entryX=1;entryY=0.5;entryDx=0;entryDy=0;" edge="1" parent="KfJyjTm68fT7vTi74J8v-397" target="KfJyjTm68fT7vTi74J8v-402">
          <mxGeometry relative="1" as="geometry">
            <mxPoint x="250" y="60" as="sourcePoint" />
          </mxGeometry>
        </mxCell>
        <mxCell id="KfJyjTm68fT7vTi74J8v-399" value="" style="shape=partialRectangle;collapsible=0;dropTarget=0;pointerEvents=0;fillColor=none;points=[[0,0.5],[1,0.5]];portConstraint=eastwest;top=0;left=0;right=0;bottom=1;" vertex="1" parent="KfJyjTm68fT7vTi74J8v-397">
          <mxGeometry y="30" width="250" height="30" as="geometry" />
        </mxCell>
        <mxCell id="KfJyjTm68fT7vTi74J8v-400" value="PK" style="shape=partialRectangle;overflow=hidden;connectable=0;fillColor=none;top=0;left=0;bottom=0;right=0;fontStyle=1;" vertex="1" parent="KfJyjTm68fT7vTi74J8v-399">
          <mxGeometry width="30" height="30" as="geometry" />
        </mxCell>
        <mxCell id="KfJyjTm68fT7vTi74J8v-401" value="special_id int NOT NULL " style="shape=partialRectangle;overflow=hidden;connectable=0;fillColor=none;top=0;left=0;bottom=0;right=0;align=left;spacingLeft=6;fontStyle=5;" vertex="1" parent="KfJyjTm68fT7vTi74J8v-399">
          <mxGeometry x="30" width="220" height="30" as="geometry" />
        </mxCell>
        <mxCell id="KfJyjTm68fT7vTi74J8v-402" value="" style="shape=partialRectangle;collapsible=0;dropTarget=0;pointerEvents=0;fillColor=none;points=[[0,0.5],[1,0.5]];portConstraint=eastwest;top=0;left=0;right=0;bottom=0;" vertex="1" parent="KfJyjTm68fT7vTi74J8v-397">
          <mxGeometry y="60" width="250" height="20" as="geometry" />
        </mxCell>
        <mxCell id="KfJyjTm68fT7vTi74J8v-403" value="FK1" style="shape=partialRectangle;overflow=hidden;connectable=0;fillColor=none;top=0;left=0;bottom=0;right=0;" vertex="1" parent="KfJyjTm68fT7vTi74J8v-402">
          <mxGeometry width="30" height="20" as="geometry" />
        </mxCell>
        <mxCell id="KfJyjTm68fT7vTi74J8v-404" value="company_id bigint NOT NULL" style="shape=partialRectangle;overflow=hidden;connectable=0;fillColor=none;top=0;left=0;bottom=0;right=0;align=left;spacingLeft=6;" vertex="1" parent="KfJyjTm68fT7vTi74J8v-402">
          <mxGeometry x="30" width="220" height="20" as="geometry" />
        </mxCell>
        <mxCell id="KfJyjTm68fT7vTi74J8v-405" value="" style="shape=partialRectangle;collapsible=0;dropTarget=0;pointerEvents=0;fillColor=none;points=[[0,0.5],[1,0.5]];portConstraint=eastwest;top=0;left=0;right=0;bottom=0;" vertex="1" parent="KfJyjTm68fT7vTi74J8v-397">
          <mxGeometry y="80" width="250" height="40" as="geometry" />
        </mxCell>
        <mxCell id="KfJyjTm68fT7vTi74J8v-406" value="" style="shape=partialRectangle;overflow=hidden;connectable=0;fillColor=none;top=0;left=0;bottom=0;right=0;" vertex="1" parent="KfJyjTm68fT7vTi74J8v-405">
          <mxGeometry width="30" height="40" as="geometry" />
        </mxCell>
        <mxCell id="KfJyjTm68fT7vTi74J8v-407" value="added_on [date]" style="shape=partialRectangle;overflow=hidden;connectable=0;fillColor=none;top=0;left=0;bottom=0;right=0;align=left;spacingLeft=6;" vertex="1" parent="KfJyjTm68fT7vTi74J8v-405">
          <mxGeometry x="30" width="220" height="40" as="geometry" />
        </mxCell>
        <mxCell id="KfJyjTm68fT7vTi74J8v-408" value="" style="shape=partialRectangle;collapsible=0;dropTarget=0;pointerEvents=0;fillColor=none;points=[[0,0.5],[1,0.5]];portConstraint=eastwest;top=0;left=0;right=0;bottom=0;" vertex="1" parent="KfJyjTm68fT7vTi74J8v-397">
          <mxGeometry y="120" width="250" height="30" as="geometry" />
        </mxCell>
        <mxCell id="KfJyjTm68fT7vTi74J8v-409" value="" style="shape=partialRectangle;overflow=hidden;connectable=0;fillColor=none;top=0;left=0;bottom=0;right=0;" vertex="1" parent="KfJyjTm68fT7vTi74J8v-408">
          <mxGeometry width="30" height="30" as="geometry" />
        </mxCell>
        <mxCell id="KfJyjTm68fT7vTi74J8v-410" value="item_id     [bigint] " style="shape=partialRectangle;overflow=hidden;connectable=0;fillColor=none;top=0;left=0;bottom=0;right=0;align=left;spacingLeft=6;" vertex="1" parent="KfJyjTm68fT7vTi74J8v-408">
          <mxGeometry x="30" width="220" height="30" as="geometry" />
        </mxCell>
        <mxCell id="KfJyjTm68fT7vTi74J8v-411" value="" style="shape=partialRectangle;collapsible=0;dropTarget=0;pointerEvents=0;fillColor=none;points=[[0,0.5],[1,0.5]];portConstraint=eastwest;top=0;left=0;right=0;bottom=0;" vertex="1" parent="KfJyjTm68fT7vTi74J8v-397">
          <mxGeometry y="150" width="250" height="30" as="geometry" />
        </mxCell>
        <mxCell id="KfJyjTm68fT7vTi74J8v-412" value="" style="shape=partialRectangle;overflow=hidden;connectable=0;fillColor=none;top=0;left=0;bottom=0;right=0;" vertex="1" parent="KfJyjTm68fT7vTi74J8v-411">
          <mxGeometry width="30" height="30" as="geometry" />
        </mxCell>
        <mxCell id="KfJyjTm68fT7vTi74J8v-413" value="Status [int] [1==active,0==de-active]" style="shape=partialRectangle;overflow=hidden;connectable=0;fillColor=none;top=0;left=0;bottom=0;right=0;align=left;spacingLeft=6;" vertex="1" parent="KfJyjTm68fT7vTi74J8v-411">
          <mxGeometry x="30" width="220" height="30" as="geometry" />
        </mxCell>
        <mxCell id="KfJyjTm68fT7vTi74J8v-414" value="" style="shape=partialRectangle;collapsible=0;dropTarget=0;pointerEvents=0;fillColor=none;points=[[0,0.5],[1,0.5]];portConstraint=eastwest;top=0;left=0;right=0;bottom=0;" vertex="1" parent="KfJyjTm68fT7vTi74J8v-397">
          <mxGeometry y="180" width="250" height="30" as="geometry" />
        </mxCell>
        <mxCell id="KfJyjTm68fT7vTi74J8v-415" value="" style="shape=partialRectangle;overflow=hidden;connectable=0;fillColor=none;top=0;left=0;bottom=0;right=0;" vertex="1" parent="KfJyjTm68fT7vTi74J8v-414">
          <mxGeometry width="30" height="30" as="geometry" />
        </mxCell>
        <mxCell id="KfJyjTm68fT7vTi74J8v-416" value="" style="shape=partialRectangle;overflow=hidden;connectable=0;fillColor=none;top=0;left=0;bottom=0;right=0;align=left;spacingLeft=6;" vertex="1" parent="KfJyjTm68fT7vTi74J8v-414">
          <mxGeometry x="30" width="220" height="30" as="geometry" />
        </mxCell>
        <mxCell id="KfJyjTm68fT7vTi74J8v-417" value="" style="shape=partialRectangle;collapsible=0;dropTarget=0;pointerEvents=0;fillColor=none;points=[[0,0.5],[1,0.5]];portConstraint=eastwest;top=0;left=0;right=0;bottom=0;" vertex="1" parent="KfJyjTm68fT7vTi74J8v-397">
          <mxGeometry y="210" width="250" height="30" as="geometry" />
        </mxCell>
        <mxCell id="KfJyjTm68fT7vTi74J8v-418" value="" style="shape=partialRectangle;overflow=hidden;connectable=0;fillColor=none;top=0;left=0;bottom=0;right=0;" vertex="1" parent="KfJyjTm68fT7vTi74J8v-417">
          <mxGeometry width="30" height="30" as="geometry" />
        </mxCell>
        <mxCell id="KfJyjTm68fT7vTi74J8v-419" value="" style="shape=partialRectangle;overflow=hidden;connectable=0;fillColor=none;top=0;left=0;bottom=0;right=0;align=left;spacingLeft=6;" vertex="1" parent="KfJyjTm68fT7vTi74J8v-417">
          <mxGeometry x="30" width="220" height="30" as="geometry" />
        </mxCell>
        <mxCell id="KfJyjTm68fT7vTi74J8v-596" value="" style="shape=partialRectangle;collapsible=0;dropTarget=0;pointerEvents=0;fillColor=none;points=[[0,0.5],[1,0.5]];portConstraint=eastwest;top=0;left=0;right=0;bottom=0;" vertex="1" parent="KfJyjTm68fT7vTi74J8v-397">
          <mxGeometry y="240" width="250" height="30" as="geometry" />
        </mxCell>
        <mxCell id="KfJyjTm68fT7vTi74J8v-597" value="" style="shape=partialRectangle;overflow=hidden;connectable=0;fillColor=none;top=0;left=0;bottom=0;right=0;" vertex="1" parent="KfJyjTm68fT7vTi74J8v-596">
          <mxGeometry width="30" height="30" as="geometry" />
        </mxCell>
        <mxCell id="KfJyjTm68fT7vTi74J8v-598" value="last_change datetime" style="shape=partialRectangle;overflow=hidden;connectable=0;fillColor=none;top=0;left=0;bottom=0;right=0;align=left;spacingLeft=6;" vertex="1" parent="KfJyjTm68fT7vTi74J8v-596">
          <mxGeometry x="30" width="220" height="30" as="geometry" />
        </mxCell>
        <mxCell id="KfJyjTm68fT7vTi74J8v-420" value="" style="edgeStyle=entityRelationEdgeStyle;endArrow=ERzeroToMany;startArrow=ERone;endFill=1;startFill=0;exitX=1;exitY=0.5;exitDx=0;exitDy=0;entryX=0;entryY=0.5;entryDx=0;entryDy=0;" edge="1" parent="1" source="KfJyjTm68fT7vTi74J8v-114" target="KfJyjTm68fT7vTi74J8v-402">
          <mxGeometry width="100" height="100" relative="1" as="geometry">
            <mxPoint x="180" y="644.9999999999998" as="sourcePoint" />
            <mxPoint x="290" y="1295" as="targetPoint" />
          </mxGeometry>
        </mxCell>
        <mxCell id="KfJyjTm68fT7vTi74J8v-421" style="edgeStyle=orthogonalEdgeStyle;rounded=0;orthogonalLoop=1;jettySize=auto;html=1;exitX=0;exitY=0.5;exitDx=0;exitDy=0;entryX=1;entryY=0.5;entryDx=0;entryDy=0;" edge="1" parent="1" source="KfJyjTm68fT7vTi74J8v-408" target="KfJyjTm68fT7vTi74J8v-317">
          <mxGeometry relative="1" as="geometry">
            <mxPoint x="220.2352941176473" y="1108.1176757812498" as="targetPoint" />
          </mxGeometry>
        </mxCell>
        <mxCell id="KfJyjTm68fT7vTi74J8v-423" value="cart [level=4]" style="shape=table;startSize=40;container=1;collapsible=1;childLayout=tableLayout;fixedRows=1;rowLines=0;fontStyle=1;align=center;resizeLast=1;" vertex="1" parent="1">
          <mxGeometry x="-540" y="2050" width="339.9999999999998" height="570" as="geometry" />
        </mxCell>
        <mxCell id="KfJyjTm68fT7vTi74J8v-425" value="" style="shape=partialRectangle;collapsible=0;dropTarget=0;pointerEvents=0;fillColor=none;points=[[0,0.5],[1,0.5]];portConstraint=eastwest;top=0;left=0;right=0;bottom=1;" vertex="1" parent="KfJyjTm68fT7vTi74J8v-423">
          <mxGeometry y="40" width="339.9999999999998" height="30" as="geometry" />
        </mxCell>
        <mxCell id="KfJyjTm68fT7vTi74J8v-426" value="PK" style="shape=partialRectangle;overflow=hidden;connectable=0;fillColor=none;top=0;left=0;bottom=0;right=0;fontStyle=1;" vertex="1" parent="KfJyjTm68fT7vTi74J8v-425">
          <mxGeometry width="30" height="30" as="geometry" />
        </mxCell>
        <mxCell id="KfJyjTm68fT7vTi74J8v-427" value="cart_id int NOT NULL " style="shape=partialRectangle;overflow=hidden;connectable=0;fillColor=none;top=0;left=0;bottom=0;right=0;align=left;spacingLeft=6;fontStyle=5;" vertex="1" parent="KfJyjTm68fT7vTi74J8v-425">
          <mxGeometry x="30" width="309.9999999999998" height="30" as="geometry" />
        </mxCell>
        <mxCell id="KfJyjTm68fT7vTi74J8v-428" value="" style="shape=partialRectangle;collapsible=0;dropTarget=0;pointerEvents=0;fillColor=none;points=[[0,0.5],[1,0.5]];portConstraint=eastwest;top=0;left=0;right=0;bottom=0;" vertex="1" parent="KfJyjTm68fT7vTi74J8v-423">
          <mxGeometry y="70" width="339.9999999999998" height="30" as="geometry" />
        </mxCell>
        <mxCell id="KfJyjTm68fT7vTi74J8v-429" value="FK1" style="shape=partialRectangle;overflow=hidden;connectable=0;fillColor=none;top=0;left=0;bottom=0;right=0;" vertex="1" parent="KfJyjTm68fT7vTi74J8v-428">
          <mxGeometry width="30" height="30" as="geometry" />
        </mxCell>
        <mxCell id="KfJyjTm68fT7vTi74J8v-430" value="login_id bigint NOT NULL" style="shape=partialRectangle;overflow=hidden;connectable=0;fillColor=none;top=0;left=0;bottom=0;right=0;align=left;spacingLeft=6;" vertex="1" parent="KfJyjTm68fT7vTi74J8v-428">
          <mxGeometry x="30" width="309.9999999999998" height="30" as="geometry" />
        </mxCell>
        <mxCell id="KfJyjTm68fT7vTi74J8v-431" value="" style="shape=partialRectangle;collapsible=0;dropTarget=0;pointerEvents=0;fillColor=none;points=[[0,0.5],[1,0.5]];portConstraint=eastwest;top=0;left=0;right=0;bottom=0;" vertex="1" parent="KfJyjTm68fT7vTi74J8v-423">
          <mxGeometry y="100" width="339.9999999999998" height="40" as="geometry" />
        </mxCell>
        <mxCell id="KfJyjTm68fT7vTi74J8v-432" value="" style="shape=partialRectangle;overflow=hidden;connectable=0;fillColor=none;top=0;left=0;bottom=0;right=0;" vertex="1" parent="KfJyjTm68fT7vTi74J8v-431">
          <mxGeometry width="30" height="40" as="geometry" />
        </mxCell>
        <mxCell id="KfJyjTm68fT7vTi74J8v-433" value="added_on [date]" style="shape=partialRectangle;overflow=hidden;connectable=0;fillColor=none;top=0;left=0;bottom=0;right=0;align=left;spacingLeft=6;" vertex="1" parent="KfJyjTm68fT7vTi74J8v-431">
          <mxGeometry x="30" width="309.9999999999998" height="40" as="geometry" />
        </mxCell>
        <mxCell id="KfJyjTm68fT7vTi74J8v-434" value="" style="shape=partialRectangle;collapsible=0;dropTarget=0;pointerEvents=0;fillColor=none;points=[[0,0.5],[1,0.5]];portConstraint=eastwest;top=0;left=0;right=0;bottom=0;" vertex="1" parent="KfJyjTm68fT7vTi74J8v-423">
          <mxGeometry y="140" width="339.9999999999998" height="40" as="geometry" />
        </mxCell>
        <mxCell id="KfJyjTm68fT7vTi74J8v-435" value="" style="shape=partialRectangle;overflow=hidden;connectable=0;fillColor=none;top=0;left=0;bottom=0;right=0;" vertex="1" parent="KfJyjTm68fT7vTi74J8v-434">
          <mxGeometry width="30" height="40" as="geometry" />
        </mxCell>
        <mxCell id="KfJyjTm68fT7vTi74J8v-436" value="Total_price double" style="shape=partialRectangle;overflow=hidden;connectable=0;fillColor=none;top=0;left=0;bottom=0;right=0;align=left;spacingLeft=6;" vertex="1" parent="KfJyjTm68fT7vTi74J8v-434">
          <mxGeometry x="30" width="309.9999999999998" height="40" as="geometry" />
        </mxCell>
        <mxCell id="KfJyjTm68fT7vTi74J8v-437" value="" style="shape=partialRectangle;collapsible=0;dropTarget=0;pointerEvents=0;fillColor=none;points=[[0,0.5],[1,0.5]];portConstraint=eastwest;top=0;left=0;right=0;bottom=0;" vertex="1" parent="KfJyjTm68fT7vTi74J8v-423">
          <mxGeometry y="180" width="339.9999999999998" height="30" as="geometry" />
        </mxCell>
        <mxCell id="KfJyjTm68fT7vTi74J8v-438" value="" style="shape=partialRectangle;overflow=hidden;connectable=0;fillColor=none;top=0;left=0;bottom=0;right=0;" vertex="1" parent="KfJyjTm68fT7vTi74J8v-437">
          <mxGeometry width="30" height="30" as="geometry" />
        </mxCell>
        <mxCell id="KfJyjTm68fT7vTi74J8v-439" value="" style="shape=partialRectangle;overflow=hidden;connectable=0;fillColor=none;top=0;left=0;bottom=0;right=0;align=left;spacingLeft=6;" vertex="1" parent="KfJyjTm68fT7vTi74J8v-437">
          <mxGeometry x="30" width="309.9999999999998" height="30" as="geometry" />
        </mxCell>
        <mxCell id="KfJyjTm68fT7vTi74J8v-457" value="" style="shape=partialRectangle;collapsible=0;dropTarget=0;pointerEvents=0;fillColor=none;points=[[0,0.5],[1,0.5]];portConstraint=eastwest;top=0;left=0;right=0;bottom=0;" vertex="1" parent="KfJyjTm68fT7vTi74J8v-423">
          <mxGeometry y="210" width="339.9999999999998" height="30" as="geometry" />
        </mxCell>
        <mxCell id="KfJyjTm68fT7vTi74J8v-458" value="" style="shape=partialRectangle;overflow=hidden;connectable=0;fillColor=none;top=0;left=0;bottom=0;right=0;" vertex="1" parent="KfJyjTm68fT7vTi74J8v-457">
          <mxGeometry width="30" height="30" as="geometry" />
        </mxCell>
        <mxCell id="KfJyjTm68fT7vTi74J8v-459" value="cupen_id bigint" style="shape=partialRectangle;overflow=hidden;connectable=0;fillColor=none;top=0;left=0;bottom=0;right=0;align=left;spacingLeft=6;" vertex="1" parent="KfJyjTm68fT7vTi74J8v-457">
          <mxGeometry x="30" width="309.9999999999998" height="30" as="geometry" />
        </mxCell>
        <mxCell id="KfJyjTm68fT7vTi74J8v-440" value="" style="shape=partialRectangle;collapsible=0;dropTarget=0;pointerEvents=0;fillColor=none;points=[[0,0.5],[1,0.5]];portConstraint=eastwest;top=0;left=0;right=0;bottom=0;" vertex="1" parent="KfJyjTm68fT7vTi74J8v-423">
          <mxGeometry y="240" width="339.9999999999998" height="30" as="geometry" />
        </mxCell>
        <mxCell id="KfJyjTm68fT7vTi74J8v-441" value="" style="shape=partialRectangle;overflow=hidden;connectable=0;fillColor=none;top=0;left=0;bottom=0;right=0;" vertex="1" parent="KfJyjTm68fT7vTi74J8v-440">
          <mxGeometry width="30" height="30" as="geometry" />
        </mxCell>
        <mxCell id="KfJyjTm68fT7vTi74J8v-442" value="" style="shape=partialRectangle;overflow=hidden;connectable=0;fillColor=none;top=0;left=0;bottom=0;right=0;align=left;spacingLeft=6;" vertex="1" parent="KfJyjTm68fT7vTi74J8v-440">
          <mxGeometry x="30" width="309.9999999999998" height="30" as="geometry" />
        </mxCell>
        <mxCell id="KfJyjTm68fT7vTi74J8v-460" value="" style="shape=partialRectangle;collapsible=0;dropTarget=0;pointerEvents=0;fillColor=none;points=[[0,0.5],[1,0.5]];portConstraint=eastwest;top=0;left=0;right=0;bottom=0;" vertex="1" parent="KfJyjTm68fT7vTi74J8v-423">
          <mxGeometry y="270" width="339.9999999999998" height="30" as="geometry" />
        </mxCell>
        <mxCell id="KfJyjTm68fT7vTi74J8v-461" value="" style="shape=partialRectangle;overflow=hidden;connectable=0;fillColor=none;top=0;left=0;bottom=0;right=0;" vertex="1" parent="KfJyjTm68fT7vTi74J8v-460">
          <mxGeometry width="30" height="30" as="geometry" />
        </mxCell>
        <mxCell id="KfJyjTm68fT7vTi74J8v-462" value="cupon_amt double" style="shape=partialRectangle;overflow=hidden;connectable=0;fillColor=none;top=0;left=0;bottom=0;right=0;align=left;spacingLeft=6;" vertex="1" parent="KfJyjTm68fT7vTi74J8v-460">
          <mxGeometry x="30" width="309.9999999999998" height="30" as="geometry" />
        </mxCell>
        <mxCell id="KfJyjTm68fT7vTi74J8v-454" value="" style="shape=partialRectangle;collapsible=0;dropTarget=0;pointerEvents=0;fillColor=none;points=[[0,0.5],[1,0.5]];portConstraint=eastwest;top=0;left=0;right=0;bottom=0;" vertex="1" parent="KfJyjTm68fT7vTi74J8v-423">
          <mxGeometry y="300" width="339.9999999999998" height="30" as="geometry" />
        </mxCell>
        <mxCell id="KfJyjTm68fT7vTi74J8v-455" value="" style="shape=partialRectangle;overflow=hidden;connectable=0;fillColor=none;top=0;left=0;bottom=0;right=0;" vertex="1" parent="KfJyjTm68fT7vTi74J8v-454">
          <mxGeometry width="30" height="30" as="geometry" />
        </mxCell>
        <mxCell id="KfJyjTm68fT7vTi74J8v-456" value="TA_ID  bigint" style="shape=partialRectangle;overflow=hidden;connectable=0;fillColor=none;top=0;left=0;bottom=0;right=0;align=left;spacingLeft=6;fontStyle=1;container=1;" vertex="1" parent="KfJyjTm68fT7vTi74J8v-454">
          <mxGeometry x="30" width="309.9999999999998" height="30" as="geometry" />
        </mxCell>
        <mxCell id="KfJyjTm68fT7vTi74J8v-476" value="" style="shape=partialRectangle;collapsible=0;dropTarget=0;pointerEvents=0;fillColor=none;points=[[0,0.5],[1,0.5]];portConstraint=eastwest;top=0;left=0;right=0;bottom=0;" vertex="1" parent="KfJyjTm68fT7vTi74J8v-423">
          <mxGeometry y="330" width="339.9999999999998" height="60" as="geometry" />
        </mxCell>
        <mxCell id="KfJyjTm68fT7vTi74J8v-477" value="" style="shape=partialRectangle;overflow=hidden;connectable=0;fillColor=none;top=0;left=0;bottom=0;right=0;" vertex="1" parent="KfJyjTm68fT7vTi74J8v-476">
          <mxGeometry width="30" height="60" as="geometry" />
        </mxCell>
        <mxCell id="KfJyjTm68fT7vTi74J8v-478" value="service_charge  double" style="shape=partialRectangle;overflow=hidden;connectable=0;fillColor=none;top=0;left=0;bottom=0;right=0;align=left;spacingLeft=6;fontStyle=1;container=1;" vertex="1" parent="KfJyjTm68fT7vTi74J8v-476">
          <mxGeometry x="30" width="309.9999999999998" height="60" as="geometry" />
        </mxCell>
        <mxCell id="KfJyjTm68fT7vTi74J8v-463" value="" style="shape=partialRectangle;collapsible=0;dropTarget=0;pointerEvents=0;fillColor=none;points=[[0,0.5],[1,0.5]];portConstraint=eastwest;top=0;left=0;right=0;bottom=0;" vertex="1" parent="KfJyjTm68fT7vTi74J8v-423">
          <mxGeometry y="390" width="339.9999999999998" height="30" as="geometry" />
        </mxCell>
        <mxCell id="KfJyjTm68fT7vTi74J8v-464" value="" style="shape=partialRectangle;overflow=hidden;connectable=0;fillColor=none;top=0;left=0;bottom=0;right=0;" vertex="1" parent="KfJyjTm68fT7vTi74J8v-463">
          <mxGeometry width="30" height="30" as="geometry" />
        </mxCell>
        <mxCell id="KfJyjTm68fT7vTi74J8v-465" value="grand_total  double" style="shape=partialRectangle;overflow=hidden;connectable=0;fillColor=none;top=0;left=0;bottom=0;right=0;align=left;spacingLeft=6;" vertex="1" parent="KfJyjTm68fT7vTi74J8v-463">
          <mxGeometry x="30" width="309.9999999999998" height="30" as="geometry" />
        </mxCell>
        <mxCell id="KfJyjTm68fT7vTi74J8v-443" value="" style="shape=partialRectangle;collapsible=0;dropTarget=0;pointerEvents=0;fillColor=none;points=[[0,0.5],[1,0.5]];portConstraint=eastwest;top=0;left=0;right=0;bottom=0;" vertex="1" parent="KfJyjTm68fT7vTi74J8v-423">
          <mxGeometry y="420" width="339.9999999999998" height="30" as="geometry" />
        </mxCell>
        <mxCell id="KfJyjTm68fT7vTi74J8v-444" value="" style="shape=partialRectangle;overflow=hidden;connectable=0;fillColor=none;top=0;left=0;bottom=0;right=0;" vertex="1" parent="KfJyjTm68fT7vTi74J8v-443">
          <mxGeometry width="30" height="30" as="geometry" />
        </mxCell>
        <mxCell id="KfJyjTm68fT7vTi74J8v-445" value="" style="shape=partialRectangle;overflow=hidden;connectable=0;fillColor=none;top=0;left=0;bottom=0;right=0;align=left;spacingLeft=6;" vertex="1" parent="KfJyjTm68fT7vTi74J8v-443">
          <mxGeometry x="30" width="309.9999999999998" height="30" as="geometry" />
        </mxCell>
        <mxCell id="KfJyjTm68fT7vTi74J8v-466" value="" style="shape=partialRectangle;collapsible=0;dropTarget=0;pointerEvents=0;fillColor=none;points=[[0,0.5],[1,0.5]];portConstraint=eastwest;top=0;left=0;right=0;bottom=0;" vertex="1" parent="KfJyjTm68fT7vTi74J8v-423">
          <mxGeometry y="450" width="339.9999999999998" height="30" as="geometry" />
        </mxCell>
        <mxCell id="KfJyjTm68fT7vTi74J8v-467" value="" style="shape=partialRectangle;overflow=hidden;connectable=0;fillColor=none;top=0;left=0;bottom=0;right=0;" vertex="1" parent="KfJyjTm68fT7vTi74J8v-466">
          <mxGeometry width="30" height="30" as="geometry" />
        </mxCell>
        <mxCell id="KfJyjTm68fT7vTi74J8v-468" value="take_away_type  [int] [0==reserve,1==takeaway]" style="shape=partialRectangle;overflow=hidden;connectable=0;fillColor=none;top=0;left=0;bottom=0;right=0;align=left;spacingLeft=6;" vertex="1" parent="KfJyjTm68fT7vTi74J8v-466">
          <mxGeometry x="30" width="309.9999999999998" height="30" as="geometry" />
        </mxCell>
        <mxCell id="KfJyjTm68fT7vTi74J8v-469" value="" style="shape=partialRectangle;collapsible=0;dropTarget=0;pointerEvents=0;fillColor=none;points=[[0,0.5],[1,0.5]];portConstraint=eastwest;top=0;left=0;right=0;bottom=0;" vertex="1" parent="KfJyjTm68fT7vTi74J8v-423">
          <mxGeometry y="480" width="339.9999999999998" height="30" as="geometry" />
        </mxCell>
        <mxCell id="KfJyjTm68fT7vTi74J8v-470" value="" style="shape=partialRectangle;overflow=hidden;connectable=0;fillColor=none;top=0;left=0;bottom=0;right=0;" vertex="1" parent="KfJyjTm68fT7vTi74J8v-469">
          <mxGeometry width="30" height="30" as="geometry" />
        </mxCell>
        <mxCell id="KfJyjTm68fT7vTi74J8v-471" value="schecdule_time  [datetime]" style="shape=partialRectangle;overflow=hidden;connectable=0;fillColor=none;top=0;left=0;bottom=0;right=0;align=left;spacingLeft=6;" vertex="1" parent="KfJyjTm68fT7vTi74J8v-469">
          <mxGeometry x="30" width="309.9999999999998" height="30" as="geometry" />
        </mxCell>
        <mxCell id="KfJyjTm68fT7vTi74J8v-472" value="" style="shape=partialRectangle;collapsible=0;dropTarget=0;pointerEvents=0;fillColor=none;points=[[0,0.5],[1,0.5]];portConstraint=eastwest;top=0;left=0;right=0;bottom=0;" vertex="1" parent="KfJyjTm68fT7vTi74J8v-423">
          <mxGeometry y="510" width="339.9999999999998" height="30" as="geometry" />
        </mxCell>
        <mxCell id="KfJyjTm68fT7vTi74J8v-473" value="" style="shape=partialRectangle;overflow=hidden;connectable=0;fillColor=none;top=0;left=0;bottom=0;right=0;" vertex="1" parent="KfJyjTm68fT7vTi74J8v-472">
          <mxGeometry width="30" height="30" as="geometry" />
        </mxCell>
        <mxCell id="KfJyjTm68fT7vTi74J8v-474" value="Status [int] [1==active,0==de-active]" style="shape=partialRectangle;overflow=hidden;connectable=0;fillColor=none;top=0;left=0;bottom=0;right=0;align=left;spacingLeft=6;" vertex="1" parent="KfJyjTm68fT7vTi74J8v-472">
          <mxGeometry x="30" width="309.9999999999998" height="30" as="geometry" />
        </mxCell>
        <mxCell id="KfJyjTm68fT7vTi74J8v-593" value="" style="shape=partialRectangle;collapsible=0;dropTarget=0;pointerEvents=0;fillColor=none;points=[[0,0.5],[1,0.5]];portConstraint=eastwest;top=0;left=0;right=0;bottom=0;" vertex="1" parent="KfJyjTm68fT7vTi74J8v-423">
          <mxGeometry y="540" width="339.9999999999998" height="30" as="geometry" />
        </mxCell>
        <mxCell id="KfJyjTm68fT7vTi74J8v-594" value="" style="shape=partialRectangle;overflow=hidden;connectable=0;fillColor=none;top=0;left=0;bottom=0;right=0;" vertex="1" parent="KfJyjTm68fT7vTi74J8v-593">
          <mxGeometry width="30" height="30" as="geometry" />
        </mxCell>
        <mxCell id="KfJyjTm68fT7vTi74J8v-595" value="last_change datetime" style="shape=partialRectangle;overflow=hidden;connectable=0;fillColor=none;top=0;left=0;bottom=0;right=0;align=left;spacingLeft=6;" vertex="1" parent="KfJyjTm68fT7vTi74J8v-593">
          <mxGeometry x="30" width="309.9999999999998" height="30" as="geometry" />
        </mxCell>
        <mxCell id="KfJyjTm68fT7vTi74J8v-446" value="" style="line;strokeWidth=1;rotatable=0;dashed=0;labelPosition=right;align=left;verticalAlign=middle;spacingTop=0;spacingLeft=6;points=[];portConstraint=eastwest;fillColor=none;" vertex="1" parent="1">
          <mxGeometry x="-550" y="1925" width="460" height="10" as="geometry" />
        </mxCell>
        <mxCell id="KfJyjTm68fT7vTi74J8v-447" style="edgeStyle=orthogonalEdgeStyle;rounded=0;orthogonalLoop=1;jettySize=auto;html=1;exitX=1;exitY=0.5;exitDx=0;exitDy=0;" edge="1" parent="1" source="KfJyjTm68fT7vTi74J8v-449">
          <mxGeometry relative="1" as="geometry">
            <mxPoint x="540" y="1930" as="targetPoint" />
          </mxGeometry>
        </mxCell>
        <mxCell id="KfJyjTm68fT7vTi74J8v-448" style="edgeStyle=orthogonalEdgeStyle;rounded=0;orthogonalLoop=1;jettySize=auto;html=1;exitX=0;exitY=0.5;exitDx=0;exitDy=0;entryX=0.995;entryY=0.9;entryDx=0;entryDy=0;entryPerimeter=0;" edge="1" parent="1" source="KfJyjTm68fT7vTi74J8v-449" target="KfJyjTm68fT7vTi74J8v-446">
          <mxGeometry relative="1" as="geometry" />
        </mxCell>
        <mxCell id="KfJyjTm68fT7vTi74J8v-449" value="&lt;span style=&quot;border-bottom: 1px dotted&quot;&gt;customer&lt;/span&gt;" style="ellipse;whiteSpace=wrap;html=1;align=center;fillColor=none;" vertex="1" parent="1">
          <mxGeometry x="-80" y="1910" width="100" height="40" as="geometry" />
        </mxCell>
        <mxCell id="KfJyjTm68fT7vTi74J8v-450" value="" style="edgeStyle=entityRelationEdgeStyle;endArrow=ERzeroToMany;startArrow=ERone;endFill=1;startFill=0;" edge="1" parent="1" source="C-vyLk0tnHw3VtMMgP7b-24" target="KfJyjTm68fT7vTi74J8v-428">
          <mxGeometry width="100" height="100" relative="1" as="geometry">
            <mxPoint x="-140" y="130" as="sourcePoint" />
            <mxPoint x="-160" y="715.0000000000002" as="targetPoint" />
          </mxGeometry>
        </mxCell>
        <mxCell id="KfJyjTm68fT7vTi74J8v-479" style="edgeStyle=orthogonalEdgeStyle;rounded=0;orthogonalLoop=1;jettySize=auto;html=1;exitX=0;exitY=0.5;exitDx=0;exitDy=0;entryX=0;entryY=0.5;entryDx=0;entryDy=0;" edge="1" parent="1" source="KfJyjTm68fT7vTi74J8v-454" target="C-vyLk0tnHw3VtMMgP7b-14">
          <mxGeometry relative="1" as="geometry" />
        </mxCell>
        <mxCell id="KfJyjTm68fT7vTi74J8v-480" value="orders [level=2,3],4" style="shape=table;startSize=40;container=1;collapsible=1;childLayout=tableLayout;fixedRows=1;rowLines=0;fontStyle=1;align=center;resizeLast=1;" vertex="1" parent="1">
          <mxGeometry x="390" y="2040" width="370" height="720" as="geometry" />
        </mxCell>
        <mxCell id="KfJyjTm68fT7vTi74J8v-482" value="" style="shape=partialRectangle;collapsible=0;dropTarget=0;pointerEvents=0;fillColor=none;points=[[0,0.5],[1,0.5]];portConstraint=eastwest;top=0;left=0;right=0;bottom=1;" vertex="1" parent="KfJyjTm68fT7vTi74J8v-480">
          <mxGeometry y="40" width="370" height="30" as="geometry" />
        </mxCell>
        <mxCell id="KfJyjTm68fT7vTi74J8v-483" value="PK" style="shape=partialRectangle;overflow=hidden;connectable=0;fillColor=none;top=0;left=0;bottom=0;right=0;fontStyle=1;" vertex="1" parent="KfJyjTm68fT7vTi74J8v-482">
          <mxGeometry width="40" height="30" as="geometry" />
        </mxCell>
        <mxCell id="KfJyjTm68fT7vTi74J8v-484" value="order_id int NOT NULL " style="shape=partialRectangle;overflow=hidden;connectable=0;fillColor=none;top=0;left=0;bottom=0;right=0;align=left;spacingLeft=6;fontStyle=5;" vertex="1" parent="KfJyjTm68fT7vTi74J8v-482">
          <mxGeometry x="40" width="330" height="30" as="geometry" />
        </mxCell>
        <mxCell id="KfJyjTm68fT7vTi74J8v-485" value="" style="shape=partialRectangle;collapsible=0;dropTarget=0;pointerEvents=0;fillColor=none;points=[[0,0.5],[1,0.5]];portConstraint=eastwest;top=0;left=0;right=0;bottom=0;" vertex="1" parent="KfJyjTm68fT7vTi74J8v-480">
          <mxGeometry y="70" width="370" height="30" as="geometry" />
        </mxCell>
        <mxCell id="KfJyjTm68fT7vTi74J8v-486" value="FK1" style="shape=partialRectangle;overflow=hidden;connectable=0;fillColor=none;top=0;left=0;bottom=0;right=0;" vertex="1" parent="KfJyjTm68fT7vTi74J8v-485">
          <mxGeometry width="40" height="30" as="geometry" />
        </mxCell>
        <mxCell id="KfJyjTm68fT7vTi74J8v-487" value="cart_id bigint NOT NULL" style="shape=partialRectangle;overflow=hidden;connectable=0;fillColor=none;top=0;left=0;bottom=0;right=0;align=left;spacingLeft=6;" vertex="1" parent="KfJyjTm68fT7vTi74J8v-485">
          <mxGeometry x="40" width="330" height="30" as="geometry" />
        </mxCell>
        <mxCell id="KfJyjTm68fT7vTi74J8v-488" value="" style="shape=partialRectangle;collapsible=0;dropTarget=0;pointerEvents=0;fillColor=none;points=[[0,0.5],[1,0.5]];portConstraint=eastwest;top=0;left=0;right=0;bottom=0;" vertex="1" parent="KfJyjTm68fT7vTi74J8v-480">
          <mxGeometry y="100" width="370" height="40" as="geometry" />
        </mxCell>
        <mxCell id="KfJyjTm68fT7vTi74J8v-489" value="" style="shape=partialRectangle;overflow=hidden;connectable=0;fillColor=none;top=0;left=0;bottom=0;right=0;" vertex="1" parent="KfJyjTm68fT7vTi74J8v-488">
          <mxGeometry width="40" height="40" as="geometry" />
        </mxCell>
        <mxCell id="KfJyjTm68fT7vTi74J8v-490" value="added_on [date]" style="shape=partialRectangle;overflow=hidden;connectable=0;fillColor=none;top=0;left=0;bottom=0;right=0;align=left;spacingLeft=6;" vertex="1" parent="KfJyjTm68fT7vTi74J8v-488">
          <mxGeometry x="40" width="330" height="40" as="geometry" />
        </mxCell>
        <mxCell id="KfJyjTm68fT7vTi74J8v-491" value="" style="shape=partialRectangle;collapsible=0;dropTarget=0;pointerEvents=0;fillColor=none;points=[[0,0.5],[1,0.5]];portConstraint=eastwest;top=0;left=0;right=0;bottom=0;" vertex="1" parent="KfJyjTm68fT7vTi74J8v-480">
          <mxGeometry y="140" width="370" height="40" as="geometry" />
        </mxCell>
        <mxCell id="KfJyjTm68fT7vTi74J8v-492" value="" style="shape=partialRectangle;overflow=hidden;connectable=0;fillColor=none;top=0;left=0;bottom=0;right=0;" vertex="1" parent="KfJyjTm68fT7vTi74J8v-491">
          <mxGeometry width="40" height="40" as="geometry" />
        </mxCell>
        <mxCell id="KfJyjTm68fT7vTi74J8v-493" value="Total_price double" style="shape=partialRectangle;overflow=hidden;connectable=0;fillColor=none;top=0;left=0;bottom=0;right=0;align=left;spacingLeft=6;" vertex="1" parent="KfJyjTm68fT7vTi74J8v-491">
          <mxGeometry x="40" width="330" height="40" as="geometry" />
        </mxCell>
        <mxCell id="KfJyjTm68fT7vTi74J8v-494" value="" style="shape=partialRectangle;collapsible=0;dropTarget=0;pointerEvents=0;fillColor=none;points=[[0,0.5],[1,0.5]];portConstraint=eastwest;top=0;left=0;right=0;bottom=0;" vertex="1" parent="KfJyjTm68fT7vTi74J8v-480">
          <mxGeometry y="180" width="370" height="30" as="geometry" />
        </mxCell>
        <mxCell id="KfJyjTm68fT7vTi74J8v-495" value="" style="shape=partialRectangle;overflow=hidden;connectable=0;fillColor=none;top=0;left=0;bottom=0;right=0;" vertex="1" parent="KfJyjTm68fT7vTi74J8v-494">
          <mxGeometry width="40" height="30" as="geometry" />
        </mxCell>
        <mxCell id="KfJyjTm68fT7vTi74J8v-496" value="" style="shape=partialRectangle;overflow=hidden;connectable=0;fillColor=none;top=0;left=0;bottom=0;right=0;align=left;spacingLeft=6;" vertex="1" parent="KfJyjTm68fT7vTi74J8v-494">
          <mxGeometry x="40" width="330" height="30" as="geometry" />
        </mxCell>
        <mxCell id="KfJyjTm68fT7vTi74J8v-497" value="" style="shape=partialRectangle;collapsible=0;dropTarget=0;pointerEvents=0;fillColor=none;points=[[0,0.5],[1,0.5]];portConstraint=eastwest;top=0;left=0;right=0;bottom=0;" vertex="1" parent="KfJyjTm68fT7vTi74J8v-480">
          <mxGeometry y="210" width="370" height="30" as="geometry" />
        </mxCell>
        <mxCell id="KfJyjTm68fT7vTi74J8v-498" value="" style="shape=partialRectangle;overflow=hidden;connectable=0;fillColor=none;top=0;left=0;bottom=0;right=0;" vertex="1" parent="KfJyjTm68fT7vTi74J8v-497">
          <mxGeometry width="40" height="30" as="geometry" />
        </mxCell>
        <mxCell id="KfJyjTm68fT7vTi74J8v-499" value="cupen_id bigint" style="shape=partialRectangle;overflow=hidden;connectable=0;fillColor=none;top=0;left=0;bottom=0;right=0;align=left;spacingLeft=6;" vertex="1" parent="KfJyjTm68fT7vTi74J8v-497">
          <mxGeometry x="40" width="330" height="30" as="geometry" />
        </mxCell>
        <mxCell id="KfJyjTm68fT7vTi74J8v-500" value="" style="shape=partialRectangle;collapsible=0;dropTarget=0;pointerEvents=0;fillColor=none;points=[[0,0.5],[1,0.5]];portConstraint=eastwest;top=0;left=0;right=0;bottom=0;" vertex="1" parent="KfJyjTm68fT7vTi74J8v-480">
          <mxGeometry y="240" width="370" height="30" as="geometry" />
        </mxCell>
        <mxCell id="KfJyjTm68fT7vTi74J8v-501" value="" style="shape=partialRectangle;overflow=hidden;connectable=0;fillColor=none;top=0;left=0;bottom=0;right=0;" vertex="1" parent="KfJyjTm68fT7vTi74J8v-500">
          <mxGeometry width="40" height="30" as="geometry" />
        </mxCell>
        <mxCell id="KfJyjTm68fT7vTi74J8v-502" value="" style="shape=partialRectangle;overflow=hidden;connectable=0;fillColor=none;top=0;left=0;bottom=0;right=0;align=left;spacingLeft=6;" vertex="1" parent="KfJyjTm68fT7vTi74J8v-500">
          <mxGeometry x="40" width="330" height="30" as="geometry" />
        </mxCell>
        <mxCell id="KfJyjTm68fT7vTi74J8v-503" value="" style="shape=partialRectangle;collapsible=0;dropTarget=0;pointerEvents=0;fillColor=none;points=[[0,0.5],[1,0.5]];portConstraint=eastwest;top=0;left=0;right=0;bottom=0;" vertex="1" parent="KfJyjTm68fT7vTi74J8v-480">
          <mxGeometry y="270" width="370" height="30" as="geometry" />
        </mxCell>
        <mxCell id="KfJyjTm68fT7vTi74J8v-504" value="" style="shape=partialRectangle;overflow=hidden;connectable=0;fillColor=none;top=0;left=0;bottom=0;right=0;" vertex="1" parent="KfJyjTm68fT7vTi74J8v-503">
          <mxGeometry width="40" height="30" as="geometry" />
        </mxCell>
        <mxCell id="KfJyjTm68fT7vTi74J8v-505" value="cupon_amt double" style="shape=partialRectangle;overflow=hidden;connectable=0;fillColor=none;top=0;left=0;bottom=0;right=0;align=left;spacingLeft=6;" vertex="1" parent="KfJyjTm68fT7vTi74J8v-503">
          <mxGeometry x="40" width="330" height="30" as="geometry" />
        </mxCell>
        <mxCell id="KfJyjTm68fT7vTi74J8v-506" value="" style="shape=partialRectangle;collapsible=0;dropTarget=0;pointerEvents=0;fillColor=none;points=[[0,0.5],[1,0.5]];portConstraint=eastwest;top=0;left=0;right=0;bottom=0;" vertex="1" parent="KfJyjTm68fT7vTi74J8v-480">
          <mxGeometry y="300" width="370" height="30" as="geometry" />
        </mxCell>
        <mxCell id="KfJyjTm68fT7vTi74J8v-507" value="" style="shape=partialRectangle;overflow=hidden;connectable=0;fillColor=none;top=0;left=0;bottom=0;right=0;" vertex="1" parent="KfJyjTm68fT7vTi74J8v-506">
          <mxGeometry width="40" height="30" as="geometry" />
        </mxCell>
        <mxCell id="KfJyjTm68fT7vTi74J8v-508" value="TA_ID  bigint" style="shape=partialRectangle;overflow=hidden;connectable=0;fillColor=none;top=0;left=0;bottom=0;right=0;align=left;spacingLeft=6;fontStyle=1;container=1;" vertex="1" parent="KfJyjTm68fT7vTi74J8v-506">
          <mxGeometry x="40" width="330" height="30" as="geometry" />
        </mxCell>
        <mxCell id="KfJyjTm68fT7vTi74J8v-509" value="" style="shape=partialRectangle;collapsible=0;dropTarget=0;pointerEvents=0;fillColor=none;points=[[0,0.5],[1,0.5]];portConstraint=eastwest;top=0;left=0;right=0;bottom=0;" vertex="1" parent="KfJyjTm68fT7vTi74J8v-480">
          <mxGeometry y="330" width="370" height="60" as="geometry" />
        </mxCell>
        <mxCell id="KfJyjTm68fT7vTi74J8v-510" value="" style="shape=partialRectangle;overflow=hidden;connectable=0;fillColor=none;top=0;left=0;bottom=0;right=0;" vertex="1" parent="KfJyjTm68fT7vTi74J8v-509">
          <mxGeometry width="40" height="60" as="geometry" />
        </mxCell>
        <mxCell id="KfJyjTm68fT7vTi74J8v-511" value="service_charge  double" style="shape=partialRectangle;overflow=hidden;connectable=0;fillColor=none;top=0;left=0;bottom=0;right=0;align=left;spacingLeft=6;fontStyle=1;container=1;" vertex="1" parent="KfJyjTm68fT7vTi74J8v-509">
          <mxGeometry x="40" width="330" height="60" as="geometry" />
        </mxCell>
        <mxCell id="KfJyjTm68fT7vTi74J8v-512" value="" style="shape=partialRectangle;collapsible=0;dropTarget=0;pointerEvents=0;fillColor=none;points=[[0,0.5],[1,0.5]];portConstraint=eastwest;top=0;left=0;right=0;bottom=0;" vertex="1" parent="KfJyjTm68fT7vTi74J8v-480">
          <mxGeometry y="390" width="370" height="30" as="geometry" />
        </mxCell>
        <mxCell id="KfJyjTm68fT7vTi74J8v-513" value="" style="shape=partialRectangle;overflow=hidden;connectable=0;fillColor=none;top=0;left=0;bottom=0;right=0;" vertex="1" parent="KfJyjTm68fT7vTi74J8v-512">
          <mxGeometry width="40" height="30" as="geometry" />
        </mxCell>
        <mxCell id="KfJyjTm68fT7vTi74J8v-514" value="grand_total  double" style="shape=partialRectangle;overflow=hidden;connectable=0;fillColor=none;top=0;left=0;bottom=0;right=0;align=left;spacingLeft=6;" vertex="1" parent="KfJyjTm68fT7vTi74J8v-512">
          <mxGeometry x="40" width="330" height="30" as="geometry" />
        </mxCell>
        <mxCell id="KfJyjTm68fT7vTi74J8v-515" value="" style="shape=partialRectangle;collapsible=0;dropTarget=0;pointerEvents=0;fillColor=none;points=[[0,0.5],[1,0.5]];portConstraint=eastwest;top=0;left=0;right=0;bottom=0;" vertex="1" parent="KfJyjTm68fT7vTi74J8v-480">
          <mxGeometry y="420" width="370" height="30" as="geometry" />
        </mxCell>
        <mxCell id="KfJyjTm68fT7vTi74J8v-516" value="" style="shape=partialRectangle;overflow=hidden;connectable=0;fillColor=none;top=0;left=0;bottom=0;right=0;" vertex="1" parent="KfJyjTm68fT7vTi74J8v-515">
          <mxGeometry width="40" height="30" as="geometry" />
        </mxCell>
        <mxCell id="KfJyjTm68fT7vTi74J8v-517" value="" style="shape=partialRectangle;overflow=hidden;connectable=0;fillColor=none;top=0;left=0;bottom=0;right=0;align=left;spacingLeft=6;" vertex="1" parent="KfJyjTm68fT7vTi74J8v-515">
          <mxGeometry x="40" width="330" height="30" as="geometry" />
        </mxCell>
        <mxCell id="KfJyjTm68fT7vTi74J8v-518" value="" style="shape=partialRectangle;collapsible=0;dropTarget=0;pointerEvents=0;fillColor=none;points=[[0,0.5],[1,0.5]];portConstraint=eastwest;top=0;left=0;right=0;bottom=0;" vertex="1" parent="KfJyjTm68fT7vTi74J8v-480">
          <mxGeometry y="450" width="370" height="30" as="geometry" />
        </mxCell>
        <mxCell id="KfJyjTm68fT7vTi74J8v-519" value="" style="shape=partialRectangle;overflow=hidden;connectable=0;fillColor=none;top=0;left=0;bottom=0;right=0;" vertex="1" parent="KfJyjTm68fT7vTi74J8v-518">
          <mxGeometry width="40" height="30" as="geometry" />
        </mxCell>
        <mxCell id="KfJyjTm68fT7vTi74J8v-520" value="take_away_type  [int] [0==reserve,1==takeaway]" style="shape=partialRectangle;overflow=hidden;connectable=0;fillColor=none;top=0;left=0;bottom=0;right=0;align=left;spacingLeft=6;" vertex="1" parent="KfJyjTm68fT7vTi74J8v-518">
          <mxGeometry x="40" width="330" height="30" as="geometry" />
        </mxCell>
        <mxCell id="KfJyjTm68fT7vTi74J8v-521" value="" style="shape=partialRectangle;collapsible=0;dropTarget=0;pointerEvents=0;fillColor=none;points=[[0,0.5],[1,0.5]];portConstraint=eastwest;top=0;left=0;right=0;bottom=0;" vertex="1" parent="KfJyjTm68fT7vTi74J8v-480">
          <mxGeometry y="480" width="370" height="30" as="geometry" />
        </mxCell>
        <mxCell id="KfJyjTm68fT7vTi74J8v-522" value="" style="shape=partialRectangle;overflow=hidden;connectable=0;fillColor=none;top=0;left=0;bottom=0;right=0;" vertex="1" parent="KfJyjTm68fT7vTi74J8v-521">
          <mxGeometry width="40" height="30" as="geometry" />
        </mxCell>
        <mxCell id="KfJyjTm68fT7vTi74J8v-523" value="schecdule_time  [datetime]" style="shape=partialRectangle;overflow=hidden;connectable=0;fillColor=none;top=0;left=0;bottom=0;right=0;align=left;spacingLeft=6;" vertex="1" parent="KfJyjTm68fT7vTi74J8v-521">
          <mxGeometry x="40" width="330" height="30" as="geometry" />
        </mxCell>
        <mxCell id="KfJyjTm68fT7vTi74J8v-524" value="" style="shape=partialRectangle;collapsible=0;dropTarget=0;pointerEvents=0;fillColor=none;points=[[0,0.5],[1,0.5]];portConstraint=eastwest;top=0;left=0;right=0;bottom=0;" vertex="1" parent="KfJyjTm68fT7vTi74J8v-480">
          <mxGeometry y="510" width="370" height="30" as="geometry" />
        </mxCell>
        <mxCell id="KfJyjTm68fT7vTi74J8v-525" value="" style="shape=partialRectangle;overflow=hidden;connectable=0;fillColor=none;top=0;left=0;bottom=0;right=0;" vertex="1" parent="KfJyjTm68fT7vTi74J8v-524">
          <mxGeometry width="40" height="30" as="geometry" />
        </mxCell>
        <mxCell id="KfJyjTm68fT7vTi74J8v-526" value="status  text [placed,accept,preparing food,ready ,hand over,&#xa;cancelled]" style="shape=partialRectangle;overflow=hidden;connectable=0;fillColor=none;top=0;left=0;bottom=0;right=0;align=left;spacingLeft=6;" vertex="1" parent="KfJyjTm68fT7vTi74J8v-524">
          <mxGeometry x="40" width="330" height="30" as="geometry" />
        </mxCell>
        <mxCell id="KfJyjTm68fT7vTi74J8v-577" value="" style="shape=partialRectangle;collapsible=0;dropTarget=0;pointerEvents=0;fillColor=none;points=[[0,0.5],[1,0.5]];portConstraint=eastwest;top=0;left=0;right=0;bottom=0;" vertex="1" parent="KfJyjTm68fT7vTi74J8v-480">
          <mxGeometry y="540" width="370" height="30" as="geometry" />
        </mxCell>
        <mxCell id="KfJyjTm68fT7vTi74J8v-578" value="" style="shape=partialRectangle;overflow=hidden;connectable=0;fillColor=none;top=0;left=0;bottom=0;right=0;" vertex="1" parent="KfJyjTm68fT7vTi74J8v-577">
          <mxGeometry width="40" height="30" as="geometry" />
        </mxCell>
        <mxCell id="KfJyjTm68fT7vTi74J8v-579" value="order_otp   int " style="shape=partialRectangle;overflow=hidden;connectable=0;fillColor=none;top=0;left=0;bottom=0;right=0;align=left;spacingLeft=6;" vertex="1" parent="KfJyjTm68fT7vTi74J8v-577">
          <mxGeometry x="40" width="330" height="30" as="geometry" />
        </mxCell>
        <mxCell id="KfJyjTm68fT7vTi74J8v-580" value="" style="shape=partialRectangle;collapsible=0;dropTarget=0;pointerEvents=0;fillColor=none;points=[[0,0.5],[1,0.5]];portConstraint=eastwest;top=0;left=0;right=0;bottom=0;" vertex="1" parent="KfJyjTm68fT7vTi74J8v-480">
          <mxGeometry y="570" width="370" height="30" as="geometry" />
        </mxCell>
        <mxCell id="KfJyjTm68fT7vTi74J8v-581" value="" style="shape=partialRectangle;overflow=hidden;connectable=0;fillColor=none;top=0;left=0;bottom=0;right=0;" vertex="1" parent="KfJyjTm68fT7vTi74J8v-580">
          <mxGeometry width="40" height="30" as="geometry" />
        </mxCell>
        <mxCell id="KfJyjTm68fT7vTi74J8v-582" value="order_id   bigint" style="shape=partialRectangle;overflow=hidden;connectable=0;fillColor=none;top=0;left=0;bottom=0;right=0;align=left;spacingLeft=6;" vertex="1" parent="KfJyjTm68fT7vTi74J8v-580">
          <mxGeometry x="40" width="330" height="30" as="geometry" />
        </mxCell>
        <mxCell id="KfJyjTm68fT7vTi74J8v-583" value="" style="shape=partialRectangle;collapsible=0;dropTarget=0;pointerEvents=0;fillColor=none;points=[[0,0.5],[1,0.5]];portConstraint=eastwest;top=0;left=0;right=0;bottom=0;" vertex="1" parent="KfJyjTm68fT7vTi74J8v-480">
          <mxGeometry y="600" width="370" height="40" as="geometry" />
        </mxCell>
        <mxCell id="KfJyjTm68fT7vTi74J8v-584" value="" style="shape=partialRectangle;overflow=hidden;connectable=0;fillColor=none;top=0;left=0;bottom=0;right=0;" vertex="1" parent="KfJyjTm68fT7vTi74J8v-583">
          <mxGeometry width="40" height="40" as="geometry" />
        </mxCell>
        <mxCell id="KfJyjTm68fT7vTi74J8v-585" value="payment_status text[paid,refund]" style="shape=partialRectangle;overflow=hidden;connectable=0;fillColor=none;top=0;left=0;bottom=0;right=0;align=left;spacingLeft=6;" vertex="1" parent="KfJyjTm68fT7vTi74J8v-583">
          <mxGeometry x="40" width="330" height="40" as="geometry" />
        </mxCell>
        <mxCell id="KfJyjTm68fT7vTi74J8v-587" value="" style="shape=partialRectangle;collapsible=0;dropTarget=0;pointerEvents=0;fillColor=none;points=[[0,0.5],[1,0.5]];portConstraint=eastwest;top=0;left=0;right=0;bottom=0;" vertex="1" parent="KfJyjTm68fT7vTi74J8v-480">
          <mxGeometry y="640" width="370" height="20" as="geometry" />
        </mxCell>
        <mxCell id="KfJyjTm68fT7vTi74J8v-588" value="" style="shape=partialRectangle;overflow=hidden;connectable=0;fillColor=none;top=0;left=0;bottom=0;right=0;" vertex="1" parent="KfJyjTm68fT7vTi74J8v-587">
          <mxGeometry width="40" height="20" as="geometry" />
        </mxCell>
        <mxCell id="KfJyjTm68fT7vTi74J8v-589" value="utr_txn text" style="shape=partialRectangle;overflow=hidden;connectable=0;fillColor=none;top=0;left=0;bottom=0;right=0;align=left;spacingLeft=6;" vertex="1" parent="KfJyjTm68fT7vTi74J8v-587">
          <mxGeometry x="40" width="330" height="20" as="geometry" />
        </mxCell>
        <mxCell id="KfJyjTm68fT7vTi74J8v-590" value="" style="shape=partialRectangle;collapsible=0;dropTarget=0;pointerEvents=0;fillColor=none;points=[[0,0.5],[1,0.5]];portConstraint=eastwest;top=0;left=0;right=0;bottom=0;" vertex="1" parent="KfJyjTm68fT7vTi74J8v-480">
          <mxGeometry y="660" width="370" height="30" as="geometry" />
        </mxCell>
        <mxCell id="KfJyjTm68fT7vTi74J8v-591" value="" style="shape=partialRectangle;overflow=hidden;connectable=0;fillColor=none;top=0;left=0;bottom=0;right=0;" vertex="1" parent="KfJyjTm68fT7vTi74J8v-590">
          <mxGeometry width="40" height="30" as="geometry" />
        </mxCell>
        <mxCell id="KfJyjTm68fT7vTi74J8v-592" value="repaid txnid text" style="shape=partialRectangle;overflow=hidden;connectable=0;fillColor=none;top=0;left=0;bottom=0;right=0;align=left;spacingLeft=6;" vertex="1" parent="KfJyjTm68fT7vTi74J8v-590">
          <mxGeometry x="40" width="330" height="30" as="geometry" />
        </mxCell>
        <mxCell id="KfJyjTm68fT7vTi74J8v-646" value="" style="shape=partialRectangle;collapsible=0;dropTarget=0;pointerEvents=0;fillColor=none;points=[[0,0.5],[1,0.5]];portConstraint=eastwest;top=0;left=0;right=0;bottom=0;" vertex="1" parent="KfJyjTm68fT7vTi74J8v-480">
          <mxGeometry y="690" width="370" height="30" as="geometry" />
        </mxCell>
        <mxCell id="KfJyjTm68fT7vTi74J8v-647" value="" style="shape=partialRectangle;overflow=hidden;connectable=0;fillColor=none;top=0;left=0;bottom=0;right=0;" vertex="1" parent="KfJyjTm68fT7vTi74J8v-646">
          <mxGeometry width="40" height="30" as="geometry" />
        </mxCell>
        <mxCell id="KfJyjTm68fT7vTi74J8v-648" value="last_change datetime" style="shape=partialRectangle;overflow=hidden;connectable=0;fillColor=none;top=0;left=0;bottom=0;right=0;align=left;spacingLeft=6;" vertex="1" parent="KfJyjTm68fT7vTi74J8v-646">
          <mxGeometry x="40" width="330" height="30" as="geometry" />
        </mxCell>
        <mxCell id="KfJyjTm68fT7vTi74J8v-527" value="cart_item [level=4]" style="shape=table;startSize=40;container=1;collapsible=1;childLayout=tableLayout;fixedRows=1;rowLines=0;fontStyle=1;align=center;resizeLast=1;" vertex="1" parent="1">
          <mxGeometry x="-65" y="2150" width="340" height="520" as="geometry" />
        </mxCell>
        <mxCell id="KfJyjTm68fT7vTi74J8v-528" value="" style="shape=partialRectangle;collapsible=0;dropTarget=0;pointerEvents=0;fillColor=none;points=[[0,0.5],[1,0.5]];portConstraint=eastwest;top=0;left=0;right=0;bottom=1;" vertex="1" parent="KfJyjTm68fT7vTi74J8v-527">
          <mxGeometry y="40" width="340" height="30" as="geometry" />
        </mxCell>
        <mxCell id="KfJyjTm68fT7vTi74J8v-529" value="PK" style="shape=partialRectangle;overflow=hidden;connectable=0;fillColor=none;top=0;left=0;bottom=0;right=0;fontStyle=1;" vertex="1" parent="KfJyjTm68fT7vTi74J8v-528">
          <mxGeometry width="30" height="30" as="geometry" />
        </mxCell>
        <mxCell id="KfJyjTm68fT7vTi74J8v-530" value="cartitem_id int NOT NULL " style="shape=partialRectangle;overflow=hidden;connectable=0;fillColor=none;top=0;left=0;bottom=0;right=0;align=left;spacingLeft=6;fontStyle=5;" vertex="1" parent="KfJyjTm68fT7vTi74J8v-528">
          <mxGeometry x="30" width="310" height="30" as="geometry" />
        </mxCell>
        <mxCell id="KfJyjTm68fT7vTi74J8v-531" value="" style="shape=partialRectangle;collapsible=0;dropTarget=0;pointerEvents=0;fillColor=none;points=[[0,0.5],[1,0.5]];portConstraint=eastwest;top=0;left=0;right=0;bottom=0;" vertex="1" parent="KfJyjTm68fT7vTi74J8v-527">
          <mxGeometry y="70" width="340" height="30" as="geometry" />
        </mxCell>
        <mxCell id="KfJyjTm68fT7vTi74J8v-532" value="FK1" style="shape=partialRectangle;overflow=hidden;connectable=0;fillColor=none;top=0;left=0;bottom=0;right=0;" vertex="1" parent="KfJyjTm68fT7vTi74J8v-531">
          <mxGeometry width="30" height="30" as="geometry" />
        </mxCell>
        <mxCell id="KfJyjTm68fT7vTi74J8v-533" value="card_id bigint NOT NULL" style="shape=partialRectangle;overflow=hidden;connectable=0;fillColor=none;top=0;left=0;bottom=0;right=0;align=left;spacingLeft=6;" vertex="1" parent="KfJyjTm68fT7vTi74J8v-531">
          <mxGeometry x="30" width="310" height="30" as="geometry" />
        </mxCell>
        <mxCell id="KfJyjTm68fT7vTi74J8v-534" value="" style="shape=partialRectangle;collapsible=0;dropTarget=0;pointerEvents=0;fillColor=none;points=[[0,0.5],[1,0.5]];portConstraint=eastwest;top=0;left=0;right=0;bottom=0;" vertex="1" parent="KfJyjTm68fT7vTi74J8v-527">
          <mxGeometry y="100" width="340" height="40" as="geometry" />
        </mxCell>
        <mxCell id="KfJyjTm68fT7vTi74J8v-535" value="" style="shape=partialRectangle;overflow=hidden;connectable=0;fillColor=none;top=0;left=0;bottom=0;right=0;" vertex="1" parent="KfJyjTm68fT7vTi74J8v-534">
          <mxGeometry width="30" height="40" as="geometry" />
        </mxCell>
        <mxCell id="KfJyjTm68fT7vTi74J8v-536" value="added_on [date]" style="shape=partialRectangle;overflow=hidden;connectable=0;fillColor=none;top=0;left=0;bottom=0;right=0;align=left;spacingLeft=6;" vertex="1" parent="KfJyjTm68fT7vTi74J8v-534">
          <mxGeometry x="30" width="310" height="40" as="geometry" />
        </mxCell>
        <mxCell id="KfJyjTm68fT7vTi74J8v-537" value="" style="shape=partialRectangle;collapsible=0;dropTarget=0;pointerEvents=0;fillColor=none;points=[[0,0.5],[1,0.5]];portConstraint=eastwest;top=0;left=0;right=0;bottom=0;" vertex="1" parent="KfJyjTm68fT7vTi74J8v-527">
          <mxGeometry y="140" width="340" height="40" as="geometry" />
        </mxCell>
        <mxCell id="KfJyjTm68fT7vTi74J8v-538" value="" style="shape=partialRectangle;overflow=hidden;connectable=0;fillColor=none;top=0;left=0;bottom=0;right=0;" vertex="1" parent="KfJyjTm68fT7vTi74J8v-537">
          <mxGeometry width="30" height="40" as="geometry" />
        </mxCell>
        <mxCell id="KfJyjTm68fT7vTi74J8v-539" value="item_id bigint" style="shape=partialRectangle;overflow=hidden;connectable=0;fillColor=none;top=0;left=0;bottom=0;right=0;align=left;spacingLeft=6;" vertex="1" parent="KfJyjTm68fT7vTi74J8v-537">
          <mxGeometry x="30" width="310" height="40" as="geometry" />
        </mxCell>
        <mxCell id="KfJyjTm68fT7vTi74J8v-540" value="" style="shape=partialRectangle;collapsible=0;dropTarget=0;pointerEvents=0;fillColor=none;points=[[0,0.5],[1,0.5]];portConstraint=eastwest;top=0;left=0;right=0;bottom=0;" vertex="1" parent="KfJyjTm68fT7vTi74J8v-527">
          <mxGeometry y="180" width="340" height="30" as="geometry" />
        </mxCell>
        <mxCell id="KfJyjTm68fT7vTi74J8v-541" value="" style="shape=partialRectangle;overflow=hidden;connectable=0;fillColor=none;top=0;left=0;bottom=0;right=0;" vertex="1" parent="KfJyjTm68fT7vTi74J8v-540">
          <mxGeometry width="30" height="30" as="geometry" />
        </mxCell>
        <mxCell id="KfJyjTm68fT7vTi74J8v-542" value="" style="shape=partialRectangle;overflow=hidden;connectable=0;fillColor=none;top=0;left=0;bottom=0;right=0;align=left;spacingLeft=6;" vertex="1" parent="KfJyjTm68fT7vTi74J8v-540">
          <mxGeometry x="30" width="310" height="30" as="geometry" />
        </mxCell>
        <mxCell id="KfJyjTm68fT7vTi74J8v-543" value="" style="shape=partialRectangle;collapsible=0;dropTarget=0;pointerEvents=0;fillColor=none;points=[[0,0.5],[1,0.5]];portConstraint=eastwest;top=0;left=0;right=0;bottom=0;" vertex="1" parent="KfJyjTm68fT7vTi74J8v-527">
          <mxGeometry y="210" width="340" height="30" as="geometry" />
        </mxCell>
        <mxCell id="KfJyjTm68fT7vTi74J8v-544" value="" style="shape=partialRectangle;overflow=hidden;connectable=0;fillColor=none;top=0;left=0;bottom=0;right=0;" vertex="1" parent="KfJyjTm68fT7vTi74J8v-543">
          <mxGeometry width="30" height="30" as="geometry" />
        </mxCell>
        <mxCell id="KfJyjTm68fT7vTi74J8v-545" value="qty double" style="shape=partialRectangle;overflow=hidden;connectable=0;fillColor=none;top=0;left=0;bottom=0;right=0;align=left;spacingLeft=6;" vertex="1" parent="KfJyjTm68fT7vTi74J8v-543">
          <mxGeometry x="30" width="310" height="30" as="geometry" />
        </mxCell>
        <mxCell id="KfJyjTm68fT7vTi74J8v-546" value="" style="shape=partialRectangle;collapsible=0;dropTarget=0;pointerEvents=0;fillColor=none;points=[[0,0.5],[1,0.5]];portConstraint=eastwest;top=0;left=0;right=0;bottom=0;" vertex="1" parent="KfJyjTm68fT7vTi74J8v-527">
          <mxGeometry y="240" width="340" height="30" as="geometry" />
        </mxCell>
        <mxCell id="KfJyjTm68fT7vTi74J8v-547" value="" style="shape=partialRectangle;overflow=hidden;connectable=0;fillColor=none;top=0;left=0;bottom=0;right=0;" vertex="1" parent="KfJyjTm68fT7vTi74J8v-546">
          <mxGeometry width="30" height="30" as="geometry" />
        </mxCell>
        <mxCell id="KfJyjTm68fT7vTi74J8v-548" value="" style="shape=partialRectangle;overflow=hidden;connectable=0;fillColor=none;top=0;left=0;bottom=0;right=0;align=left;spacingLeft=6;" vertex="1" parent="KfJyjTm68fT7vTi74J8v-546">
          <mxGeometry x="30" width="310" height="30" as="geometry" />
        </mxCell>
        <mxCell id="KfJyjTm68fT7vTi74J8v-549" value="" style="shape=partialRectangle;collapsible=0;dropTarget=0;pointerEvents=0;fillColor=none;points=[[0,0.5],[1,0.5]];portConstraint=eastwest;top=0;left=0;right=0;bottom=0;" vertex="1" parent="KfJyjTm68fT7vTi74J8v-527">
          <mxGeometry y="270" width="340" height="30" as="geometry" />
        </mxCell>
        <mxCell id="KfJyjTm68fT7vTi74J8v-550" value="" style="shape=partialRectangle;overflow=hidden;connectable=0;fillColor=none;top=0;left=0;bottom=0;right=0;" vertex="1" parent="KfJyjTm68fT7vTi74J8v-549">
          <mxGeometry width="30" height="30" as="geometry" />
        </mxCell>
        <mxCell id="KfJyjTm68fT7vTi74J8v-551" value="" style="shape=partialRectangle;overflow=hidden;connectable=0;fillColor=none;top=0;left=0;bottom=0;right=0;align=left;spacingLeft=6;" vertex="1" parent="KfJyjTm68fT7vTi74J8v-549">
          <mxGeometry x="30" width="310" height="30" as="geometry" />
        </mxCell>
        <mxCell id="KfJyjTm68fT7vTi74J8v-552" value="" style="shape=partialRectangle;collapsible=0;dropTarget=0;pointerEvents=0;fillColor=none;points=[[0,0.5],[1,0.5]];portConstraint=eastwest;top=0;left=0;right=0;bottom=0;" vertex="1" parent="KfJyjTm68fT7vTi74J8v-527">
          <mxGeometry y="300" width="340" height="30" as="geometry" />
        </mxCell>
        <mxCell id="KfJyjTm68fT7vTi74J8v-553" value="" style="shape=partialRectangle;overflow=hidden;connectable=0;fillColor=none;top=0;left=0;bottom=0;right=0;" vertex="1" parent="KfJyjTm68fT7vTi74J8v-552">
          <mxGeometry width="30" height="30" as="geometry" />
        </mxCell>
        <mxCell id="KfJyjTm68fT7vTi74J8v-554" value="amount   double" style="shape=partialRectangle;overflow=hidden;connectable=0;fillColor=none;top=0;left=0;bottom=0;right=0;align=left;spacingLeft=6;fontStyle=1;container=1;" vertex="1" parent="KfJyjTm68fT7vTi74J8v-552">
          <mxGeometry x="30" width="310" height="30" as="geometry" />
        </mxCell>
        <mxCell id="KfJyjTm68fT7vTi74J8v-555" value="" style="shape=partialRectangle;collapsible=0;dropTarget=0;pointerEvents=0;fillColor=none;points=[[0,0.5],[1,0.5]];portConstraint=eastwest;top=0;left=0;right=0;bottom=0;" vertex="1" parent="KfJyjTm68fT7vTi74J8v-527">
          <mxGeometry y="330" width="340" height="60" as="geometry" />
        </mxCell>
        <mxCell id="KfJyjTm68fT7vTi74J8v-556" value="" style="shape=partialRectangle;overflow=hidden;connectable=0;fillColor=none;top=0;left=0;bottom=0;right=0;" vertex="1" parent="KfJyjTm68fT7vTi74J8v-555">
          <mxGeometry width="30" height="60" as="geometry" />
        </mxCell>
        <mxCell id="KfJyjTm68fT7vTi74J8v-557" value="totalamount  double" style="shape=partialRectangle;overflow=hidden;connectable=0;fillColor=none;top=0;left=0;bottom=0;right=0;align=left;spacingLeft=6;fontStyle=1;container=1;" vertex="1" parent="KfJyjTm68fT7vTi74J8v-555">
          <mxGeometry x="30" width="310" height="60" as="geometry" />
        </mxCell>
        <mxCell id="KfJyjTm68fT7vTi74J8v-570" value="" style="shape=partialRectangle;collapsible=0;dropTarget=0;pointerEvents=0;fillColor=none;points=[[0,0.5],[1,0.5]];portConstraint=eastwest;top=0;left=0;right=0;bottom=0;" vertex="1" parent="KfJyjTm68fT7vTi74J8v-527">
          <mxGeometry y="390" width="340" height="30" as="geometry" />
        </mxCell>
        <mxCell id="KfJyjTm68fT7vTi74J8v-571" value="" style="shape=partialRectangle;overflow=hidden;connectable=0;fillColor=none;top=0;left=0;bottom=0;right=0;" vertex="1" parent="KfJyjTm68fT7vTi74J8v-570">
          <mxGeometry width="30" height="30" as="geometry" />
        </mxCell>
        <mxCell id="KfJyjTm68fT7vTi74J8v-572" value="last_change datetime" style="shape=partialRectangle;overflow=hidden;connectable=0;fillColor=none;top=0;left=0;bottom=0;right=0;align=left;spacingLeft=6;" vertex="1" parent="KfJyjTm68fT7vTi74J8v-570">
          <mxGeometry x="30" width="310" height="30" as="geometry" />
        </mxCell>
        <mxCell id="KfJyjTm68fT7vTi74J8v-558" value="" style="shape=partialRectangle;collapsible=0;dropTarget=0;pointerEvents=0;fillColor=none;points=[[0,0.5],[1,0.5]];portConstraint=eastwest;top=0;left=0;right=0;bottom=0;" vertex="1" parent="KfJyjTm68fT7vTi74J8v-527">
          <mxGeometry y="420" width="340" height="30" as="geometry" />
        </mxCell>
        <mxCell id="KfJyjTm68fT7vTi74J8v-559" value="" style="shape=partialRectangle;overflow=hidden;connectable=0;fillColor=none;top=0;left=0;bottom=0;right=0;" vertex="1" parent="KfJyjTm68fT7vTi74J8v-558">
          <mxGeometry width="30" height="30" as="geometry" />
        </mxCell>
        <mxCell id="KfJyjTm68fT7vTi74J8v-560" value="" style="shape=partialRectangle;overflow=hidden;connectable=0;fillColor=none;top=0;left=0;bottom=0;right=0;align=left;spacingLeft=6;" vertex="1" parent="KfJyjTm68fT7vTi74J8v-558">
          <mxGeometry x="30" width="310" height="30" as="geometry" />
        </mxCell>
        <mxCell id="KfJyjTm68fT7vTi74J8v-567" value="" style="shape=partialRectangle;collapsible=0;dropTarget=0;pointerEvents=0;fillColor=none;points=[[0,0.5],[1,0.5]];portConstraint=eastwest;top=0;left=0;right=0;bottom=0;" vertex="1" parent="KfJyjTm68fT7vTi74J8v-527">
          <mxGeometry y="450" width="340" height="20" as="geometry" />
        </mxCell>
        <mxCell id="KfJyjTm68fT7vTi74J8v-568" value="" style="shape=partialRectangle;overflow=hidden;connectable=0;fillColor=none;top=0;left=0;bottom=0;right=0;" vertex="1" parent="KfJyjTm68fT7vTi74J8v-567">
          <mxGeometry width="30" height="20" as="geometry" />
        </mxCell>
        <mxCell id="KfJyjTm68fT7vTi74J8v-569" value="" style="shape=partialRectangle;overflow=hidden;connectable=0;fillColor=none;top=0;left=0;bottom=0;right=0;align=left;spacingLeft=6;" vertex="1" parent="KfJyjTm68fT7vTi74J8v-567">
          <mxGeometry x="30" width="310" height="20" as="geometry" />
        </mxCell>
        <mxCell id="KfJyjTm68fT7vTi74J8v-561" value="" style="shape=partialRectangle;collapsible=0;dropTarget=0;pointerEvents=0;fillColor=none;points=[[0,0.5],[1,0.5]];portConstraint=eastwest;top=0;left=0;right=0;bottom=0;" vertex="1" parent="KfJyjTm68fT7vTi74J8v-527">
          <mxGeometry y="470" width="340" height="30" as="geometry" />
        </mxCell>
        <mxCell id="KfJyjTm68fT7vTi74J8v-562" value="" style="shape=partialRectangle;overflow=hidden;connectable=0;fillColor=none;top=0;left=0;bottom=0;right=0;" vertex="1" parent="KfJyjTm68fT7vTi74J8v-561">
          <mxGeometry width="30" height="30" as="geometry" />
        </mxCell>
        <mxCell id="KfJyjTm68fT7vTi74J8v-563" value="" style="shape=partialRectangle;overflow=hidden;connectable=0;fillColor=none;top=0;left=0;bottom=0;right=0;align=left;spacingLeft=6;" vertex="1" parent="KfJyjTm68fT7vTi74J8v-561">
          <mxGeometry x="30" width="310" height="30" as="geometry" />
        </mxCell>
        <mxCell id="KfJyjTm68fT7vTi74J8v-564" value="" style="shape=partialRectangle;collapsible=0;dropTarget=0;pointerEvents=0;fillColor=none;points=[[0,0.5],[1,0.5]];portConstraint=eastwest;top=0;left=0;right=0;bottom=0;" vertex="1" parent="KfJyjTm68fT7vTi74J8v-527">
          <mxGeometry y="500" width="340" height="20" as="geometry" />
        </mxCell>
        <mxCell id="KfJyjTm68fT7vTi74J8v-565" value="" style="shape=partialRectangle;overflow=hidden;connectable=0;fillColor=none;top=0;left=0;bottom=0;right=0;" vertex="1" parent="KfJyjTm68fT7vTi74J8v-564">
          <mxGeometry width="30" height="20" as="geometry" />
        </mxCell>
        <mxCell id="KfJyjTm68fT7vTi74J8v-566" value="" style="shape=partialRectangle;overflow=hidden;connectable=0;fillColor=none;top=0;left=0;bottom=0;right=0;align=left;spacingLeft=6;" vertex="1" parent="KfJyjTm68fT7vTi74J8v-564">
          <mxGeometry x="30" width="310" height="20" as="geometry" />
        </mxCell>
        <mxCell id="KfJyjTm68fT7vTi74J8v-573" value="" style="edgeStyle=entityRelationEdgeStyle;endArrow=ERzeroToMany;startArrow=ERone;endFill=1;startFill=0;exitX=1;exitY=0.5;exitDx=0;exitDy=0;" edge="1" parent="1" source="KfJyjTm68fT7vTi74J8v-425" target="KfJyjTm68fT7vTi74J8v-531">
          <mxGeometry width="100" height="100" relative="1" as="geometry">
            <mxPoint x="-60" y="2100" as="sourcePoint" />
            <mxPoint x="-150" y="2170" as="targetPoint" />
          </mxGeometry>
        </mxCell>
        <mxCell id="KfJyjTm68fT7vTi74J8v-574" style="edgeStyle=orthogonalEdgeStyle;rounded=0;orthogonalLoop=1;jettySize=auto;html=1;exitX=0;exitY=0.5;exitDx=0;exitDy=0;" edge="1" parent="1" source="KfJyjTm68fT7vTi74J8v-317" target="KfJyjTm68fT7vTi74J8v-537">
          <mxGeometry relative="1" as="geometry" />
        </mxCell>
        <mxCell id="KfJyjTm68fT7vTi74J8v-576" value="" style="edgeStyle=entityRelationEdgeStyle;endArrow=ERzeroToMany;startArrow=ERone;endFill=1;startFill=0;" edge="1" parent="1" source="KfJyjTm68fT7vTi74J8v-425" target="KfJyjTm68fT7vTi74J8v-485">
          <mxGeometry width="100" height="100" relative="1" as="geometry">
            <mxPoint x="-190" y="2115" as="sourcePoint" />
            <mxPoint x="10" y="2245" as="targetPoint" />
          </mxGeometry>
        </mxCell>
        <mxCell id="KfJyjTm68fT7vTi74J8v-599" value="order_item [level=3]" style="shape=table;startSize=40;container=1;collapsible=1;childLayout=tableLayout;fixedRows=1;rowLines=0;fontStyle=1;align=center;resizeLast=1;" vertex="1" parent="1">
          <mxGeometry x="405" y="2800" width="340" height="520" as="geometry" />
        </mxCell>
        <mxCell id="KfJyjTm68fT7vTi74J8v-600" value="" style="shape=partialRectangle;collapsible=0;dropTarget=0;pointerEvents=0;fillColor=none;points=[[0,0.5],[1,0.5]];portConstraint=eastwest;top=0;left=0;right=0;bottom=1;" vertex="1" parent="KfJyjTm68fT7vTi74J8v-599">
          <mxGeometry y="40" width="340" height="30" as="geometry" />
        </mxCell>
        <mxCell id="KfJyjTm68fT7vTi74J8v-601" value="PK" style="shape=partialRectangle;overflow=hidden;connectable=0;fillColor=none;top=0;left=0;bottom=0;right=0;fontStyle=1;" vertex="1" parent="KfJyjTm68fT7vTi74J8v-600">
          <mxGeometry width="30" height="30" as="geometry" />
        </mxCell>
        <mxCell id="KfJyjTm68fT7vTi74J8v-602" value="orderitem_id int NOT NULL " style="shape=partialRectangle;overflow=hidden;connectable=0;fillColor=none;top=0;left=0;bottom=0;right=0;align=left;spacingLeft=6;fontStyle=5;" vertex="1" parent="KfJyjTm68fT7vTi74J8v-600">
          <mxGeometry x="30" width="310" height="30" as="geometry" />
        </mxCell>
        <mxCell id="KfJyjTm68fT7vTi74J8v-603" value="" style="shape=partialRectangle;collapsible=0;dropTarget=0;pointerEvents=0;fillColor=none;points=[[0,0.5],[1,0.5]];portConstraint=eastwest;top=0;left=0;right=0;bottom=0;" vertex="1" parent="KfJyjTm68fT7vTi74J8v-599">
          <mxGeometry y="70" width="340" height="30" as="geometry" />
        </mxCell>
        <mxCell id="KfJyjTm68fT7vTi74J8v-604" value="FK1" style="shape=partialRectangle;overflow=hidden;connectable=0;fillColor=none;top=0;left=0;bottom=0;right=0;" vertex="1" parent="KfJyjTm68fT7vTi74J8v-603">
          <mxGeometry width="30" height="30" as="geometry" />
        </mxCell>
        <mxCell id="KfJyjTm68fT7vTi74J8v-605" value="order_id bigint NOT NULL" style="shape=partialRectangle;overflow=hidden;connectable=0;fillColor=none;top=0;left=0;bottom=0;right=0;align=left;spacingLeft=6;" vertex="1" parent="KfJyjTm68fT7vTi74J8v-603">
          <mxGeometry x="30" width="310" height="30" as="geometry" />
        </mxCell>
        <mxCell id="KfJyjTm68fT7vTi74J8v-606" value="" style="shape=partialRectangle;collapsible=0;dropTarget=0;pointerEvents=0;fillColor=none;points=[[0,0.5],[1,0.5]];portConstraint=eastwest;top=0;left=0;right=0;bottom=0;" vertex="1" parent="KfJyjTm68fT7vTi74J8v-599">
          <mxGeometry y="100" width="340" height="40" as="geometry" />
        </mxCell>
        <mxCell id="KfJyjTm68fT7vTi74J8v-607" value="" style="shape=partialRectangle;overflow=hidden;connectable=0;fillColor=none;top=0;left=0;bottom=0;right=0;" vertex="1" parent="KfJyjTm68fT7vTi74J8v-606">
          <mxGeometry width="30" height="40" as="geometry" />
        </mxCell>
        <mxCell id="KfJyjTm68fT7vTi74J8v-608" value="added_on [date]" style="shape=partialRectangle;overflow=hidden;connectable=0;fillColor=none;top=0;left=0;bottom=0;right=0;align=left;spacingLeft=6;" vertex="1" parent="KfJyjTm68fT7vTi74J8v-606">
          <mxGeometry x="30" width="310" height="40" as="geometry" />
        </mxCell>
        <mxCell id="KfJyjTm68fT7vTi74J8v-609" value="" style="shape=partialRectangle;collapsible=0;dropTarget=0;pointerEvents=0;fillColor=none;points=[[0,0.5],[1,0.5]];portConstraint=eastwest;top=0;left=0;right=0;bottom=0;" vertex="1" parent="KfJyjTm68fT7vTi74J8v-599">
          <mxGeometry y="140" width="340" height="40" as="geometry" />
        </mxCell>
        <mxCell id="KfJyjTm68fT7vTi74J8v-610" value="" style="shape=partialRectangle;overflow=hidden;connectable=0;fillColor=none;top=0;left=0;bottom=0;right=0;" vertex="1" parent="KfJyjTm68fT7vTi74J8v-609">
          <mxGeometry width="30" height="40" as="geometry" />
        </mxCell>
        <mxCell id="KfJyjTm68fT7vTi74J8v-611" value="item_id bigint" style="shape=partialRectangle;overflow=hidden;connectable=0;fillColor=none;top=0;left=0;bottom=0;right=0;align=left;spacingLeft=6;" vertex="1" parent="KfJyjTm68fT7vTi74J8v-609">
          <mxGeometry x="30" width="310" height="40" as="geometry" />
        </mxCell>
        <mxCell id="KfJyjTm68fT7vTi74J8v-612" value="" style="shape=partialRectangle;collapsible=0;dropTarget=0;pointerEvents=0;fillColor=none;points=[[0,0.5],[1,0.5]];portConstraint=eastwest;top=0;left=0;right=0;bottom=0;" vertex="1" parent="KfJyjTm68fT7vTi74J8v-599">
          <mxGeometry y="180" width="340" height="30" as="geometry" />
        </mxCell>
        <mxCell id="KfJyjTm68fT7vTi74J8v-613" value="" style="shape=partialRectangle;overflow=hidden;connectable=0;fillColor=none;top=0;left=0;bottom=0;right=0;" vertex="1" parent="KfJyjTm68fT7vTi74J8v-612">
          <mxGeometry width="30" height="30" as="geometry" />
        </mxCell>
        <mxCell id="KfJyjTm68fT7vTi74J8v-614" value="" style="shape=partialRectangle;overflow=hidden;connectable=0;fillColor=none;top=0;left=0;bottom=0;right=0;align=left;spacingLeft=6;" vertex="1" parent="KfJyjTm68fT7vTi74J8v-612">
          <mxGeometry x="30" width="310" height="30" as="geometry" />
        </mxCell>
        <mxCell id="KfJyjTm68fT7vTi74J8v-615" value="" style="shape=partialRectangle;collapsible=0;dropTarget=0;pointerEvents=0;fillColor=none;points=[[0,0.5],[1,0.5]];portConstraint=eastwest;top=0;left=0;right=0;bottom=0;" vertex="1" parent="KfJyjTm68fT7vTi74J8v-599">
          <mxGeometry y="210" width="340" height="30" as="geometry" />
        </mxCell>
        <mxCell id="KfJyjTm68fT7vTi74J8v-616" value="" style="shape=partialRectangle;overflow=hidden;connectable=0;fillColor=none;top=0;left=0;bottom=0;right=0;" vertex="1" parent="KfJyjTm68fT7vTi74J8v-615">
          <mxGeometry width="30" height="30" as="geometry" />
        </mxCell>
        <mxCell id="KfJyjTm68fT7vTi74J8v-617" value="qty double" style="shape=partialRectangle;overflow=hidden;connectable=0;fillColor=none;top=0;left=0;bottom=0;right=0;align=left;spacingLeft=6;" vertex="1" parent="KfJyjTm68fT7vTi74J8v-615">
          <mxGeometry x="30" width="310" height="30" as="geometry" />
        </mxCell>
        <mxCell id="KfJyjTm68fT7vTi74J8v-618" value="" style="shape=partialRectangle;collapsible=0;dropTarget=0;pointerEvents=0;fillColor=none;points=[[0,0.5],[1,0.5]];portConstraint=eastwest;top=0;left=0;right=0;bottom=0;" vertex="1" parent="KfJyjTm68fT7vTi74J8v-599">
          <mxGeometry y="240" width="340" height="30" as="geometry" />
        </mxCell>
        <mxCell id="KfJyjTm68fT7vTi74J8v-619" value="" style="shape=partialRectangle;overflow=hidden;connectable=0;fillColor=none;top=0;left=0;bottom=0;right=0;" vertex="1" parent="KfJyjTm68fT7vTi74J8v-618">
          <mxGeometry width="30" height="30" as="geometry" />
        </mxCell>
        <mxCell id="KfJyjTm68fT7vTi74J8v-620" value="" style="shape=partialRectangle;overflow=hidden;connectable=0;fillColor=none;top=0;left=0;bottom=0;right=0;align=left;spacingLeft=6;" vertex="1" parent="KfJyjTm68fT7vTi74J8v-618">
          <mxGeometry x="30" width="310" height="30" as="geometry" />
        </mxCell>
        <mxCell id="KfJyjTm68fT7vTi74J8v-621" value="" style="shape=partialRectangle;collapsible=0;dropTarget=0;pointerEvents=0;fillColor=none;points=[[0,0.5],[1,0.5]];portConstraint=eastwest;top=0;left=0;right=0;bottom=0;" vertex="1" parent="KfJyjTm68fT7vTi74J8v-599">
          <mxGeometry y="270" width="340" height="30" as="geometry" />
        </mxCell>
        <mxCell id="KfJyjTm68fT7vTi74J8v-622" value="" style="shape=partialRectangle;overflow=hidden;connectable=0;fillColor=none;top=0;left=0;bottom=0;right=0;" vertex="1" parent="KfJyjTm68fT7vTi74J8v-621">
          <mxGeometry width="30" height="30" as="geometry" />
        </mxCell>
        <mxCell id="KfJyjTm68fT7vTi74J8v-623" value="" style="shape=partialRectangle;overflow=hidden;connectable=0;fillColor=none;top=0;left=0;bottom=0;right=0;align=left;spacingLeft=6;" vertex="1" parent="KfJyjTm68fT7vTi74J8v-621">
          <mxGeometry x="30" width="310" height="30" as="geometry" />
        </mxCell>
        <mxCell id="KfJyjTm68fT7vTi74J8v-624" value="" style="shape=partialRectangle;collapsible=0;dropTarget=0;pointerEvents=0;fillColor=none;points=[[0,0.5],[1,0.5]];portConstraint=eastwest;top=0;left=0;right=0;bottom=0;" vertex="1" parent="KfJyjTm68fT7vTi74J8v-599">
          <mxGeometry y="300" width="340" height="30" as="geometry" />
        </mxCell>
        <mxCell id="KfJyjTm68fT7vTi74J8v-625" value="" style="shape=partialRectangle;overflow=hidden;connectable=0;fillColor=none;top=0;left=0;bottom=0;right=0;" vertex="1" parent="KfJyjTm68fT7vTi74J8v-624">
          <mxGeometry width="30" height="30" as="geometry" />
        </mxCell>
        <mxCell id="KfJyjTm68fT7vTi74J8v-626" value="amount   double" style="shape=partialRectangle;overflow=hidden;connectable=0;fillColor=none;top=0;left=0;bottom=0;right=0;align=left;spacingLeft=6;fontStyle=1;container=1;" vertex="1" parent="KfJyjTm68fT7vTi74J8v-624">
          <mxGeometry x="30" width="310" height="30" as="geometry" />
        </mxCell>
        <mxCell id="KfJyjTm68fT7vTi74J8v-627" value="" style="shape=partialRectangle;collapsible=0;dropTarget=0;pointerEvents=0;fillColor=none;points=[[0,0.5],[1,0.5]];portConstraint=eastwest;top=0;left=0;right=0;bottom=0;" vertex="1" parent="KfJyjTm68fT7vTi74J8v-599">
          <mxGeometry y="330" width="340" height="60" as="geometry" />
        </mxCell>
        <mxCell id="KfJyjTm68fT7vTi74J8v-628" value="" style="shape=partialRectangle;overflow=hidden;connectable=0;fillColor=none;top=0;left=0;bottom=0;right=0;" vertex="1" parent="KfJyjTm68fT7vTi74J8v-627">
          <mxGeometry width="30" height="60" as="geometry" />
        </mxCell>
        <mxCell id="KfJyjTm68fT7vTi74J8v-629" value="totalamount  double" style="shape=partialRectangle;overflow=hidden;connectable=0;fillColor=none;top=0;left=0;bottom=0;right=0;align=left;spacingLeft=6;fontStyle=1;container=1;" vertex="1" parent="KfJyjTm68fT7vTi74J8v-627">
          <mxGeometry x="30" width="310" height="60" as="geometry" />
        </mxCell>
        <mxCell id="KfJyjTm68fT7vTi74J8v-630" value="" style="shape=partialRectangle;collapsible=0;dropTarget=0;pointerEvents=0;fillColor=none;points=[[0,0.5],[1,0.5]];portConstraint=eastwest;top=0;left=0;right=0;bottom=0;" vertex="1" parent="KfJyjTm68fT7vTi74J8v-599">
          <mxGeometry y="390" width="340" height="30" as="geometry" />
        </mxCell>
        <mxCell id="KfJyjTm68fT7vTi74J8v-631" value="" style="shape=partialRectangle;overflow=hidden;connectable=0;fillColor=none;top=0;left=0;bottom=0;right=0;" vertex="1" parent="KfJyjTm68fT7vTi74J8v-630">
          <mxGeometry width="30" height="30" as="geometry" />
        </mxCell>
        <mxCell id="KfJyjTm68fT7vTi74J8v-632" value="last_change datetime" style="shape=partialRectangle;overflow=hidden;connectable=0;fillColor=none;top=0;left=0;bottom=0;right=0;align=left;spacingLeft=6;" vertex="1" parent="KfJyjTm68fT7vTi74J8v-630">
          <mxGeometry x="30" width="310" height="30" as="geometry" />
        </mxCell>
        <mxCell id="KfJyjTm68fT7vTi74J8v-633" value="" style="shape=partialRectangle;collapsible=0;dropTarget=0;pointerEvents=0;fillColor=none;points=[[0,0.5],[1,0.5]];portConstraint=eastwest;top=0;left=0;right=0;bottom=0;" vertex="1" parent="KfJyjTm68fT7vTi74J8v-599">
          <mxGeometry y="420" width="340" height="30" as="geometry" />
        </mxCell>
        <mxCell id="KfJyjTm68fT7vTi74J8v-634" value="" style="shape=partialRectangle;overflow=hidden;connectable=0;fillColor=none;top=0;left=0;bottom=0;right=0;" vertex="1" parent="KfJyjTm68fT7vTi74J8v-633">
          <mxGeometry width="30" height="30" as="geometry" />
        </mxCell>
        <mxCell id="KfJyjTm68fT7vTi74J8v-635" value="" style="shape=partialRectangle;overflow=hidden;connectable=0;fillColor=none;top=0;left=0;bottom=0;right=0;align=left;spacingLeft=6;" vertex="1" parent="KfJyjTm68fT7vTi74J8v-633">
          <mxGeometry x="30" width="310" height="30" as="geometry" />
        </mxCell>
        <mxCell id="KfJyjTm68fT7vTi74J8v-636" value="" style="shape=partialRectangle;collapsible=0;dropTarget=0;pointerEvents=0;fillColor=none;points=[[0,0.5],[1,0.5]];portConstraint=eastwest;top=0;left=0;right=0;bottom=0;" vertex="1" parent="KfJyjTm68fT7vTi74J8v-599">
          <mxGeometry y="450" width="340" height="20" as="geometry" />
        </mxCell>
        <mxCell id="KfJyjTm68fT7vTi74J8v-637" value="" style="shape=partialRectangle;overflow=hidden;connectable=0;fillColor=none;top=0;left=0;bottom=0;right=0;" vertex="1" parent="KfJyjTm68fT7vTi74J8v-636">
          <mxGeometry width="30" height="20" as="geometry" />
        </mxCell>
        <mxCell id="KfJyjTm68fT7vTi74J8v-638" value="" style="shape=partialRectangle;overflow=hidden;connectable=0;fillColor=none;top=0;left=0;bottom=0;right=0;align=left;spacingLeft=6;" vertex="1" parent="KfJyjTm68fT7vTi74J8v-636">
          <mxGeometry x="30" width="310" height="20" as="geometry" />
        </mxCell>
        <mxCell id="KfJyjTm68fT7vTi74J8v-639" value="" style="shape=partialRectangle;collapsible=0;dropTarget=0;pointerEvents=0;fillColor=none;points=[[0,0.5],[1,0.5]];portConstraint=eastwest;top=0;left=0;right=0;bottom=0;" vertex="1" parent="KfJyjTm68fT7vTi74J8v-599">
          <mxGeometry y="470" width="340" height="30" as="geometry" />
        </mxCell>
        <mxCell id="KfJyjTm68fT7vTi74J8v-640" value="" style="shape=partialRectangle;overflow=hidden;connectable=0;fillColor=none;top=0;left=0;bottom=0;right=0;" vertex="1" parent="KfJyjTm68fT7vTi74J8v-639">
          <mxGeometry width="30" height="30" as="geometry" />
        </mxCell>
        <mxCell id="KfJyjTm68fT7vTi74J8v-641" value="" style="shape=partialRectangle;overflow=hidden;connectable=0;fillColor=none;top=0;left=0;bottom=0;right=0;align=left;spacingLeft=6;" vertex="1" parent="KfJyjTm68fT7vTi74J8v-639">
          <mxGeometry x="30" width="310" height="30" as="geometry" />
        </mxCell>
        <mxCell id="KfJyjTm68fT7vTi74J8v-642" value="" style="shape=partialRectangle;collapsible=0;dropTarget=0;pointerEvents=0;fillColor=none;points=[[0,0.5],[1,0.5]];portConstraint=eastwest;top=0;left=0;right=0;bottom=0;" vertex="1" parent="KfJyjTm68fT7vTi74J8v-599">
          <mxGeometry y="500" width="340" height="20" as="geometry" />
        </mxCell>
        <mxCell id="KfJyjTm68fT7vTi74J8v-643" value="" style="shape=partialRectangle;overflow=hidden;connectable=0;fillColor=none;top=0;left=0;bottom=0;right=0;" vertex="1" parent="KfJyjTm68fT7vTi74J8v-642">
          <mxGeometry width="30" height="20" as="geometry" />
        </mxCell>
        <mxCell id="KfJyjTm68fT7vTi74J8v-644" value="" style="shape=partialRectangle;overflow=hidden;connectable=0;fillColor=none;top=0;left=0;bottom=0;right=0;align=left;spacingLeft=6;" vertex="1" parent="KfJyjTm68fT7vTi74J8v-642">
          <mxGeometry x="30" width="310" height="20" as="geometry" />
        </mxCell>
        <mxCell id="KfJyjTm68fT7vTi74J8v-645" value="" style="edgeStyle=entityRelationEdgeStyle;endArrow=ERzeroToMany;startArrow=ERone;endFill=1;startFill=0;" edge="1" parent="1" source="KfJyjTm68fT7vTi74J8v-482" target="KfJyjTm68fT7vTi74J8v-603">
          <mxGeometry width="100" height="100" relative="1" as="geometry">
            <mxPoint x="-190" y="2115" as="sourcePoint" />
            <mxPoint x="400" y="2135" as="targetPoint" />
          </mxGeometry>
        </mxCell>
      </root>
    </mxGraphModel>
  </diagram>
</mxfile>
